ISO-10303-21;
HEADER;
/* Generated by software containing ST-Developer
 * from STEP Tools, Inc. (www.steptools.com) 
 */
/* OPTION: using custom renumber hook */

FILE_DESCRIPTION(
/* description */ ('STEP AP242 Edition 2',
'CAx-IF Rec.Pracs.---Representation and Presentation of Product Manufa
cturing Information (PMI)---4.0---2014-10-13',
'CAx-IF Rec.Pracs.---3D Tessellated Geometry---0.4---2014-09-14','2;1',
'CAx-IF Rec.Pracs.---User Defined Attributes---1.5---2016-08-15'),
/* implementation_level */ '2;1');

FILE_NAME(
/* name */ '696a5ffe1a0a71e9660ffab2',
/* time_stamp */ '2026-01-16T15:57:51Z',
/* author */ (''),
/* organization */ (''),
/* preprocessor_version */ 'ST-DEVELOPER v20',
/* originating_system */ 'ONSHAPE BY PTC INC, 1.209',
/* authorisation */ '  ');

FILE_SCHEMA (('AP242_MANAGED_MODEL_BASED_3D_ENGINEERING_MIM_LF { 1 0 10303 442 3 1 4 }'));
ENDSEC;

DATA;
#10=SHAPE_REPRESENTATION_RELATIONSHIP('','',#544,#11);
#11=ADVANCED_BREP_SHAPE_REPRESENTATION('',(#542),#955);
#12=TOROIDAL_SURFACE('',#624,0.00875,0.0005);
#13=SPHERICAL_SURFACE('',#576,0.002);
#14=SPHERICAL_SURFACE('',#579,0.002);
#15=SPHERICAL_SURFACE('',#596,0.002);
#16=SPHERICAL_SURFACE('',#598,0.002);
#17=SPHERICAL_SURFACE('',#600,0.002);
#18=SPHERICAL_SURFACE('',#602,0.002);
#19=SPHERICAL_SURFACE('',#612,0.002);
#20=SPHERICAL_SURFACE('',#614,0.002);
#21=CIRCLE('',#551,0.00825);
#22=CIRCLE('',#552,0.00825);
#23=CIRCLE('',#554,0.00875);
#24=CIRCLE('',#555,0.0017);
#25=CIRCLE('',#556,0.0017);
#26=CIRCLE('',#557,0.0017);
#27=CIRCLE('',#558,0.0017);
#28=CIRCLE('',#560,0.00475);
#29=CIRCLE('',#561,0.0017);
#30=CIRCLE('',#562,0.0017);
#31=CIRCLE('',#563,0.0017);
#32=CIRCLE('',#564,0.0017);
#33=CIRCLE('',#566,0.0035);
#34=CIRCLE('',#567,0.0035);
#35=CIRCLE('',#574,0.002);
#36=CIRCLE('',#575,0.002);
#37=CIRCLE('',#577,0.002);
#38=CIRCLE('',#578,0.002);
#39=CIRCLE('',#580,0.002);
#40=CIRCLE('',#581,0.002);
#41=CIRCLE('',#583,0.002);
#42=CIRCLE('',#585,0.002);
#43=CIRCLE('',#587,0.002);
#44=CIRCLE('',#588,0.002);
#45=CIRCLE('',#590,0.002);
#46=CIRCLE('',#592,0.002);
#47=CIRCLE('',#594,0.002);
#48=CIRCLE('',#595,0.002);
#49=CIRCLE('',#597,0.002);
#50=CIRCLE('',#599,0.002);
#51=CIRCLE('',#601,0.002);
#52=CIRCLE('',#603,0.002);
#53=CIRCLE('',#605,0.002);
#54=CIRCLE('',#607,0.002);
#55=CIRCLE('',#609,0.002);
#56=CIRCLE('',#611,0.002);
#57=CIRCLE('',#613,0.002);
#58=CIRCLE('',#615,0.002);
#59=CIRCLE('',#618,0.0033);
#60=CIRCLE('',#620,0.00475);
#61=CIRCLE('',#622,0.0033);
#62=CYLINDRICAL_SURFACE('',#550,0.00825);
#63=CYLINDRICAL_SURFACE('',#565,0.0035);
#64=CYLINDRICAL_SURFACE('',#569,0.0017);
#65=CYLINDRICAL_SURFACE('',#570,0.0017);
#66=CYLINDRICAL_SURFACE('',#571,0.0017);
#67=CYLINDRICAL_SURFACE('',#572,0.0017);
#68=CYLINDRICAL_SURFACE('',#573,0.002);
#69=CYLINDRICAL_SURFACE('',#582,0.002);
#70=CYLINDRICAL_SURFACE('',#584,0.002);
#71=CYLINDRICAL_SURFACE('',#586,0.002);
#72=CYLINDRICAL_SURFACE('',#589,0.002);
#73=CYLINDRICAL_SURFACE('',#591,0.002);
#74=CYLINDRICAL_SURFACE('',#593,0.002);
#75=CYLINDRICAL_SURFACE('',#604,0.002);
#76=CYLINDRICAL_SURFACE('',#606,0.002);
#77=CYLINDRICAL_SURFACE('',#608,0.002);
#78=CYLINDRICAL_SURFACE('',#610,0.002);
#79=CYLINDRICAL_SURFACE('',#616,0.002);
#80=CYLINDRICAL_SURFACE('',#619,0.00475);
#81=CYLINDRICAL_SURFACE('',#623,0.0033);
#82=ORIENTED_EDGE('',*,*,#212,.T.);
#83=ORIENTED_EDGE('',*,*,#213,.T.);
#84=ORIENTED_EDGE('',*,*,#214,.T.);
#85=ORIENTED_EDGE('',*,*,#215,.T.);
#86=ORIENTED_EDGE('',*,*,#216,.T.);
#87=ORIENTED_EDGE('',*,*,#217,.T.);
#88=ORIENTED_EDGE('',*,*,#218,.T.);
#89=ORIENTED_EDGE('',*,*,#219,.T.);
#90=ORIENTED_EDGE('',*,*,#220,.T.);
#91=ORIENTED_EDGE('',*,*,#221,.T.);
#92=ORIENTED_EDGE('',*,*,#222,.T.);
#93=ORIENTED_EDGE('',*,*,#223,.T.);
#94=ORIENTED_EDGE('',*,*,#224,.T.);
#95=ORIENTED_EDGE('',*,*,#225,.T.);
#96=ORIENTED_EDGE('',*,*,#226,.T.);
#97=ORIENTED_EDGE('',*,*,#227,.T.);
#98=ORIENTED_EDGE('',*,*,#228,.T.);
#99=ORIENTED_EDGE('',*,*,#229,.F.);
#100=ORIENTED_EDGE('',*,*,#230,.T.);
#101=ORIENTED_EDGE('',*,*,#231,.T.);
#102=ORIENTED_EDGE('',*,*,#232,.T.);
#103=ORIENTED_EDGE('',*,*,#233,.T.);
#104=ORIENTED_EDGE('',*,*,#234,.T.);
#105=ORIENTED_EDGE('',*,*,#235,.T.);
#106=ORIENTED_EDGE('',*,*,#236,.T.);
#107=ORIENTED_EDGE('',*,*,#237,.T.);
#108=ORIENTED_EDGE('',*,*,#238,.T.);
#109=ORIENTED_EDGE('',*,*,#239,.T.);
#110=ORIENTED_EDGE('',*,*,#240,.T.);
#111=ORIENTED_EDGE('',*,*,#241,.T.);
#112=ORIENTED_EDGE('',*,*,#242,.T.);
#113=ORIENTED_EDGE('',*,*,#243,.T.);
#114=ORIENTED_EDGE('',*,*,#244,.T.);
#115=ORIENTED_EDGE('',*,*,#245,.T.);
#116=ORIENTED_EDGE('',*,*,#246,.T.);
#117=ORIENTED_EDGE('',*,*,#247,.T.);
#118=ORIENTED_EDGE('',*,*,#248,.T.);
#119=ORIENTED_EDGE('',*,*,#249,.F.);
#120=ORIENTED_EDGE('',*,*,#248,.F.);
#121=ORIENTED_EDGE('',*,*,#229,.T.);
#122=ORIENTED_EDGE('',*,*,#238,.F.);
#123=ORIENTED_EDGE('',*,*,#247,.F.);
#124=ORIENTED_EDGE('',*,*,#237,.F.);
#125=ORIENTED_EDGE('',*,*,#246,.F.);
#126=ORIENTED_EDGE('',*,*,#236,.F.);
#127=ORIENTED_EDGE('',*,*,#245,.F.);
#128=ORIENTED_EDGE('',*,*,#235,.F.);
#129=ORIENTED_EDGE('',*,*,#244,.F.);
#130=ORIENTED_EDGE('',*,*,#250,.F.);
#131=ORIENTED_EDGE('',*,*,#243,.F.);
#132=ORIENTED_EDGE('',*,*,#251,.F.);
#133=ORIENTED_EDGE('',*,*,#216,.F.);
#134=ORIENTED_EDGE('',*,*,#252,.F.);
#135=ORIENTED_EDGE('',*,*,#250,.T.);
#136=ORIENTED_EDGE('',*,*,#253,.F.);
#137=ORIENTED_EDGE('',*,*,#254,.F.);
#138=ORIENTED_EDGE('',*,*,#251,.T.);
#139=ORIENTED_EDGE('',*,*,#255,.F.);
#140=ORIENTED_EDGE('',*,*,#253,.T.);
#141=ORIENTED_EDGE('',*,*,#219,.F.);
#142=ORIENTED_EDGE('',*,*,#256,.F.);
#143=ORIENTED_EDGE('',*,*,#215,.F.);
#144=ORIENTED_EDGE('',*,*,#252,.T.);
#145=ORIENTED_EDGE('',*,*,#214,.F.);
#146=ORIENTED_EDGE('',*,*,#257,.F.);
#147=ORIENTED_EDGE('',*,*,#240,.F.);
#148=ORIENTED_EDGE('',*,*,#258,.F.);
#149=ORIENTED_EDGE('',*,*,#241,.F.);
#150=ORIENTED_EDGE('',*,*,#259,.F.);
#151=ORIENTED_EDGE('',*,*,#224,.F.);
#152=ORIENTED_EDGE('',*,*,#255,.T.);
#153=ORIENTED_EDGE('',*,*,#242,.F.);
#154=ORIENTED_EDGE('',*,*,#260,.F.);
#155=ORIENTED_EDGE('',*,*,#221,.F.);
#156=ORIENTED_EDGE('',*,*,#254,.T.);
#157=ORIENTED_EDGE('',*,*,#220,.F.);
#158=ORIENTED_EDGE('',*,*,#261,.F.);
#159=ORIENTED_EDGE('',*,*,#217,.F.);
#160=ORIENTED_EDGE('',*,*,#262,.F.);
#161=ORIENTED_EDGE('',*,*,#218,.F.);
#162=ORIENTED_EDGE('',*,*,#263,.F.);
#163=ORIENTED_EDGE('',*,*,#234,.F.);
#164=ORIENTED_EDGE('',*,*,#256,.T.);
#165=ORIENTED_EDGE('',*,*,#262,.T.);
#166=ORIENTED_EDGE('',*,*,#264,.F.);
#167=ORIENTED_EDGE('',*,*,#259,.T.);
#168=ORIENTED_EDGE('',*,*,#257,.T.);
#169=ORIENTED_EDGE('',*,*,#265,.F.);
#170=ORIENTED_EDGE('',*,*,#260,.T.);
#171=ORIENTED_EDGE('',*,*,#258,.T.);
#172=ORIENTED_EDGE('',*,*,#266,.F.);
#173=ORIENTED_EDGE('',*,*,#263,.T.);
#174=ORIENTED_EDGE('',*,*,#261,.T.);
#175=ORIENTED_EDGE('',*,*,#267,.F.);
#176=ORIENTED_EDGE('',*,*,#264,.T.);
#177=ORIENTED_EDGE('',*,*,#233,.F.);
#178=ORIENTED_EDGE('',*,*,#268,.F.);
#179=ORIENTED_EDGE('',*,*,#212,.F.);
#180=ORIENTED_EDGE('',*,*,#265,.T.);
#181=ORIENTED_EDGE('',*,*,#213,.F.);
#182=ORIENTED_EDGE('',*,*,#269,.F.);
#183=ORIENTED_EDGE('',*,*,#225,.F.);
#184=ORIENTED_EDGE('',*,*,#266,.T.);
#185=ORIENTED_EDGE('',*,*,#227,.F.);
#186=ORIENTED_EDGE('',*,*,#270,.F.);
#187=ORIENTED_EDGE('',*,*,#222,.F.);
#188=ORIENTED_EDGE('',*,*,#267,.T.);
#189=ORIENTED_EDGE('',*,*,#223,.F.);
#190=ORIENTED_EDGE('',*,*,#271,.F.);
#191=ORIENTED_EDGE('',*,*,#231,.F.);
#192=ORIENTED_EDGE('',*,*,#269,.T.);
#193=ORIENTED_EDGE('',*,*,#268,.T.);
#194=ORIENTED_EDGE('',*,*,#272,.F.);
#195=ORIENTED_EDGE('',*,*,#271,.T.);
#196=ORIENTED_EDGE('',*,*,#270,.T.);
#197=ORIENTED_EDGE('',*,*,#273,.F.);
#198=ORIENTED_EDGE('',*,*,#272,.T.);
#199=ORIENTED_EDGE('',*,*,#232,.F.);
#200=ORIENTED_EDGE('',*,*,#273,.T.);
#201=ORIENTED_EDGE('',*,*,#226,.F.);
#202=ORIENTED_EDGE('',*,*,#274,.T.);
#203=ORIENTED_EDGE('',*,*,#249,.T.);
#204=ORIENTED_EDGE('',*,*,#275,.T.);
#205=ORIENTED_EDGE('',*,*,#239,.F.);
#206=ORIENTED_EDGE('',*,*,#276,.F.);
#207=ORIENTED_EDGE('',*,*,#275,.F.);
#208=ORIENTED_EDGE('',*,*,#274,.F.);
#209=ORIENTED_EDGE('',*,*,#276,.T.);
#210=ORIENTED_EDGE('',*,*,#230,.F.);
#211=ORIENTED_EDGE('',*,*,#228,.F.);
#212=EDGE_CURVE('',#277,#278,#318,.T.);
#213=EDGE_CURVE('',#278,#279,#319,.T.);
#214=EDGE_CURVE('',#279,#280,#320,.F.);
#215=EDGE_CURVE('',#280,#277,#321,.F.);
#216=EDGE_CURVE('',#281,#282,#322,.T.);
#217=EDGE_CURVE('',#282,#283,#323,.F.);
#218=EDGE_CURVE('',#283,#284,#324,.F.);
#219=EDGE_CURVE('',#284,#281,#325,.T.);
#220=EDGE_CURVE('',#285,#286,#326,.T.);
#221=EDGE_CURVE('',#286,#287,#327,.T.);
#222=EDGE_CURVE('',#287,#288,#328,.F.);
#223=EDGE_CURVE('',#288,#285,#329,.F.);
#224=EDGE_CURVE('',#289,#290,#330,.F.);
#225=EDGE_CURVE('',#290,#291,#331,.F.);
#226=EDGE_CURVE('',#291,#292,#332,.T.);
#227=EDGE_CURVE('',#292,#289,#333,.T.);
#228=EDGE_CURVE('',#293,#293,#21,.T.);
#229=EDGE_CURVE('',#294,#294,#22,.T.);
#230=EDGE_CURVE('',#295,#295,#23,.F.);
#231=EDGE_CURVE('',#296,#297,#334,.T.);
#232=EDGE_CURVE('',#297,#298,#335,.F.);
#233=EDGE_CURVE('',#298,#299,#336,.F.);
#234=EDGE_CURVE('',#299,#296,#337,.T.);
#235=EDGE_CURVE('',#300,#300,#24,.F.);
#236=EDGE_CURVE('',#301,#301,#25,.F.);
#237=EDGE_CURVE('',#302,#302,#26,.F.);
#238=EDGE_CURVE('',#303,#303,#27,.F.);
#239=EDGE_CURVE('',#304,#304,#28,.T.);
#240=EDGE_CURVE('',#305,#306,#338,.T.);
#241=EDGE_CURVE('',#306,#307,#339,.T.);
#242=EDGE_CURVE('',#307,#308,#340,.F.);
#243=EDGE_CURVE('',#308,#305,#341,.F.);
#244=EDGE_CURVE('',#309,#309,#29,.T.);
#245=EDGE_CURVE('',#310,#310,#30,.T.);
#246=EDGE_CURVE('',#311,#311,#31,.T.);
#247=EDGE_CURVE('',#312,#312,#32,.T.);
#248=EDGE_CURVE('',#313,#313,#33,.T.);
#249=EDGE_CURVE('',#314,#314,#34,.T.);
#250=EDGE_CURVE('',#305,#281,#35,.T.);
#251=EDGE_CURVE('',#282,#308,#36,.T.);
#252=EDGE_CURVE('',#305,#280,#37,.F.);
#253=EDGE_CURVE('',#280,#281,#38,.F.);
#254=EDGE_CURVE('',#282,#286,#39,.F.);
#255=EDGE_CURVE('',#286,#308,#40,.F.);
#256=EDGE_CURVE('',#277,#284,#41,.T.);
#257=EDGE_CURVE('',#306,#279,#42,.T.);
#258=EDGE_CURVE('',#307,#289,#43,.T.);
#259=EDGE_CURVE('',#290,#306,#44,.T.);
#260=EDGE_CURVE('',#287,#307,#45,.T.);
#261=EDGE_CURVE('',#283,#285,#46,.T.);
#262=EDGE_CURVE('',#284,#299,#47,.T.);
#263=EDGE_CURVE('',#296,#283,#48,.T.);
#264=EDGE_CURVE('',#277,#299,#49,.F.);
#265=EDGE_CURVE('',#290,#279,#50,.F.);
#266=EDGE_CURVE('',#287,#289,#51,.F.);
#267=EDGE_CURVE('',#296,#285,#52,.F.);
#268=EDGE_CURVE('',#278,#298,#53,.T.);
#269=EDGE_CURVE('',#291,#278,#54,.T.);
#270=EDGE_CURVE('',#288,#292,#55,.T.);
#271=EDGE_CURVE('',#297,#288,#56,.T.);
#272=EDGE_CURVE('',#291,#298,#57,.F.);
#273=EDGE_CURVE('',#297,#292,#58,.F.);
#274=EDGE_CURVE('',#315,#315,#59,.T.);
#275=EDGE_CURVE('',#316,#316,#60,.T.);
#276=EDGE_CURVE('',#317,#317,#61,.F.);
#277=VERTEX_POINT('',#812);
#278=VERTEX_POINT('',#813);
#279=VERTEX_POINT('',#815);
#280=VERTEX_POINT('',#817);
#281=VERTEX_POINT('',#821);
#282=VERTEX_POINT('',#822);
#283=VERTEX_POINT('',#824);
#284=VERTEX_POINT('',#826);
#285=VERTEX_POINT('',#830);
#286=VERTEX_POINT('',#831);
#287=VERTEX_POINT('',#833);
#288=VERTEX_POINT('',#835);
#289=VERTEX_POINT('',#839);
#290=VERTEX_POINT('',#840);
#291=VERTEX_POINT('',#842);
#292=VERTEX_POINT('',#844);
#293=VERTEX_POINT('',#848);
#294=VERTEX_POINT('',#850);
#295=VERTEX_POINT('',#853);
#296=VERTEX_POINT('',#855);
#297=VERTEX_POINT('',#856);
#298=VERTEX_POINT('',#858);
#299=VERTEX_POINT('',#860);
#300=VERTEX_POINT('',#863);
#301=VERTEX_POINT('',#865);
#302=VERTEX_POINT('',#867);
#303=VERTEX_POINT('',#869);
#304=VERTEX_POINT('',#872);
#305=VERTEX_POINT('',#874);
#306=VERTEX_POINT('',#875);
#307=VERTEX_POINT('',#877);
#308=VERTEX_POINT('',#879);
#309=VERTEX_POINT('',#882);
#310=VERTEX_POINT('',#884);
#311=VERTEX_POINT('',#886);
#312=VERTEX_POINT('',#888);
#313=VERTEX_POINT('',#891);
#314=VERTEX_POINT('',#893);
#315=VERTEX_POINT('',#945);
#316=VERTEX_POINT('',#948);
#317=VERTEX_POINT('',#951);
#318=LINE('',#811,#342);
#319=LINE('',#814,#343);
#320=LINE('',#816,#344);
#321=LINE('',#818,#345);
#322=LINE('',#820,#346);
#323=LINE('',#823,#347);
#324=LINE('',#825,#348);
#325=LINE('',#827,#349);
#326=LINE('',#829,#350);
#327=LINE('',#832,#351);
#328=LINE('',#834,#352);
#329=LINE('',#836,#353);
#330=LINE('',#838,#354);
#331=LINE('',#841,#355);
#332=LINE('',#843,#356);
#333=LINE('',#845,#357);
#334=LINE('',#854,#358);
#335=LINE('',#857,#359);
#336=LINE('',#859,#360);
#337=LINE('',#861,#361);
#338=LINE('',#873,#362);
#339=LINE('',#876,#363);
#340=LINE('',#878,#364);
#341=LINE('',#880,#365);
#342=VECTOR('',#629,1.);
#343=VECTOR('',#630,1.);
#344=VECTOR('',#631,1.);
#345=VECTOR('',#632,1.);
#346=VECTOR('',#635,1.);
#347=VECTOR('',#636,1.);
#348=VECTOR('',#637,1.);
#349=VECTOR('',#638,1.);
#350=VECTOR('',#641,1.);
#351=VECTOR('',#642,1.);
#352=VECTOR('',#643,1.);
#353=VECTOR('',#644,1.);
#354=VECTOR('',#647,1.);
#355=VECTOR('',#648,1.);
#356=VECTOR('',#649,1.);
#357=VECTOR('',#650,1.);
#358=VECTOR('',#661,1.);
#359=VECTOR('',#662,1.);
#360=VECTOR('',#663,1.);
#361=VECTOR('',#664,1.);
#362=VECTOR('',#677,1.);
#363=VECTOR('',#678,1.);
#364=VECTOR('',#679,1.);
#365=VECTOR('',#680,1.);
#366=EDGE_LOOP('',(#82,#83,#84,#85));
#367=EDGE_LOOP('',(#86,#87,#88,#89));
#368=EDGE_LOOP('',(#90,#91,#92,#93));
#369=EDGE_LOOP('',(#94,#95,#96,#97));
#370=EDGE_LOOP('',(#98));
#371=EDGE_LOOP('',(#99));
#372=EDGE_LOOP('',(#100));
#373=EDGE_LOOP('',(#101,#102,#103,#104));
#374=EDGE_LOOP('',(#105));
#375=EDGE_LOOP('',(#106));
#376=EDGE_LOOP('',(#107));
#377=EDGE_LOOP('',(#108));
#378=EDGE_LOOP('',(#109));
#379=EDGE_LOOP('',(#110,#111,#112,#113));
#380=EDGE_LOOP('',(#114));
#381=EDGE_LOOP('',(#115));
#382=EDGE_LOOP('',(#116));
#383=EDGE_LOOP('',(#117));
#384=EDGE_LOOP('',(#118));
#385=EDGE_LOOP('',(#119));
#386=EDGE_LOOP('',(#120));
#387=EDGE_LOOP('',(#121));
#388=EDGE_LOOP('',(#122));
#389=EDGE_LOOP('',(#123));
#390=EDGE_LOOP('',(#124));
#391=EDGE_LOOP('',(#125));
#392=EDGE_LOOP('',(#126));
#393=EDGE_LOOP('',(#127));
#394=EDGE_LOOP('',(#128));
#395=EDGE_LOOP('',(#129));
#396=EDGE_LOOP('',(#130,#131,#132,#133));
#397=EDGE_LOOP('',(#134,#135,#136));
#398=EDGE_LOOP('',(#137,#138,#139));
#399=EDGE_LOOP('',(#140,#141,#142,#143));
#400=EDGE_LOOP('',(#144,#145,#146,#147));
#401=EDGE_LOOP('',(#148,#149,#150,#151));
#402=EDGE_LOOP('',(#152,#153,#154,#155));
#403=EDGE_LOOP('',(#156,#157,#158,#159));
#404=EDGE_LOOP('',(#160,#161,#162,#163));
#405=EDGE_LOOP('',(#164,#165,#166));
#406=EDGE_LOOP('',(#167,#168,#169));
#407=EDGE_LOOP('',(#170,#171,#172));
#408=EDGE_LOOP('',(#173,#174,#175));
#409=EDGE_LOOP('',(#176,#177,#178,#179));
#410=EDGE_LOOP('',(#180,#181,#182,#183));
#411=EDGE_LOOP('',(#184,#185,#186,#187));
#412=EDGE_LOOP('',(#188,#189,#190,#191));
#413=EDGE_LOOP('',(#192,#193,#194));
#414=EDGE_LOOP('',(#195,#196,#197));
#415=EDGE_LOOP('',(#198,#199,#200,#201));
#416=EDGE_LOOP('',(#202));
#417=EDGE_LOOP('',(#203));
#418=EDGE_LOOP('',(#204));
#419=EDGE_LOOP('',(#205));
#420=EDGE_LOOP('',(#206));
#421=EDGE_LOOP('',(#207));
#422=EDGE_LOOP('',(#208));
#423=EDGE_LOOP('',(#209));
#424=EDGE_LOOP('',(#210));
#425=EDGE_LOOP('',(#211));
#426=FACE_BOUND('',#366,.T.);
#427=FACE_BOUND('',#367,.T.);
#428=FACE_BOUND('',#368,.T.);
#429=FACE_BOUND('',#369,.T.);
#430=FACE_BOUND('',#370,.T.);
#431=FACE_BOUND('',#371,.T.);
#432=FACE_BOUND('',#372,.T.);
#433=FACE_BOUND('',#373,.T.);
#434=FACE_BOUND('',#374,.T.);
#435=FACE_BOUND('',#375,.T.);
#436=FACE_BOUND('',#376,.T.);
#437=FACE_BOUND('',#377,.T.);
#438=FACE_BOUND('',#378,.T.);
#439=FACE_BOUND('',#379,.T.);
#440=FACE_BOUND('',#380,.T.);
#441=FACE_BOUND('',#381,.T.);
#442=FACE_BOUND('',#382,.T.);
#443=FACE_BOUND('',#383,.T.);
#444=FACE_BOUND('',#384,.T.);
#445=FACE_BOUND('',#385,.T.);
#446=FACE_BOUND('',#386,.T.);
#447=FACE_BOUND('',#387,.T.);
#448=FACE_BOUND('',#388,.T.);
#449=FACE_BOUND('',#389,.T.);
#450=FACE_BOUND('',#390,.T.);
#451=FACE_BOUND('',#391,.T.);
#452=FACE_BOUND('',#392,.T.);
#453=FACE_BOUND('',#393,.T.);
#454=FACE_BOUND('',#394,.T.);
#455=FACE_BOUND('',#395,.T.);
#456=FACE_BOUND('',#396,.T.);
#457=FACE_BOUND('',#397,.T.);
#458=FACE_BOUND('',#398,.T.);
#459=FACE_BOUND('',#399,.T.);
#460=FACE_BOUND('',#400,.T.);
#461=FACE_BOUND('',#401,.T.);
#462=FACE_BOUND('',#402,.T.);
#463=FACE_BOUND('',#403,.T.);
#464=FACE_BOUND('',#404,.T.);
#465=FACE_BOUND('',#405,.T.);
#466=FACE_BOUND('',#406,.T.);
#467=FACE_BOUND('',#407,.T.);
#468=FACE_BOUND('',#408,.T.);
#469=FACE_BOUND('',#409,.T.);
#470=FACE_BOUND('',#410,.T.);
#471=FACE_BOUND('',#411,.T.);
#472=FACE_BOUND('',#412,.T.);
#473=FACE_BOUND('',#413,.T.);
#474=FACE_BOUND('',#414,.T.);
#475=FACE_BOUND('',#415,.T.);
#476=FACE_BOUND('',#416,.T.);
#477=FACE_BOUND('',#417,.T.);
#478=FACE_BOUND('',#418,.T.);
#479=FACE_BOUND('',#419,.T.);
#480=FACE_BOUND('',#420,.T.);
#481=FACE_BOUND('',#421,.T.);
#482=FACE_BOUND('',#422,.T.);
#483=FACE_BOUND('',#423,.T.);
#484=FACE_BOUND('',#424,.T.);
#485=FACE_BOUND('',#425,.T.);
#486=PLANE('',#546);
#487=PLANE('',#547);
#488=PLANE('',#548);
#489=PLANE('',#549);
#490=PLANE('',#553);
#491=PLANE('',#559);
#492=PLANE('',#568);
#493=PLANE('',#617);
#494=PLANE('',#621);
#495=ADVANCED_FACE('',(#426),#486,.T.);
#496=ADVANCED_FACE('',(#427),#487,.F.);
#497=ADVANCED_FACE('',(#428),#488,.F.);
#498=ADVANCED_FACE('',(#429),#489,.T.);
#499=ADVANCED_FACE('',(#430,#431),#62,.F.);
#500=ADVANCED_FACE('',(#432,#433,#434,#435,#436,#437),#490,.T.);
#501=ADVANCED_FACE('',(#438,#439,#440,#441,#442,#443),#491,.F.);
#502=ADVANCED_FACE('',(#444,#445),#63,.F.);
#503=ADVANCED_FACE('',(#446,#447),#492,.T.);
#504=ADVANCED_FACE('',(#448,#449),#64,.F.);
#505=ADVANCED_FACE('',(#450,#451),#65,.F.);
#506=ADVANCED_FACE('',(#452,#453),#66,.F.);
#507=ADVANCED_FACE('',(#454,#455),#67,.F.);
#508=ADVANCED_FACE('',(#456),#68,.T.);
#509=ADVANCED_FACE('',(#457),#13,.T.);
#510=ADVANCED_FACE('',(#458),#14,.T.);
#511=ADVANCED_FACE('',(#459),#69,.T.);
#512=ADVANCED_FACE('',(#460),#70,.T.);
#513=ADVANCED_FACE('',(#461),#71,.T.);
#514=ADVANCED_FACE('',(#462),#72,.T.);
#515=ADVANCED_FACE('',(#463),#73,.T.);
#516=ADVANCED_FACE('',(#464),#74,.T.);
#517=ADVANCED_FACE('',(#465),#15,.T.);
#518=ADVANCED_FACE('',(#466),#16,.T.);
#519=ADVANCED_FACE('',(#467),#17,.T.);
#520=ADVANCED_FACE('',(#468),#18,.T.);
#521=ADVANCED_FACE('',(#469),#75,.T.);
#522=ADVANCED_FACE('',(#470),#76,.T.);
#523=ADVANCED_FACE('',(#471),#77,.T.);
#524=ADVANCED_FACE('',(#472),#78,.T.);
#525=ADVANCED_FACE('',(#473),#19,.T.);
#526=ADVANCED_FACE('',(#474),#20,.T.);
#527=ADVANCED_FACE('',(#475),#79,.T.);
#528=ADVANCED_FACE('',(#476,#477),#493,.T.);
#529=ADVANCED_FACE('',(#478,#479),#80,.T.);
#530=ADVANCED_FACE('',(#480,#481),#494,.F.);
#531=ADVANCED_FACE('',(#482,#483),#81,.F.);
#532=ADVANCED_FACE('',(#484,#485),#12,.T.);
#533=CLOSED_SHELL('',(#495,#496,#497,#498,#499,#500,#501,#502,#503,#504,
#505,#506,#507,#508,#509,#510,#511,#512,#513,#514,#515,#516,#517,#518,#519,
#520,#521,#522,#523,#524,#525,#526,#527,#528,#529,#530,#531,#532));
#534=STYLED_ITEM('',(#535),#542);
#535=PRESENTATION_STYLE_ASSIGNMENT((#536));
#536=SURFACE_STYLE_USAGE(.BOTH.,#537);
#537=SURFACE_SIDE_STYLE('',(#538));
#538=SURFACE_STYLE_FILL_AREA(#539);
#539=FILL_AREA_STYLE('',(#540));
#540=FILL_AREA_STYLE_COLOUR('',#541);
#541=COLOUR_RGB('',0.615686274509804,0.811764705882353,0.929411764705882);
#542=MANIFOLD_SOLID_BREP('Part 1',#533);
#543=SHAPE_DEFINITION_REPRESENTATION(#960,#544);
#544=SHAPE_REPRESENTATION('Part 1',(#545),#955);
#545=AXIS2_PLACEMENT_3D('',#809,#625,#626);
#546=AXIS2_PLACEMENT_3D('',#810,#627,#628);
#547=AXIS2_PLACEMENT_3D('',#819,#633,#634);
#548=AXIS2_PLACEMENT_3D('',#828,#639,#640);
#549=AXIS2_PLACEMENT_3D('',#837,#645,#646);
#550=AXIS2_PLACEMENT_3D('',#846,#651,#652);
#551=AXIS2_PLACEMENT_3D('',#847,#653,#654);
#552=AXIS2_PLACEMENT_3D('',#849,#655,#656);
#553=AXIS2_PLACEMENT_3D('',#851,#657,#658);
#554=AXIS2_PLACEMENT_3D('',#852,#659,#660);
#555=AXIS2_PLACEMENT_3D('',#862,#665,#666);
#556=AXIS2_PLACEMENT_3D('',#864,#667,#668);
#557=AXIS2_PLACEMENT_3D('',#866,#669,#670);
#558=AXIS2_PLACEMENT_3D('',#868,#671,#672);
#559=AXIS2_PLACEMENT_3D('',#870,#673,#674);
#560=AXIS2_PLACEMENT_3D('',#871,#675,#676);
#561=AXIS2_PLACEMENT_3D('',#881,#681,#682);
#562=AXIS2_PLACEMENT_3D('',#883,#683,#684);
#563=AXIS2_PLACEMENT_3D('',#885,#685,#686);
#564=AXIS2_PLACEMENT_3D('',#887,#687,#688);
#565=AXIS2_PLACEMENT_3D('',#889,#689,#690);
#566=AXIS2_PLACEMENT_3D('',#890,#691,#692);
#567=AXIS2_PLACEMENT_3D('',#892,#693,#694);
#568=AXIS2_PLACEMENT_3D('',#894,#695,#696);
#569=AXIS2_PLACEMENT_3D('',#895,#697,#698);
#570=AXIS2_PLACEMENT_3D('',#896,#699,#700);
#571=AXIS2_PLACEMENT_3D('',#897,#701,#702);
#572=AXIS2_PLACEMENT_3D('',#898,#703,#704);
#573=AXIS2_PLACEMENT_3D('',#899,#705,#706);
#574=AXIS2_PLACEMENT_3D('',#900,#707,#708);
#575=AXIS2_PLACEMENT_3D('',#901,#709,#710);
#576=AXIS2_PLACEMENT_3D('',#902,#711,#712);
#577=AXIS2_PLACEMENT_3D('',#903,#713,#714);
#578=AXIS2_PLACEMENT_3D('',#904,#715,#716);
#579=AXIS2_PLACEMENT_3D('',#905,#717,#718);
#580=AXIS2_PLACEMENT_3D('',#906,#719,#720);
#581=AXIS2_PLACEMENT_3D('',#907,#721,#722);
#582=AXIS2_PLACEMENT_3D('',#908,#723,#724);
#583=AXIS2_PLACEMENT_3D('',#909,#725,#726);
#584=AXIS2_PLACEMENT_3D('',#910,#727,#728);
#585=AXIS2_PLACEMENT_3D('',#911,#729,#730);
#586=AXIS2_PLACEMENT_3D('',#912,#731,#732);
#587=AXIS2_PLACEMENT_3D('',#913,#733,#734);
#588=AXIS2_PLACEMENT_3D('',#914,#735,#736);
#589=AXIS2_PLACEMENT_3D('',#915,#737,#738);
#590=AXIS2_PLACEMENT_3D('',#916,#739,#740);
#591=AXIS2_PLACEMENT_3D('',#917,#741,#742);
#592=AXIS2_PLACEMENT_3D('',#918,#743,#744);
#593=AXIS2_PLACEMENT_3D('',#919,#745,#746);
#594=AXIS2_PLACEMENT_3D('',#920,#747,#748);
#595=AXIS2_PLACEMENT_3D('',#921,#749,#750);
#596=AXIS2_PLACEMENT_3D('',#922,#751,#752);
#597=AXIS2_PLACEMENT_3D('',#923,#753,#754);
#598=AXIS2_PLACEMENT_3D('',#924,#755,#756);
#599=AXIS2_PLACEMENT_3D('',#925,#757,#758);
#600=AXIS2_PLACEMENT_3D('',#926,#759,#760);
#601=AXIS2_PLACEMENT_3D('',#927,#761,#762);
#602=AXIS2_PLACEMENT_3D('',#928,#763,#764);
#603=AXIS2_PLACEMENT_3D('',#929,#765,#766);
#604=AXIS2_PLACEMENT_3D('',#930,#767,#768);
#605=AXIS2_PLACEMENT_3D('',#931,#769,#770);
#606=AXIS2_PLACEMENT_3D('',#932,#771,#772);
#607=AXIS2_PLACEMENT_3D('',#933,#773,#774);
#608=AXIS2_PLACEMENT_3D('',#934,#775,#776);
#609=AXIS2_PLACEMENT_3D('',#935,#777,#778);
#610=AXIS2_PLACEMENT_3D('',#936,#779,#780);
#611=AXIS2_PLACEMENT_3D('',#937,#781,#782);
#612=AXIS2_PLACEMENT_3D('',#938,#783,#784);
#613=AXIS2_PLACEMENT_3D('',#939,#785,#786);
#614=AXIS2_PLACEMENT_3D('',#940,#787,#788);
#615=AXIS2_PLACEMENT_3D('',#941,#789,#790);
#616=AXIS2_PLACEMENT_3D('',#942,#791,#792);
#617=AXIS2_PLACEMENT_3D('',#943,#793,#794);
#618=AXIS2_PLACEMENT_3D('',#944,#795,#796);
#619=AXIS2_PLACEMENT_3D('',#946,#797,#798);
#620=AXIS2_PLACEMENT_3D('',#947,#799,#800);
#621=AXIS2_PLACEMENT_3D('',#949,#801,#802);
#622=AXIS2_PLACEMENT_3D('',#950,#803,#804);
#623=AXIS2_PLACEMENT_3D('',#952,#805,#806);
#624=AXIS2_PLACEMENT_3D('',#953,#807,#808);
#625=DIRECTION('',(0.,0.,1.));
#626=DIRECTION('',(1.,0.,0.));
#627=DIRECTION('',(1.,-6.93889390390723E-17,0.));
#628=DIRECTION('',(-6.93889390390723E-17,-1.,0.));
#629=DIRECTION('',(-6.93889390390723E-17,-1.,0.));
#630=DIRECTION('',(0.,0.,-1.));
#631=DIRECTION('',(-6.93889390390723E-17,-1.,0.));
#632=DIRECTION('',(0.,0.,-1.));
#633=DIRECTION('',(0.,-1.,0.));
#634=DIRECTION('',(-1.,0.,0.));
#635=DIRECTION('',(-1.,0.,0.));
#636=DIRECTION('',(0.,0.,-1.));
#637=DIRECTION('',(-1.,0.,0.));
#638=DIRECTION('',(0.,0.,-1.));
#639=DIRECTION('',(1.,-6.93889390390723E-17,0.));
#640=DIRECTION('',(-6.93889390390723E-17,-1.,0.));
#641=DIRECTION('',(0.,0.,-1.));
#642=DIRECTION('',(-6.93889390390723E-17,-1.,0.));
#643=DIRECTION('',(0.,0.,-1.));
#644=DIRECTION('',(-6.93889390390723E-17,-1.,0.));
#645=DIRECTION('',(0.,-1.,0.));
#646=DIRECTION('',(-1.,0.,0.));
#647=DIRECTION('',(-1.,0.,0.));
#648=DIRECTION('',(0.,0.,-1.));
#649=DIRECTION('',(-1.,0.,0.));
#650=DIRECTION('',(0.,0.,-1.));
#651=DIRECTION('',(0.,0.,-1.));
#652=DIRECTION('',(0.,1.,0.));
#653=DIRECTION('',(0.,0.,1.));
#654=DIRECTION('',(0.,-1.,0.));
#655=DIRECTION('',(0.,0.,1.));
#656=DIRECTION('',(0.,-1.,0.));
#657=DIRECTION('',(0.,0.,1.));
#658=DIRECTION('',(1.,0.,0.));
#659=DIRECTION('',(0.,0.,1.));
#660=DIRECTION('',(0.,-1.,0.));
#661=DIRECTION('',(-6.93889390390723E-17,-1.,0.));
#662=DIRECTION('',(-1.,0.,0.));
#663=DIRECTION('',(-6.93889390390723E-17,-1.,0.));
#664=DIRECTION('',(-1.,0.,0.));
#665=DIRECTION('',(0.,0.,1.));
#666=DIRECTION('',(0.,-1.,0.));
#667=DIRECTION('',(0.,0.,1.));
#668=DIRECTION('',(0.,-1.,0.));
#669=DIRECTION('',(0.,0.,1.));
#670=DIRECTION('',(0.,-1.,0.));
#671=DIRECTION('',(0.,0.,1.));
#672=DIRECTION('',(0.,-1.,0.));
#673=DIRECTION('',(0.,0.,1.));
#674=DIRECTION('',(1.,0.,0.));
#675=DIRECTION('',(0.,0.,1.));
#676=DIRECTION('',(0.,-1.,0.));
#677=DIRECTION('',(-6.93889390390723E-17,-1.,0.));
#678=DIRECTION('',(-1.,0.,0.));
#679=DIRECTION('',(-6.93889390390723E-17,-1.,0.));
#680=DIRECTION('',(-1.,0.,0.));
#681=DIRECTION('',(0.,0.,1.));
#682=DIRECTION('',(0.,-1.,0.));
#683=DIRECTION('',(0.,0.,1.));
#684=DIRECTION('',(0.,-1.,0.));
#685=DIRECTION('',(0.,0.,1.));
#686=DIRECTION('',(0.,-1.,0.));
#687=DIRECTION('',(0.,0.,1.));
#688=DIRECTION('',(0.,-1.,0.));
#689=DIRECTION('',(0.,0.,-1.));
#690=DIRECTION('',(0.,1.,0.));
#691=DIRECTION('',(0.,0.,1.));
#692=DIRECTION('',(0.,-1.,0.));
#693=DIRECTION('',(0.,0.,1.));
#694=DIRECTION('',(0.,-1.,0.));
#695=DIRECTION('',(0.,0.,1.));
#696=DIRECTION('',(1.,0.,0.));
#697=DIRECTION('',(0.,0.,1.));
#698=DIRECTION('',(0.,-1.,0.));
#699=DIRECTION('',(0.,0.,1.));
#700=DIRECTION('',(0.,-1.,0.));
#701=DIRECTION('',(0.,0.,1.));
#702=DIRECTION('',(0.,-1.,0.));
#703=DIRECTION('',(0.,0.,1.));
#704=DIRECTION('',(0.,-1.,0.));
#705=DIRECTION('',(-1.,0.,0.));
#706=DIRECTION('',(0.,1.,0.));
#707=DIRECTION('',(1.,0.,0.));
#708=DIRECTION('',(0.,-1.,0.));
#709=DIRECTION('',(-1.,0.,0.));
#710=DIRECTION('',(0.,1.,0.));
#711=DIRECTION('',(0.,1.,0.));
#712=DIRECTION('',(1.,0.,0.));
#713=DIRECTION('',(0.,1.,0.));
#714=DIRECTION('',(1.,0.,0.));
#715=DIRECTION('',(0.,0.,-1.));
#716=DIRECTION('',(0.,1.,0.));
#717=DIRECTION('',(0.,0.,-1.));
#718=DIRECTION('',(0.,1.,0.));
#719=DIRECTION('',(0.,0.,-1.));
#720=DIRECTION('',(0.,1.,0.));
#721=DIRECTION('',(0.,1.,0.));
#722=DIRECTION('',(1.,0.,0.));
#723=DIRECTION('',(0.,0.,1.));
#724=DIRECTION('',(0.,-1.,0.));
#725=DIRECTION('',(0.,0.,1.));
#726=DIRECTION('',(0.,-1.,0.));
#727=DIRECTION('',(6.93889390390723E-17,1.,0.));
#728=DIRECTION('',(1.,-6.93889390390723E-17,0.));
#729=DIRECTION('',(0.,-1.,0.));
#730=DIRECTION('',(-1.,0.,0.));
#731=DIRECTION('',(1.,0.,0.));
#732=DIRECTION('',(0.,-1.,0.));
#733=DIRECTION('',(-1.,0.,0.));
#734=DIRECTION('',(0.,1.,0.));
#735=DIRECTION('',(1.,0.,0.));
#736=DIRECTION('',(0.,-1.,0.));
#737=DIRECTION('',(-6.93889390390723E-17,-1.,0.));
#738=DIRECTION('',(-1.,6.93889390390723E-17,0.));
#739=DIRECTION('',(0.,-1.,0.));
#740=DIRECTION('',(-1.,0.,0.));
#741=DIRECTION('',(0.,0.,-1.));
#742=DIRECTION('',(0.,1.,0.));
#743=DIRECTION('',(0.,0.,1.));
#744=DIRECTION('',(0.,-1.,0.));
#745=DIRECTION('',(1.,0.,0.));
#746=DIRECTION('',(0.,-1.,0.));
#747=DIRECTION('',(1.,0.,0.));
#748=DIRECTION('',(0.,-1.,0.));
#749=DIRECTION('',(-1.,0.,0.));
#750=DIRECTION('',(0.,1.,0.));
#751=DIRECTION('',(0.,1.,0.));
#752=DIRECTION('',(1.,0.,0.));
#753=DIRECTION('',(0.,1.,0.));
#754=DIRECTION('',(1.,0.,0.));
#755=DIRECTION('',(0.,0.,-1.));
#756=DIRECTION('',(0.,1.,0.));
#757=DIRECTION('',(0.,0.,-1.));
#758=DIRECTION('',(0.,1.,0.));
#759=DIRECTION('',(0.,0.,-1.));
#760=DIRECTION('',(0.,1.,0.));
#761=DIRECTION('',(0.,0.,-1.));
#762=DIRECTION('',(0.,1.,0.));
#763=DIRECTION('',(0.,1.,0.));
#764=DIRECTION('',(1.,0.,0.));
#765=DIRECTION('',(0.,1.,0.));
#766=DIRECTION('',(1.,0.,0.));
#767=DIRECTION('',(-6.93889390390723E-17,-1.,0.));
#768=DIRECTION('',(-1.,6.93889390390723E-17,0.));
#769=DIRECTION('',(0.,-1.,0.));
#770=DIRECTION('',(-1.,0.,0.));
#771=DIRECTION('',(0.,0.,-1.));
#772=DIRECTION('',(0.,1.,0.));
#773=DIRECTION('',(0.,0.,1.));
#774=DIRECTION('',(0.,-1.,0.));
#775=DIRECTION('',(0.,0.,1.));
#776=DIRECTION('',(0.,-1.,0.));
#777=DIRECTION('',(0.,0.,1.));
#778=DIRECTION('',(0.,-1.,0.));
#779=DIRECTION('',(6.93889390390723E-17,1.,0.));
#780=DIRECTION('',(1.,-6.93889390390723E-17,0.));
#781=DIRECTION('',(0.,-1.,0.));
#782=DIRECTION('',(-1.,0.,0.));
#783=DIRECTION('',(1.,0.,0.));
#784=DIRECTION('',(0.,-1.,0.));
#785=DIRECTION('',(1.,0.,0.));
#786=DIRECTION('',(0.,-1.,0.));
#787=DIRECTION('',(-1.,0.,0.));
#788=DIRECTION('',(0.,1.,0.));
#789=DIRECTION('',(-1.,0.,0.));
#790=DIRECTION('',(0.,1.,0.));
#791=DIRECTION('',(-1.,0.,0.));
#792=DIRECTION('',(0.,1.,0.));
#793=DIRECTION('',(0.,0.,1.));
#794=DIRECTION('',(1.,0.,0.));
#795=DIRECTION('',(0.,0.,-1.));
#796=DIRECTION('',(0.,1.,0.));
#797=DIRECTION('',(0.,0.,1.));
#798=DIRECTION('',(0.,-1.,0.));
#799=DIRECTION('',(0.,0.,1.));
#800=DIRECTION('',(0.,-1.,0.));
#801=DIRECTION('',(0.,0.,1.));
#802=DIRECTION('',(1.,0.,0.));
#803=DIRECTION('',(0.,0.,1.));
#804=DIRECTION('',(0.,-1.,0.));
#805=DIRECTION('',(0.,0.,-1.));
#806=DIRECTION('',(0.,1.,0.));
#807=DIRECTION('',(0.,0.,1.));
#808=DIRECTION('',(0.,-1.,0.));
#809=CARTESIAN_POINT('',(0.,0.,0.));
#810=CARTESIAN_POINT('',(0.015,0.,0.008));
#811=CARTESIAN_POINT('',(0.015,0.,0.006));
#812=CARTESIAN_POINT('',(0.015,0.023,0.006));
#813=CARTESIAN_POINT('',(0.015,-0.023,0.006));
#814=CARTESIAN_POINT('',(0.015,-0.023,0.008));
#815=CARTESIAN_POINT('',(0.015,-0.023,0.002));
#816=CARTESIAN_POINT('',(0.015,0.025,0.002));
#817=CARTESIAN_POINT('',(0.015,0.023,0.002));
#818=CARTESIAN_POINT('',(0.015,0.023,0.008));
#819=CARTESIAN_POINT('',(1.7347234759768E-18,0.025,0.008));
#820=CARTESIAN_POINT('',(1.7347234759768E-18,0.025,0.002));
#821=CARTESIAN_POINT('',(0.013,0.025,0.002));
#822=CARTESIAN_POINT('',(-0.013,0.025,0.002));
#823=CARTESIAN_POINT('',(-0.013,0.025,0.008));
#824=CARTESIAN_POINT('',(-0.013,0.025,0.006));
#825=CARTESIAN_POINT('',(0.015,0.025,0.006));
#826=CARTESIAN_POINT('',(0.013,0.025,0.006));
#827=CARTESIAN_POINT('',(0.013,0.025,0.));
#828=CARTESIAN_POINT('',(-0.015,0.,0.008));
#829=CARTESIAN_POINT('',(-0.015,0.023,0.008));
#830=CARTESIAN_POINT('',(-0.015,0.023,0.006));
#831=CARTESIAN_POINT('',(-0.015,0.023,0.002));
#832=CARTESIAN_POINT('',(-0.015,0.,0.002));
#833=CARTESIAN_POINT('',(-0.015,-0.023,0.002));
#834=CARTESIAN_POINT('',(-0.015,-0.023,0.008));
#835=CARTESIAN_POINT('',(-0.015,-0.023,0.006));
#836=CARTESIAN_POINT('',(-0.015,0.025,0.006));
#837=CARTESIAN_POINT('',(-1.7347234759768E-18,-0.025,0.008));
#838=CARTESIAN_POINT('',(0.015,-0.025,0.002));
#839=CARTESIAN_POINT('',(-0.013,-0.025,0.002));
#840=CARTESIAN_POINT('',(0.013,-0.025,0.002));
#841=CARTESIAN_POINT('',(0.013,-0.025,0.008));
#842=CARTESIAN_POINT('',(0.013,-0.025,0.006));
#843=CARTESIAN_POINT('',(-1.7347234759768E-18,-0.025,0.006));
#844=CARTESIAN_POINT('',(-0.013,-0.025,0.006));
#845=CARTESIAN_POINT('',(-0.013,-0.025,0.));
#846=CARTESIAN_POINT('',(0.,5.05166804648283E-19,0.008));
#847=CARTESIAN_POINT('',(0.,5.05166804648283E-19,0.0075));
#848=CARTESIAN_POINT('',(0.,-0.00825,0.0075));
#849=CARTESIAN_POINT('',(0.,5.05166804648283E-19,0.002));
#850=CARTESIAN_POINT('',(0.,-0.00825,0.002));
#851=CARTESIAN_POINT('',(0.,0.,0.008));
#852=CARTESIAN_POINT('',(0.,5.05166804648283E-19,0.008));
#853=CARTESIAN_POINT('',(0.,-0.00875,0.008));
#854=CARTESIAN_POINT('',(-0.013,-0.025,0.008));
#855=CARTESIAN_POINT('',(-0.013,0.023,0.008));
#856=CARTESIAN_POINT('',(-0.013,-0.023,0.008));
#857=CARTESIAN_POINT('',(0.,-0.023,0.008));
#858=CARTESIAN_POINT('',(0.013,-0.023,0.008));
#859=CARTESIAN_POINT('',(0.013,-9.0205620750794E-19,0.008));
#860=CARTESIAN_POINT('',(0.013,0.023,0.008));
#861=CARTESIAN_POINT('',(-0.015,0.023,0.008));
#862=CARTESIAN_POINT('',(0.009,-0.019,0.008));
#863=CARTESIAN_POINT('',(0.009,-0.0207,0.008));
#864=CARTESIAN_POINT('',(-0.009,-0.019,0.008));
#865=CARTESIAN_POINT('',(-0.009,-0.0207,0.008));
#866=CARTESIAN_POINT('',(-0.009,0.019,0.008));
#867=CARTESIAN_POINT('',(-0.009,0.0173,0.008));
#868=CARTESIAN_POINT('',(0.009,0.019,0.008));
#869=CARTESIAN_POINT('',(0.009,0.0173,0.008));
#870=CARTESIAN_POINT('',(0.,0.,0.));
#871=CARTESIAN_POINT('',(0.,2.90853614797496E-19,0.));
#872=CARTESIAN_POINT('',(0.,-0.00475,0.));
#873=CARTESIAN_POINT('',(0.013,-0.025,0.));
#874=CARTESIAN_POINT('',(0.013,0.023,0.));
#875=CARTESIAN_POINT('',(0.013,-0.023,0.));
#876=CARTESIAN_POINT('',(-0.015,-0.023,0.));
#877=CARTESIAN_POINT('',(-0.013,-0.023,0.));
#878=CARTESIAN_POINT('',(-0.013,9.0205620750794E-19,0.));
#879=CARTESIAN_POINT('',(-0.013,0.023,0.));
#880=CARTESIAN_POINT('',(0.,0.023,0.));
#881=CARTESIAN_POINT('',(0.009,-0.019,0.));
#882=CARTESIAN_POINT('',(0.009,-0.0207,0.));
#883=CARTESIAN_POINT('',(-0.009,-0.019,0.));
#884=CARTESIAN_POINT('',(-0.009,-0.0207,0.));
#885=CARTESIAN_POINT('',(-0.009,0.019,0.));
#886=CARTESIAN_POINT('',(-0.009,0.0173,0.));
#887=CARTESIAN_POINT('',(0.009,0.019,0.));
#888=CARTESIAN_POINT('',(0.009,0.0173,0.));
#889=CARTESIAN_POINT('',(0.,2.14313189850787E-19,0.002));
#890=CARTESIAN_POINT('',(0.,2.14313189850787E-19,0.002));
#891=CARTESIAN_POINT('',(0.,-0.0035,0.002));
#892=CARTESIAN_POINT('',(0.,2.14313189850787E-19,0.));
#893=CARTESIAN_POINT('',(0.,-0.0035,0.));
#894=CARTESIAN_POINT('',(0.,0.,0.002));
#895=CARTESIAN_POINT('',(0.009,0.019,0.));
#896=CARTESIAN_POINT('',(-0.009,0.019,0.));
#897=CARTESIAN_POINT('',(-0.009,-0.019,0.));
#898=CARTESIAN_POINT('',(0.009,-0.019,0.));
#899=CARTESIAN_POINT('',(1.7347234759768E-18,0.023,0.002));
#900=CARTESIAN_POINT('',(0.013,0.023,0.002));
#901=CARTESIAN_POINT('',(-0.013,0.023,0.002));
#902=CARTESIAN_POINT('',(0.013,0.023,0.002));
#903=CARTESIAN_POINT('',(0.013,0.023,0.002));
#904=CARTESIAN_POINT('',(0.013,0.023,0.002));
#905=CARTESIAN_POINT('',(-0.013,0.023,0.002));
#906=CARTESIAN_POINT('',(-0.013,0.023,0.002));
#907=CARTESIAN_POINT('',(-0.013,0.023,0.002));
#908=CARTESIAN_POINT('',(0.013,0.023,0.008));
#909=CARTESIAN_POINT('',(0.013,0.023,0.006));
#910=CARTESIAN_POINT('',(0.013,-9.0205620750794E-19,0.002));
#911=CARTESIAN_POINT('',(0.013,-0.023,0.002));
#912=CARTESIAN_POINT('',(0.,-0.023,0.002));
#913=CARTESIAN_POINT('',(-0.013,-0.023,0.002));
#914=CARTESIAN_POINT('',(0.013,-0.023,0.002));
#915=CARTESIAN_POINT('',(-0.013,-1.38777878078145E-19,0.002));
#916=CARTESIAN_POINT('',(-0.013,-0.023,0.002));
#917=CARTESIAN_POINT('',(-0.013,0.023,0.008));
#918=CARTESIAN_POINT('',(-0.013,0.023,0.006));
#919=CARTESIAN_POINT('',(0.,0.023,0.006));
#920=CARTESIAN_POINT('',(0.013,0.023,0.006));
#921=CARTESIAN_POINT('',(-0.013,0.023,0.006));
#922=CARTESIAN_POINT('',(0.013,0.023,0.006));
#923=CARTESIAN_POINT('',(0.013,0.023,0.006));
#924=CARTESIAN_POINT('',(0.013,-0.023,0.002));
#925=CARTESIAN_POINT('',(0.013,-0.023,0.002));
#926=CARTESIAN_POINT('',(-0.013,-0.023,0.002));
#927=CARTESIAN_POINT('',(-0.013,-0.023,0.002));
#928=CARTESIAN_POINT('',(-0.013,0.023,0.006));
#929=CARTESIAN_POINT('',(-0.013,0.023,0.006));
#930=CARTESIAN_POINT('',(0.013,1.38777878078145E-19,0.006));
#931=CARTESIAN_POINT('',(0.013,-0.023,0.006));
#932=CARTESIAN_POINT('',(0.013,-0.023,0.008));
#933=CARTESIAN_POINT('',(0.013,-0.023,0.006));
#934=CARTESIAN_POINT('',(-0.013,-0.023,0.008));
#935=CARTESIAN_POINT('',(-0.013,-0.023,0.006));
#936=CARTESIAN_POINT('',(-0.013,9.0205620750794E-19,0.006));
#937=CARTESIAN_POINT('',(-0.013,-0.023,0.006));
#938=CARTESIAN_POINT('',(0.013,-0.023,0.006));
#939=CARTESIAN_POINT('',(0.013,-0.023,0.006));
#940=CARTESIAN_POINT('',(-0.013,-0.023,0.006));
#941=CARTESIAN_POINT('',(-0.013,-0.023,0.006));
#942=CARTESIAN_POINT('',(-1.7347234759768E-18,-0.023,0.006));
#943=CARTESIAN_POINT('',(0.,0.,0.));
#944=CARTESIAN_POINT('',(0.,0.,0.));
#945=CARTESIAN_POINT('',(0.,0.0033,0.));
#946=CARTESIAN_POINT('',(0.,2.90853614797496E-19,-0.003));
#947=CARTESIAN_POINT('',(0.,2.90853614797496E-19,-0.003));
#948=CARTESIAN_POINT('',(0.,-0.00475,-0.003));
#949=CARTESIAN_POINT('',(0.,0.,-0.003));
#950=CARTESIAN_POINT('',(0.,0.,-0.003));
#951=CARTESIAN_POINT('',(0.,-0.0033,-0.003));
#952=CARTESIAN_POINT('',(0.,0.,0.));
#953=CARTESIAN_POINT('',(0.,5.05166804648283E-19,0.0075));
#954=MECHANICAL_DESIGN_GEOMETRIC_PRESENTATION_REPRESENTATION('',(#534),
#955);
#955=(
GEOMETRIC_REPRESENTATION_CONTEXT(3)
GLOBAL_UNCERTAINTY_ASSIGNED_CONTEXT((#956))
GLOBAL_UNIT_ASSIGNED_CONTEXT((#959,#958,#957))
REPRESENTATION_CONTEXT('Part 1','TOP_LEVEL_ASSEMBLY_PART')
);
#956=UNCERTAINTY_MEASURE_WITH_UNIT(LENGTH_MEASURE(1.E-8),#959,
'DISTANCE_ACCURACY_VALUE','Maximum Tolerance applied to model');
#957=(
NAMED_UNIT(*)
SI_UNIT($,.STERADIAN.)
SOLID_ANGLE_UNIT()
);
#958=(
NAMED_UNIT(*)
PLANE_ANGLE_UNIT()
SI_UNIT($,.RADIAN.)
);
#959=(
LENGTH_UNIT()
NAMED_UNIT(*)
SI_UNIT($,.METRE.)
);
#960=PRODUCT_DEFINITION_SHAPE('','',#961);
#961=PRODUCT_DEFINITION('','',#963,#962);
#962=PRODUCT_DEFINITION_CONTEXT('',#969,'design');
#963=PRODUCT_DEFINITION_FORMATION_WITH_SPECIFIED_SOURCE('','',#965,
 .NOT_KNOWN.);
#964=PRODUCT_RELATED_PRODUCT_CATEGORY('','',(#965));
#965=PRODUCT('Part 1','Part 1','Part 1',(#967));
#966=PRODUCT_CATEGORY('','');
#967=PRODUCT_CONTEXT('',#969,'mechanical');
#968=APPLICATION_PROTOCOL_DEFINITION('international standard',
'ap242_managed_model_based_3d_engineering',2020,#969);
#969=APPLICATION_CONTEXT('managed model based 3d engineering');
ENDSEC;
END-ISO-10303-21;
