ISO-10303-21;
HEADER;
/* Generated by software containing ST-Developer
 * from STEP Tools, Inc. (www.steptools.com) 
 */
/* OPTION: using custom renumber hook */

FILE_DESCRIPTION(
/* description */ ('STEP AP242 Edition 2',
'CAx-IF Rec.Pracs.---Representation and Presentation of Product Manufa
cturing Information (PMI)---4.0---2014-10-13',
'CAx-IF Rec.Pracs.---3D Tessellated Geometry---0.4---2014-09-14','2;1',
'CAx-IF Rec.Pracs.---User Defined Attributes---1.5---2016-08-15'),
/* implementation_level */ '2;1');

FILE_NAME(
/* name */ '696a6259561c4703c7cf7fea',
/* time_stamp */ '2026-01-16T16:07:54Z',
/* author */ (''),
/* organization */ (''),
/* preprocessor_version */ 'ST-DEVELOPER v20',
/* originating_system */ 'ONSHAPE BY PTC INC, 1.209',
/* authorisation */ '  ');

FILE_SCHEMA (('AP242_MANAGED_MODEL_BASED_3D_ENGINEERING_MIM_LF { 1 0 10303 442 3 1 4 }'));
ENDSEC;

DATA;
#10=SHAPE_REPRESENTATION_RELATIONSHIP('','',#850,#11);
#11=ADVANCED_BREP_SHAPE_REPRESENTATION('',(#848),#1465);
#12=TOROIDAL_SURFACE('',#928,0.0025,0.001);
#13=TOROIDAL_SURFACE('',#929,0.0025,0.001);
#14=TOROIDAL_SURFACE('',#930,0.0025,0.001);
#15=TOROIDAL_SURFACE('',#931,0.0025,0.001);
#16=SPHERICAL_SURFACE('',#878,0.001);
#17=SPHERICAL_SURFACE('',#880,0.001);
#18=SPHERICAL_SURFACE('',#882,0.001);
#19=SPHERICAL_SURFACE('',#934,0.001);
#20=SPHERICAL_SURFACE('',#938,0.001);
#21=SPHERICAL_SURFACE('',#942,0.001);
#22=SPHERICAL_SURFACE('',#948,0.001);
#23=SPHERICAL_SURFACE('',#952,0.001);
#24=ELLIPSE('',#859,0.00141421356237309,0.001);
#25=ELLIPSE('',#860,0.00141421356237309,0.001);
#26=ELLIPSE('',#862,0.00141421356237309,0.001);
#27=ELLIPSE('',#865,0.00141421356237309,0.001);
#28=ELLIPSE('',#875,0.00141421356237309,0.001);
#29=ELLIPSE('',#877,0.00141421356237309,0.001);
#30=ELLIPSE('',#911,0.00141421356237309,0.001);
#31=ELLIPSE('',#913,0.00141421356237309,0.001);
#32=ELLIPSE('',#915,0.00141421356237309,0.001);
#33=ELLIPSE('',#917,0.00141421356237309,0.001);
#34=ELLIPSE('',#918,0.00141421356237309,0.001);
#35=ELLIPSE('',#920,0.00141421356237309,0.001);
#36=ELLIPSE('',#945,0.00141421356237309,0.001);
#37=CYLINDRICAL_SURFACE('',#855,0.001);
#38=CYLINDRICAL_SURFACE('',#858,0.001);
#39=CYLINDRICAL_SURFACE('',#861,0.001);
#40=CYLINDRICAL_SURFACE('',#863,0.001);
#41=CYLINDRICAL_SURFACE('',#866,0.001);
#42=CYLINDRICAL_SURFACE('',#872,0.001);
#43=CYLINDRICAL_SURFACE('',#874,0.001);
#44=CYLINDRICAL_SURFACE('',#876,0.001);
#45=CYLINDRICAL_SURFACE('',#884,0.001);
#46=CYLINDRICAL_SURFACE('',#886,0.001);
#47=CYLINDRICAL_SURFACE('',#890,0.001);
#48=CYLINDRICAL_SURFACE('',#893,0.001);
#49=CYLINDRICAL_SURFACE('',#895,0.001);
#50=CYLINDRICAL_SURFACE('',#910,0.001);
#51=CYLINDRICAL_SURFACE('',#912,0.001);
#52=CYLINDRICAL_SURFACE('',#914,0.001);
#53=CYLINDRICAL_SURFACE('',#916,0.001);
#54=CYLINDRICAL_SURFACE('',#919,0.001);
#55=CYLINDRICAL_SURFACE('',#921,0.001);
#56=CYLINDRICAL_SURFACE('',#922,0.0015);
#57=CYLINDRICAL_SURFACE('',#925,0.0015);
#58=CYLINDRICAL_SURFACE('',#932,0.001);
#59=CYLINDRICAL_SURFACE('',#936,0.001);
#60=CYLINDRICAL_SURFACE('',#940,0.001);
#61=CYLINDRICAL_SURFACE('',#944,0.001);
#62=CYLINDRICAL_SURFACE('',#946,0.001);
#63=CYLINDRICAL_SURFACE('',#950,0.001);
#64=CYLINDRICAL_SURFACE('',#954,0.001);
#65=CIRCLE('',#853,0.001);
#66=CIRCLE('',#856,0.001);
#67=CIRCLE('',#857,0.001);
#68=CIRCLE('',#864,0.001);
#69=CIRCLE('',#867,0.001);
#70=CIRCLE('',#868,0.001);
#71=CIRCLE('',#873,0.001);
#72=CIRCLE('',#879,0.001);
#73=CIRCLE('',#881,0.001);
#74=CIRCLE('',#883,0.001);
#75=CIRCLE('',#885,0.001);
#76=CIRCLE('',#887,0.001);
#77=CIRCLE('',#889,0.001);
#78=CIRCLE('',#891,0.001);
#79=CIRCLE('',#894,0.001);
#80=CIRCLE('',#896,0.001);
#81=CIRCLE('',#903,0.0025);
#82=CIRCLE('',#904,0.0025);
#83=CIRCLE('',#907,0.0025);
#84=CIRCLE('',#908,0.0025);
#85=CIRCLE('',#923,0.0015);
#86=CIRCLE('',#924,0.0015);
#87=CIRCLE('',#926,0.0015);
#88=CIRCLE('',#927,0.0015);
#89=CIRCLE('',#933,0.001);
#90=CIRCLE('',#935,0.001);
#91=CIRCLE('',#937,0.001);
#92=CIRCLE('',#939,0.001);
#93=CIRCLE('',#941,0.001);
#94=CIRCLE('',#943,0.001);
#95=CIRCLE('',#947,0.001);
#96=CIRCLE('',#949,0.001);
#97=CIRCLE('',#951,0.001);
#98=CIRCLE('',#953,0.001);
#99=ORIENTED_EDGE('',*,*,#325,.T.);
#100=ORIENTED_EDGE('',*,*,#326,.T.);
#101=ORIENTED_EDGE('',*,*,#327,.T.);
#102=ORIENTED_EDGE('',*,*,#328,.T.);
#103=ORIENTED_EDGE('',*,*,#329,.T.);
#104=ORIENTED_EDGE('',*,*,#330,.T.);
#105=ORIENTED_EDGE('',*,*,#331,.T.);
#106=ORIENTED_EDGE('',*,*,#332,.T.);
#107=ORIENTED_EDGE('',*,*,#333,.T.);
#108=ORIENTED_EDGE('',*,*,#334,.T.);
#109=ORIENTED_EDGE('',*,*,#335,.F.);
#110=ORIENTED_EDGE('',*,*,#336,.F.);
#111=ORIENTED_EDGE('',*,*,#332,.F.);
#112=ORIENTED_EDGE('',*,*,#337,.T.);
#113=ORIENTED_EDGE('',*,*,#338,.F.);
#114=ORIENTED_EDGE('',*,*,#339,.F.);
#115=ORIENTED_EDGE('',*,*,#340,.F.);
#116=ORIENTED_EDGE('',*,*,#341,.F.);
#117=ORIENTED_EDGE('',*,*,#342,.F.);
#118=ORIENTED_EDGE('',*,*,#337,.F.);
#119=ORIENTED_EDGE('',*,*,#343,.F.);
#120=ORIENTED_EDGE('',*,*,#344,.T.);
#121=ORIENTED_EDGE('',*,*,#330,.F.);
#122=ORIENTED_EDGE('',*,*,#345,.F.);
#123=ORIENTED_EDGE('',*,*,#346,.F.);
#124=ORIENTED_EDGE('',*,*,#347,.F.);
#125=ORIENTED_EDGE('',*,*,#329,.F.);
#126=ORIENTED_EDGE('',*,*,#348,.T.);
#127=ORIENTED_EDGE('',*,*,#349,.F.);
#128=ORIENTED_EDGE('',*,*,#350,.F.);
#129=ORIENTED_EDGE('',*,*,#331,.F.);
#130=ORIENTED_EDGE('',*,*,#351,.F.);
#131=ORIENTED_EDGE('',*,*,#342,.T.);
#132=ORIENTED_EDGE('',*,*,#352,.T.);
#133=ORIENTED_EDGE('',*,*,#353,.T.);
#134=ORIENTED_EDGE('',*,*,#354,.F.);
#135=ORIENTED_EDGE('',*,*,#338,.T.);
#136=ORIENTED_EDGE('',*,*,#351,.T.);
#137=ORIENTED_EDGE('',*,*,#355,.F.);
#138=ORIENTED_EDGE('',*,*,#356,.F.);
#139=ORIENTED_EDGE('',*,*,#357,.T.);
#140=ORIENTED_EDGE('',*,*,#354,.T.);
#141=ORIENTED_EDGE('',*,*,#358,.F.);
#142=ORIENTED_EDGE('',*,*,#345,.T.);
#143=ORIENTED_EDGE('',*,*,#333,.F.);
#144=ORIENTED_EDGE('',*,*,#359,.F.);
#145=ORIENTED_EDGE('',*,*,#360,.F.);
#146=ORIENTED_EDGE('',*,*,#341,.T.);
#147=ORIENTED_EDGE('',*,*,#361,.F.);
#148=ORIENTED_EDGE('',*,*,#362,.F.);
#149=ORIENTED_EDGE('',*,*,#352,.F.);
#150=ORIENTED_EDGE('',*,*,#339,.T.);
#151=ORIENTED_EDGE('',*,*,#357,.F.);
#152=ORIENTED_EDGE('',*,*,#363,.F.);
#153=ORIENTED_EDGE('',*,*,#364,.F.);
#154=ORIENTED_EDGE('',*,*,#365,.T.);
#155=ORIENTED_EDGE('',*,*,#347,.T.);
#156=ORIENTED_EDGE('',*,*,#344,.F.);
#157=ORIENTED_EDGE('',*,*,#350,.T.);
#158=ORIENTED_EDGE('',*,*,#366,.T.);
#159=ORIENTED_EDGE('',*,*,#334,.F.);
#160=ORIENTED_EDGE('',*,*,#359,.T.);
#161=ORIENTED_EDGE('',*,*,#336,.T.);
#162=ORIENTED_EDGE('',*,*,#367,.F.);
#163=ORIENTED_EDGE('',*,*,#368,.F.);
#164=ORIENTED_EDGE('',*,*,#369,.T.);
#165=ORIENTED_EDGE('',*,*,#370,.F.);
#166=ORIENTED_EDGE('',*,*,#366,.F.);
#167=ORIENTED_EDGE('',*,*,#371,.F.);
#168=ORIENTED_EDGE('',*,*,#372,.T.);
#169=ORIENTED_EDGE('',*,*,#325,.F.);
#170=ORIENTED_EDGE('',*,*,#365,.F.);
#171=ORIENTED_EDGE('',*,*,#373,.F.);
#172=ORIENTED_EDGE('',*,*,#374,.T.);
#173=ORIENTED_EDGE('',*,*,#368,.T.);
#174=ORIENTED_EDGE('',*,*,#349,.T.);
#175=ORIENTED_EDGE('',*,*,#375,.T.);
#176=ORIENTED_EDGE('',*,*,#376,.F.);
#177=ORIENTED_EDGE('',*,*,#377,.T.);
#178=ORIENTED_EDGE('',*,*,#378,.F.);
#179=ORIENTED_EDGE('',*,*,#363,.T.);
#180=ORIENTED_EDGE('',*,*,#379,.F.);
#181=ORIENTED_EDGE('',*,*,#380,.T.);
#182=ORIENTED_EDGE('',*,*,#376,.T.);
#183=ORIENTED_EDGE('',*,*,#356,.T.);
#184=ORIENTED_EDGE('',*,*,#381,.F.);
#185=ORIENTED_EDGE('',*,*,#382,.T.);
#186=ORIENTED_EDGE('',*,*,#383,.F.);
#187=ORIENTED_EDGE('',*,*,#362,.T.);
#188=ORIENTED_EDGE('',*,*,#384,.F.);
#189=ORIENTED_EDGE('',*,*,#385,.T.);
#190=ORIENTED_EDGE('',*,*,#386,.F.);
#191=ORIENTED_EDGE('',*,*,#367,.T.);
#192=ORIENTED_EDGE('',*,*,#386,.T.);
#193=ORIENTED_EDGE('',*,*,#387,.T.);
#194=ORIENTED_EDGE('',*,*,#381,.T.);
#195=ORIENTED_EDGE('',*,*,#361,.T.);
#196=ORIENTED_EDGE('',*,*,#388,.F.);
#197=ORIENTED_EDGE('',*,*,#360,.T.);
#198=ORIENTED_EDGE('',*,*,#383,.T.);
#199=ORIENTED_EDGE('',*,*,#389,.T.);
#200=ORIENTED_EDGE('',*,*,#379,.T.);
#201=ORIENTED_EDGE('',*,*,#358,.T.);
#202=ORIENTED_EDGE('',*,*,#355,.T.);
#203=ORIENTED_EDGE('',*,*,#353,.F.);
#204=ORIENTED_EDGE('',*,*,#378,.T.);
#205=ORIENTED_EDGE('',*,*,#390,.T.);
#206=ORIENTED_EDGE('',*,*,#371,.T.);
#207=ORIENTED_EDGE('',*,*,#346,.T.);
#208=ORIENTED_EDGE('',*,*,#388,.T.);
#209=ORIENTED_EDGE('',*,*,#343,.T.);
#210=ORIENTED_EDGE('',*,*,#340,.T.);
#211=ORIENTED_EDGE('',*,*,#364,.T.);
#212=ORIENTED_EDGE('',*,*,#370,.T.);
#213=ORIENTED_EDGE('',*,*,#391,.T.);
#214=ORIENTED_EDGE('',*,*,#384,.T.);
#215=ORIENTED_EDGE('',*,*,#335,.T.);
#216=ORIENTED_EDGE('',*,*,#392,.T.);
#217=ORIENTED_EDGE('',*,*,#393,.T.);
#218=ORIENTED_EDGE('',*,*,#394,.T.);
#219=ORIENTED_EDGE('',*,*,#395,.T.);
#220=ORIENTED_EDGE('',*,*,#396,.T.);
#221=ORIENTED_EDGE('',*,*,#397,.T.);
#222=ORIENTED_EDGE('',*,*,#398,.T.);
#223=ORIENTED_EDGE('',*,*,#399,.T.);
#224=ORIENTED_EDGE('',*,*,#400,.T.);
#225=ORIENTED_EDGE('',*,*,#401,.T.);
#226=ORIENTED_EDGE('',*,*,#402,.T.);
#227=ORIENTED_EDGE('',*,*,#403,.T.);
#228=ORIENTED_EDGE('',*,*,#373,.T.);
#229=ORIENTED_EDGE('',*,*,#404,.T.);
#230=ORIENTED_EDGE('',*,*,#405,.T.);
#231=ORIENTED_EDGE('',*,*,#406,.T.);
#232=ORIENTED_EDGE('',*,*,#348,.F.);
#233=ORIENTED_EDGE('',*,*,#407,.T.);
#234=ORIENTED_EDGE('',*,*,#408,.T.);
#235=ORIENTED_EDGE('',*,*,#409,.T.);
#236=ORIENTED_EDGE('',*,*,#410,.T.);
#237=ORIENTED_EDGE('',*,*,#411,.T.);
#238=ORIENTED_EDGE('',*,*,#327,.F.);
#239=ORIENTED_EDGE('',*,*,#412,.T.);
#240=ORIENTED_EDGE('',*,*,#413,.T.);
#241=ORIENTED_EDGE('',*,*,#414,.T.);
#242=ORIENTED_EDGE('',*,*,#408,.F.);
#243=ORIENTED_EDGE('',*,*,#415,.T.);
#244=ORIENTED_EDGE('',*,*,#394,.F.);
#245=ORIENTED_EDGE('',*,*,#416,.T.);
#246=ORIENTED_EDGE('',*,*,#328,.F.);
#247=ORIENTED_EDGE('',*,*,#414,.F.);
#248=ORIENTED_EDGE('',*,*,#417,.F.);
#249=ORIENTED_EDGE('',*,*,#407,.F.);
#250=ORIENTED_EDGE('',*,*,#417,.T.);
#251=ORIENTED_EDGE('',*,*,#413,.F.);
#252=ORIENTED_EDGE('',*,*,#418,.F.);
#253=ORIENTED_EDGE('',*,*,#415,.F.);
#254=ORIENTED_EDGE('',*,*,#418,.T.);
#255=ORIENTED_EDGE('',*,*,#412,.F.);
#256=ORIENTED_EDGE('',*,*,#419,.T.);
#257=ORIENTED_EDGE('',*,*,#395,.F.);
#258=ORIENTED_EDGE('',*,*,#393,.F.);
#259=ORIENTED_EDGE('',*,*,#420,.T.);
#260=ORIENTED_EDGE('',*,*,#406,.F.);
#261=ORIENTED_EDGE('',*,*,#421,.F.);
#262=ORIENTED_EDGE('',*,*,#421,.T.);
#263=ORIENTED_EDGE('',*,*,#405,.F.);
#264=ORIENTED_EDGE('',*,*,#422,.F.);
#265=ORIENTED_EDGE('',*,*,#416,.F.);
#266=ORIENTED_EDGE('',*,*,#422,.T.);
#267=ORIENTED_EDGE('',*,*,#404,.F.);
#268=ORIENTED_EDGE('',*,*,#375,.F.);
#269=ORIENTED_EDGE('',*,*,#409,.F.);
#270=ORIENTED_EDGE('',*,*,#423,.T.);
#271=ORIENTED_EDGE('',*,*,#424,.T.);
#272=ORIENTED_EDGE('',*,*,#425,.T.);
#273=ORIENTED_EDGE('',*,*,#426,.T.);
#274=ORIENTED_EDGE('',*,*,#410,.F.);
#275=ORIENTED_EDGE('',*,*,#423,.F.);
#276=ORIENTED_EDGE('',*,*,#424,.F.);
#277=ORIENTED_EDGE('',*,*,#402,.F.);
#278=ORIENTED_EDGE('',*,*,#411,.F.);
#279=ORIENTED_EDGE('',*,*,#425,.F.);
#280=ORIENTED_EDGE('',*,*,#426,.F.);
#281=ORIENTED_EDGE('',*,*,#403,.F.);
#282=ORIENTED_EDGE('',*,*,#427,.F.);
#283=ORIENTED_EDGE('',*,*,#374,.F.);
#284=ORIENTED_EDGE('',*,*,#420,.F.);
#285=ORIENTED_EDGE('',*,*,#392,.F.);
#286=ORIENTED_EDGE('',*,*,#369,.F.);
#287=ORIENTED_EDGE('',*,*,#427,.T.);
#288=ORIENTED_EDGE('',*,*,#428,.F.);
#289=ORIENTED_EDGE('',*,*,#429,.F.);
#290=ORIENTED_EDGE('',*,*,#391,.F.);
#291=ORIENTED_EDGE('',*,*,#428,.T.);
#292=ORIENTED_EDGE('',*,*,#401,.F.);
#293=ORIENTED_EDGE('',*,*,#385,.F.);
#294=ORIENTED_EDGE('',*,*,#429,.T.);
#295=ORIENTED_EDGE('',*,*,#430,.F.);
#296=ORIENTED_EDGE('',*,*,#431,.F.);
#297=ORIENTED_EDGE('',*,*,#387,.F.);
#298=ORIENTED_EDGE('',*,*,#430,.T.);
#299=ORIENTED_EDGE('',*,*,#400,.F.);
#300=ORIENTED_EDGE('',*,*,#382,.F.);
#301=ORIENTED_EDGE('',*,*,#431,.T.);
#302=ORIENTED_EDGE('',*,*,#432,.F.);
#303=ORIENTED_EDGE('',*,*,#432,.T.);
#304=ORIENTED_EDGE('',*,*,#399,.F.);
#305=ORIENTED_EDGE('',*,*,#433,.F.);
#306=ORIENTED_EDGE('',*,*,#389,.F.);
#307=ORIENTED_EDGE('',*,*,#434,.F.);
#308=ORIENTED_EDGE('',*,*,#380,.F.);
#309=ORIENTED_EDGE('',*,*,#433,.T.);
#310=ORIENTED_EDGE('',*,*,#398,.F.);
#311=ORIENTED_EDGE('',*,*,#377,.F.);
#312=ORIENTED_EDGE('',*,*,#434,.T.);
#313=ORIENTED_EDGE('',*,*,#435,.F.);
#314=ORIENTED_EDGE('',*,*,#436,.F.);
#315=ORIENTED_EDGE('',*,*,#390,.F.);
#316=ORIENTED_EDGE('',*,*,#435,.T.);
#317=ORIENTED_EDGE('',*,*,#397,.F.);
#318=ORIENTED_EDGE('',*,*,#372,.F.);
#319=ORIENTED_EDGE('',*,*,#436,.T.);
#320=ORIENTED_EDGE('',*,*,#437,.F.);
#321=ORIENTED_EDGE('',*,*,#437,.T.);
#322=ORIENTED_EDGE('',*,*,#396,.F.);
#323=ORIENTED_EDGE('',*,*,#419,.F.);
#324=ORIENTED_EDGE('',*,*,#326,.F.);
#325=EDGE_CURVE('',#438,#439,#503,.F.);
#326=EDGE_CURVE('',#439,#440,#504,.T.);
#327=EDGE_CURVE('',#440,#441,#505,.T.);
#328=EDGE_CURVE('',#441,#442,#65,.F.);
#329=EDGE_CURVE('',#442,#438,#506,.F.);
#330=EDGE_CURVE('',#443,#444,#507,.F.);
#331=EDGE_CURVE('',#444,#445,#508,.T.);
#332=EDGE_CURVE('',#445,#446,#509,.T.);
#333=EDGE_CURVE('',#446,#443,#510,.F.);
#334=EDGE_CURVE('',#445,#447,#66,.F.);
#335=EDGE_CURVE('',#448,#447,#511,.F.);
#336=EDGE_CURVE('',#446,#448,#67,.T.);
#337=EDGE_CURVE('',#449,#450,#24,.T.);
#338=EDGE_CURVE('',#451,#450,#512,.T.);
#339=EDGE_CURVE('',#452,#451,#25,.T.);
#340=EDGE_CURVE('',#449,#452,#513,.F.);
#341=EDGE_CURVE('',#453,#454,#26,.T.);
#342=EDGE_CURVE('',#450,#453,#514,.F.);
#343=EDGE_CURVE('',#454,#449,#515,.T.);
#344=EDGE_CURVE('',#455,#444,#68,.F.);
#345=EDGE_CURVE('',#456,#443,#27,.T.);
#346=EDGE_CURVE('',#455,#456,#516,.T.);
#347=EDGE_CURVE('',#438,#444,#69,.T.);
#348=EDGE_CURVE('',#442,#457,#517,.T.);
#349=EDGE_CURVE('',#458,#457,#518,.F.);
#350=EDGE_CURVE('',#445,#458,#70,.T.);
#351=EDGE_CURVE('',#450,#459,#519,.T.);
#352=EDGE_CURVE('',#453,#460,#520,.T.);
#353=EDGE_CURVE('',#460,#459,#521,.T.);
#354=EDGE_CURVE('',#451,#461,#522,.T.);
#355=EDGE_CURVE('',#461,#459,#523,.T.);
#356=EDGE_CURVE('',#462,#463,#524,.T.);
#357=EDGE_CURVE('',#462,#451,#525,.T.);
#358=EDGE_CURVE('',#463,#461,#526,.T.);
#359=EDGE_CURVE('',#464,#446,#71,.T.);
#360=EDGE_CURVE('',#456,#464,#527,.T.);
#361=EDGE_CURVE('',#465,#454,#528,.F.);
#362=EDGE_CURVE('',#460,#465,#28,.T.);
#363=EDGE_CURVE('',#466,#462,#29,.T.);
#364=EDGE_CURVE('',#452,#466,#529,.F.);
#365=EDGE_CURVE('',#455,#438,#72,.T.);
#366=EDGE_CURVE('',#458,#447,#73,.T.);
#367=EDGE_CURVE('',#464,#448,#74,.F.);
#368=EDGE_CURVE('',#467,#458,#530,.T.);
#369=EDGE_CURVE('',#467,#468,#75,.F.);
#370=EDGE_CURVE('',#447,#468,#531,.F.);
#371=EDGE_CURVE('',#469,#455,#532,.T.);
#372=EDGE_CURVE('',#469,#439,#76,.T.);
#373=EDGE_CURVE('',#470,#471,#533,.T.);
#374=EDGE_CURVE('',#470,#467,#534,.T.);
#375=EDGE_CURVE('',#457,#471,#77,.F.);
#376=EDGE_CURVE('',#472,#462,#535,.T.);
#377=EDGE_CURVE('',#472,#473,#78,.F.);
#378=EDGE_CURVE('',#466,#473,#536,.F.);
#379=EDGE_CURVE('',#474,#463,#537,.T.);
#380=EDGE_CURVE('',#474,#472,#538,.F.);
#381=EDGE_CURVE('',#475,#465,#539,.F.);
#382=EDGE_CURVE('',#475,#476,#79,.F.);
#383=EDGE_CURVE('',#460,#476,#540,.T.);
#384=EDGE_CURVE('',#477,#448,#541,.F.);
#385=EDGE_CURVE('',#477,#478,#80,.T.);
#386=EDGE_CURVE('',#464,#478,#542,.T.);
#387=EDGE_CURVE('',#478,#475,#543,.T.);
#388=EDGE_CURVE('',#456,#454,#544,.T.);
#389=EDGE_CURVE('',#476,#474,#545,.T.);
#390=EDGE_CURVE('',#473,#469,#546,.T.);
#391=EDGE_CURVE('',#468,#477,#547,.F.);
#392=EDGE_CURVE('',#479,#480,#548,.F.);
#393=EDGE_CURVE('',#480,#481,#549,.F.);
#394=EDGE_CURVE('',#481,#482,#550,.T.);
#395=EDGE_CURVE('',#482,#483,#551,.T.);
#396=EDGE_CURVE('',#483,#484,#552,.F.);
#397=EDGE_CURVE('',#484,#485,#553,.F.);
#398=EDGE_CURVE('',#485,#486,#554,.T.);
#399=EDGE_CURVE('',#486,#487,#555,.F.);
#400=EDGE_CURVE('',#487,#488,#556,.F.);
#401=EDGE_CURVE('',#488,#479,#557,.T.);
#402=EDGE_CURVE('',#489,#489,#81,.T.);
#403=EDGE_CURVE('',#490,#490,#82,.T.);
#404=EDGE_CURVE('',#471,#491,#558,.F.);
#405=EDGE_CURVE('',#491,#492,#559,.F.);
#406=EDGE_CURVE('',#492,#470,#560,.T.);
#407=EDGE_CURVE('',#442,#493,#561,.F.);
#408=EDGE_CURVE('',#493,#494,#562,.T.);
#409=EDGE_CURVE('',#494,#457,#563,.T.);
#410=EDGE_CURVE('',#495,#495,#83,.F.);
#411=EDGE_CURVE('',#496,#496,#84,.F.);
#412=EDGE_CURVE('',#440,#497,#564,.F.);
#413=EDGE_CURVE('',#497,#498,#565,.T.);
#414=EDGE_CURVE('',#498,#441,#566,.T.);
#415=EDGE_CURVE('',#493,#482,#567,.F.);
#416=EDGE_CURVE('',#481,#494,#568,.T.);
#417=EDGE_CURVE('',#493,#498,#30,.F.);
#418=EDGE_CURVE('',#482,#497,#31,.F.);
#419=EDGE_CURVE('',#440,#483,#32,.T.);
#420=EDGE_CURVE('',#480,#470,#33,.F.);
#421=EDGE_CURVE('',#481,#492,#34,.T.);
#422=EDGE_CURVE('',#494,#491,#35,.F.);
#423=EDGE_CURVE('',#499,#499,#85,.T.);
#424=EDGE_CURVE('',#500,#500,#86,.F.);
#425=EDGE_CURVE('',#501,#501,#87,.T.);
#426=EDGE_CURVE('',#502,#502,#88,.F.);
#427=EDGE_CURVE('',#467,#479,#89,.T.);
#428=EDGE_CURVE('',#468,#479,#90,.T.);
#429=EDGE_CURVE('',#477,#488,#91,.T.);
#430=EDGE_CURVE('',#478,#488,#92,.T.);
#431=EDGE_CURVE('',#475,#487,#93,.T.);
#432=EDGE_CURVE('',#476,#487,#94,.T.);
#433=EDGE_CURVE('',#474,#486,#36,.T.);
#434=EDGE_CURVE('',#472,#485,#95,.T.);
#435=EDGE_CURVE('',#473,#485,#96,.T.);
#436=EDGE_CURVE('',#469,#484,#97,.T.);
#437=EDGE_CURVE('',#439,#484,#98,.T.);
#438=VERTEX_POINT('',#1232);
#439=VERTEX_POINT('',#1233);
#440=VERTEX_POINT('',#1235);
#441=VERTEX_POINT('',#1237);
#442=VERTEX_POINT('',#1239);
#443=VERTEX_POINT('',#1243);
#444=VERTEX_POINT('',#1244);
#445=VERTEX_POINT('',#1246);
#446=VERTEX_POINT('',#1248);
#447=VERTEX_POINT('',#1252);
#448=VERTEX_POINT('',#1254);
#449=VERTEX_POINT('',#1258);
#450=VERTEX_POINT('',#1259);
#451=VERTEX_POINT('',#1261);
#452=VERTEX_POINT('',#1263);
#453=VERTEX_POINT('',#1267);
#454=VERTEX_POINT('',#1268);
#455=VERTEX_POINT('',#1273);
#456=VERTEX_POINT('',#1275);
#457=VERTEX_POINT('',#1280);
#458=VERTEX_POINT('',#1282);
#459=VERTEX_POINT('',#1286);
#460=VERTEX_POINT('',#1288);
#461=VERTEX_POINT('',#1292);
#462=VERTEX_POINT('',#1296);
#463=VERTEX_POINT('',#1297);
#464=VERTEX_POINT('',#1302);
#465=VERTEX_POINT('',#1306);
#466=VERTEX_POINT('',#1310);
#467=VERTEX_POINT('',#1320);
#468=VERTEX_POINT('',#1322);
#469=VERTEX_POINT('',#1326);
#470=VERTEX_POINT('',#1330);
#471=VERTEX_POINT('',#1331);
#472=VERTEX_POINT('',#1336);
#473=VERTEX_POINT('',#1338);
#474=VERTEX_POINT('',#1342);
#475=VERTEX_POINT('',#1346);
#476=VERTEX_POINT('',#1348);
#477=VERTEX_POINT('',#1352);
#478=VERTEX_POINT('',#1354);
#479=VERTEX_POINT('',#1367);
#480=VERTEX_POINT('',#1368);
#481=VERTEX_POINT('',#1370);
#482=VERTEX_POINT('',#1372);
#483=VERTEX_POINT('',#1374);
#484=VERTEX_POINT('',#1376);
#485=VERTEX_POINT('',#1378);
#486=VERTEX_POINT('',#1380);
#487=VERTEX_POINT('',#1382);
#488=VERTEX_POINT('',#1384);
#489=VERTEX_POINT('',#1388);
#490=VERTEX_POINT('',#1390);
#491=VERTEX_POINT('',#1392);
#492=VERTEX_POINT('',#1394);
#493=VERTEX_POINT('',#1398);
#494=VERTEX_POINT('',#1400);
#495=VERTEX_POINT('',#1404);
#496=VERTEX_POINT('',#1406);
#497=VERTEX_POINT('',#1408);
#498=VERTEX_POINT('',#1410);
#499=VERTEX_POINT('',#1429);
#500=VERTEX_POINT('',#1431);
#501=VERTEX_POINT('',#1434);
#502=VERTEX_POINT('',#1436);
#503=LINE('',#1231,#569);
#504=LINE('',#1234,#570);
#505=LINE('',#1236,#571);
#506=LINE('',#1240,#572);
#507=LINE('',#1242,#573);
#508=LINE('',#1245,#574);
#509=LINE('',#1247,#575);
#510=LINE('',#1249,#576);
#511=LINE('',#1253,#577);
#512=LINE('',#1260,#578);
#513=LINE('',#1264,#579);
#514=LINE('',#1269,#580);
#515=LINE('',#1270,#581);
#516=LINE('',#1276,#582);
#517=LINE('',#1279,#583);
#518=LINE('',#1281,#584);
#519=LINE('',#1285,#585);
#520=LINE('',#1287,#586);
#521=LINE('',#1289,#587);
#522=LINE('',#1291,#588);
#523=LINE('',#1293,#589);
#524=LINE('',#1295,#590);
#525=LINE('',#1298,#591);
#526=LINE('',#1299,#592);
#527=LINE('',#1303,#593);
#528=LINE('',#1305,#594);
#529=LINE('',#1311,#595);
#530=LINE('',#1319,#596);
#531=LINE('',#1323,#597);
#532=LINE('',#1325,#598);
#533=LINE('',#1329,#599);
#534=LINE('',#1332,#600);
#535=LINE('',#1335,#601);
#536=LINE('',#1339,#602);
#537=LINE('',#1341,#603);
#538=LINE('',#1343,#604);
#539=LINE('',#1345,#605);
#540=LINE('',#1349,#606);
#541=LINE('',#1351,#607);
#542=LINE('',#1355,#608);
#543=LINE('',#1357,#609);
#544=LINE('',#1358,#610);
#545=LINE('',#1360,#611);
#546=LINE('',#1362,#612);
#547=LINE('',#1364,#613);
#548=LINE('',#1366,#614);
#549=LINE('',#1369,#615);
#550=LINE('',#1371,#616);
#551=LINE('',#1373,#617);
#552=LINE('',#1375,#618);
#553=LINE('',#1377,#619);
#554=LINE('',#1379,#620);
#555=LINE('',#1381,#621);
#556=LINE('',#1383,#622);
#557=LINE('',#1385,#623);
#558=LINE('',#1391,#624);
#559=LINE('',#1393,#625);
#560=LINE('',#1395,#626);
#561=LINE('',#1397,#627);
#562=LINE('',#1399,#628);
#563=LINE('',#1401,#629);
#564=LINE('',#1407,#630);
#565=LINE('',#1409,#631);
#566=LINE('',#1411,#632);
#567=LINE('',#1413,#633);
#568=LINE('',#1414,#634);
#569=VECTOR('',#959,1.);
#570=VECTOR('',#960,1.);
#571=VECTOR('',#961,1.);
#572=VECTOR('',#964,1.);
#573=VECTOR('',#967,1.);
#574=VECTOR('',#968,1.);
#575=VECTOR('',#969,1.);
#576=VECTOR('',#970,1.);
#577=VECTOR('',#975,1.);
#578=VECTOR('',#982,1.);
#579=VECTOR('',#985,1.);
#580=VECTOR('',#990,1.);
#581=VECTOR('',#991,1.);
#582=VECTOR('',#998,1.);
#583=VECTOR('',#1003,1.);
#584=VECTOR('',#1004,1.);
#585=VECTOR('',#1009,1.);
#586=VECTOR('',#1010,1.);
#587=VECTOR('',#1011,1.);
#588=VECTOR('',#1014,1.);
#589=VECTOR('',#1015,1.);
#590=VECTOR('',#1018,1.);
#591=VECTOR('',#1019,1.);
#592=VECTOR('',#1020,1.);
#593=VECTOR('',#1025,1.);
#594=VECTOR('',#1028,1.);
#595=VECTOR('',#1035,1.);
#596=VECTOR('',#1050,1.);
#597=VECTOR('',#1053,1.);
#598=VECTOR('',#1056,1.);
#599=VECTOR('',#1061,1.);
#600=VECTOR('',#1062,1.);
#601=VECTOR('',#1067,1.);
#602=VECTOR('',#1070,1.);
#603=VECTOR('',#1073,1.);
#604=VECTOR('',#1074,1.);
#605=VECTOR('',#1077,1.);
#606=VECTOR('',#1080,1.);
#607=VECTOR('',#1083,1.);
#608=VECTOR('',#1086,1.);
#609=VECTOR('',#1089,1.);
#610=VECTOR('',#1090,1.);
#611=VECTOR('',#1093,1.);
#612=VECTOR('',#1096,1.);
#613=VECTOR('',#1099,1.);
#614=VECTOR('',#1102,1.);
#615=VECTOR('',#1103,1.);
#616=VECTOR('',#1104,1.);
#617=VECTOR('',#1105,1.);
#618=VECTOR('',#1106,1.);
#619=VECTOR('',#1107,1.);
#620=VECTOR('',#1108,1.);
#621=VECTOR('',#1109,1.);
#622=VECTOR('',#1110,1.);
#623=VECTOR('',#1111,1.);
#624=VECTOR('',#1118,1.);
#625=VECTOR('',#1119,1.);
#626=VECTOR('',#1120,1.);
#627=VECTOR('',#1123,1.);
#628=VECTOR('',#1124,1.);
#629=VECTOR('',#1125,1.);
#630=VECTOR('',#1132,1.);
#631=VECTOR('',#1133,1.);
#632=VECTOR('',#1134,1.);
#633=VECTOR('',#1137,1.);
#634=VECTOR('',#1138,1.);
#635=EDGE_LOOP('',(#99,#100,#101,#102,#103));
#636=EDGE_LOOP('',(#104,#105,#106,#107));
#637=EDGE_LOOP('',(#108,#109,#110,#111));
#638=EDGE_LOOP('',(#112,#113,#114,#115));
#639=EDGE_LOOP('',(#116,#117,#118,#119));
#640=EDGE_LOOP('',(#120,#121,#122,#123));
#641=EDGE_LOOP('',(#124,#125,#126,#127,#128,#129));
#642=EDGE_LOOP('',(#130,#131,#132,#133));
#643=EDGE_LOOP('',(#134,#135,#136,#137));
#644=EDGE_LOOP('',(#138,#139,#140,#141));
#645=EDGE_LOOP('',(#142,#143,#144,#145));
#646=EDGE_LOOP('',(#146,#147,#148,#149));
#647=EDGE_LOOP('',(#150,#151,#152,#153));
#648=EDGE_LOOP('',(#154,#155,#156));
#649=EDGE_LOOP('',(#157,#158,#159));
#650=EDGE_LOOP('',(#160,#161,#162));
#651=EDGE_LOOP('',(#163,#164,#165,#166));
#652=EDGE_LOOP('',(#167,#168,#169,#170));
#653=EDGE_LOOP('',(#171,#172,#173,#174,#175));
#654=EDGE_LOOP('',(#176,#177,#178,#179));
#655=EDGE_LOOP('',(#180,#181,#182,#183));
#656=EDGE_LOOP('',(#184,#185,#186,#187));
#657=EDGE_LOOP('',(#188,#189,#190,#191));
#658=EDGE_LOOP('',(#192,#193,#194,#195,#196,#197));
#659=EDGE_LOOP('',(#198,#199,#200,#201,#202,#203));
#660=EDGE_LOOP('',(#204,#205,#206,#207,#208,#209,#210,#211));
#661=EDGE_LOOP('',(#212,#213,#214,#215));
#662=EDGE_LOOP('',(#216,#217,#218,#219,#220,#221,#222,#223,#224,#225));
#663=EDGE_LOOP('',(#226));
#664=EDGE_LOOP('',(#227));
#665=EDGE_LOOP('',(#228,#229,#230,#231));
#666=EDGE_LOOP('',(#232,#233,#234,#235));
#667=EDGE_LOOP('',(#236));
#668=EDGE_LOOP('',(#237));
#669=EDGE_LOOP('',(#238,#239,#240,#241));
#670=EDGE_LOOP('',(#242,#243,#244,#245));
#671=EDGE_LOOP('',(#246,#247,#248,#249));
#672=EDGE_LOOP('',(#250,#251,#252,#253));
#673=EDGE_LOOP('',(#254,#255,#256,#257));
#674=EDGE_LOOP('',(#258,#259,#260,#261));
#675=EDGE_LOOP('',(#262,#263,#264,#265));
#676=EDGE_LOOP('',(#266,#267,#268,#269));
#677=EDGE_LOOP('',(#270));
#678=EDGE_LOOP('',(#271));
#679=EDGE_LOOP('',(#272));
#680=EDGE_LOOP('',(#273));
#681=EDGE_LOOP('',(#274));
#682=EDGE_LOOP('',(#275));
#683=EDGE_LOOP('',(#276));
#684=EDGE_LOOP('',(#277));
#685=EDGE_LOOP('',(#278));
#686=EDGE_LOOP('',(#279));
#687=EDGE_LOOP('',(#280));
#688=EDGE_LOOP('',(#281));
#689=EDGE_LOOP('',(#282,#283,#284,#285));
#690=EDGE_LOOP('',(#286,#287,#288));
#691=EDGE_LOOP('',(#289,#290,#291,#292));
#692=EDGE_LOOP('',(#293,#294,#295));
#693=EDGE_LOOP('',(#296,#297,#298,#299));
#694=EDGE_LOOP('',(#300,#301,#302));
#695=EDGE_LOOP('',(#303,#304,#305,#306));
#696=EDGE_LOOP('',(#307,#308,#309,#310));
#697=EDGE_LOOP('',(#311,#312,#313));
#698=EDGE_LOOP('',(#314,#315,#316,#317));
#699=EDGE_LOOP('',(#318,#319,#320));
#700=EDGE_LOOP('',(#321,#322,#323,#324));
#701=FACE_BOUND('',#635,.T.);
#702=FACE_BOUND('',#636,.T.);
#703=FACE_BOUND('',#637,.T.);
#704=FACE_BOUND('',#638,.T.);
#705=FACE_BOUND('',#639,.T.);
#706=FACE_BOUND('',#640,.T.);
#707=FACE_BOUND('',#641,.T.);
#708=FACE_BOUND('',#642,.T.);
#709=FACE_BOUND('',#643,.T.);
#710=FACE_BOUND('',#644,.T.);
#711=FACE_BOUND('',#645,.T.);
#712=FACE_BOUND('',#646,.T.);
#713=FACE_BOUND('',#647,.T.);
#714=FACE_BOUND('',#648,.T.);
#715=FACE_BOUND('',#649,.T.);
#716=FACE_BOUND('',#650,.T.);
#717=FACE_BOUND('',#651,.T.);
#718=FACE_BOUND('',#652,.T.);
#719=FACE_BOUND('',#653,.T.);
#720=FACE_BOUND('',#654,.T.);
#721=FACE_BOUND('',#655,.T.);
#722=FACE_BOUND('',#656,.T.);
#723=FACE_BOUND('',#657,.T.);
#724=FACE_BOUND('',#658,.T.);
#725=FACE_BOUND('',#659,.T.);
#726=FACE_BOUND('',#660,.T.);
#727=FACE_BOUND('',#661,.T.);
#728=FACE_BOUND('',#662,.T.);
#729=FACE_BOUND('',#663,.T.);
#730=FACE_BOUND('',#664,.T.);
#731=FACE_BOUND('',#665,.T.);
#732=FACE_BOUND('',#666,.T.);
#733=FACE_BOUND('',#667,.T.);
#734=FACE_BOUND('',#668,.T.);
#735=FACE_BOUND('',#669,.T.);
#736=FACE_BOUND('',#670,.T.);
#737=FACE_BOUND('',#671,.T.);
#738=FACE_BOUND('',#672,.T.);
#739=FACE_BOUND('',#673,.T.);
#740=FACE_BOUND('',#674,.T.);
#741=FACE_BOUND('',#675,.T.);
#742=FACE_BOUND('',#676,.T.);
#743=FACE_BOUND('',#677,.T.);
#744=FACE_BOUND('',#678,.T.);
#745=FACE_BOUND('',#679,.T.);
#746=FACE_BOUND('',#680,.T.);
#747=FACE_BOUND('',#681,.T.);
#748=FACE_BOUND('',#682,.T.);
#749=FACE_BOUND('',#683,.T.);
#750=FACE_BOUND('',#684,.T.);
#751=FACE_BOUND('',#685,.T.);
#752=FACE_BOUND('',#686,.T.);
#753=FACE_BOUND('',#687,.T.);
#754=FACE_BOUND('',#688,.T.);
#755=FACE_BOUND('',#689,.T.);
#756=FACE_BOUND('',#690,.T.);
#757=FACE_BOUND('',#691,.T.);
#758=FACE_BOUND('',#692,.T.);
#759=FACE_BOUND('',#693,.T.);
#760=FACE_BOUND('',#694,.T.);
#761=FACE_BOUND('',#695,.T.);
#762=FACE_BOUND('',#696,.T.);
#763=FACE_BOUND('',#697,.T.);
#764=FACE_BOUND('',#698,.T.);
#765=FACE_BOUND('',#699,.T.);
#766=FACE_BOUND('',#700,.T.);
#767=PLANE('',#852);
#768=PLANE('',#854);
#769=PLANE('',#869);
#770=PLANE('',#870);
#771=PLANE('',#871);
#772=PLANE('',#888);
#773=PLANE('',#892);
#774=PLANE('',#897);
#775=PLANE('',#898);
#776=PLANE('',#899);
#777=PLANE('',#900);
#778=PLANE('',#901);
#779=PLANE('',#902);
#780=PLANE('',#905);
#781=PLANE('',#906);
#782=PLANE('',#909);
#783=ADVANCED_FACE('',(#701),#767,.T.);
#784=ADVANCED_FACE('',(#702),#768,.T.);
#785=ADVANCED_FACE('',(#703),#37,.T.);
#786=ADVANCED_FACE('',(#704),#38,.T.);
#787=ADVANCED_FACE('',(#705),#39,.T.);
#788=ADVANCED_FACE('',(#706),#40,.T.);
#789=ADVANCED_FACE('',(#707),#41,.T.);
#790=ADVANCED_FACE('',(#708),#769,.T.);
#791=ADVANCED_FACE('',(#709),#770,.F.);
#792=ADVANCED_FACE('',(#710),#771,.F.);
#793=ADVANCED_FACE('',(#711),#42,.T.);
#794=ADVANCED_FACE('',(#712),#43,.T.);
#795=ADVANCED_FACE('',(#713),#44,.T.);
#796=ADVANCED_FACE('',(#714),#16,.T.);
#797=ADVANCED_FACE('',(#715),#17,.T.);
#798=ADVANCED_FACE('',(#716),#18,.T.);
#799=ADVANCED_FACE('',(#717),#45,.T.);
#800=ADVANCED_FACE('',(#718),#46,.T.);
#801=ADVANCED_FACE('',(#719),#772,.T.);
#802=ADVANCED_FACE('',(#720),#47,.T.);
#803=ADVANCED_FACE('',(#721),#773,.F.);
#804=ADVANCED_FACE('',(#722),#48,.T.);
#805=ADVANCED_FACE('',(#723),#49,.T.);
#806=ADVANCED_FACE('',(#724),#774,.T.);
#807=ADVANCED_FACE('',(#725),#775,.T.);
#808=ADVANCED_FACE('',(#726),#776,.T.);
#809=ADVANCED_FACE('',(#727),#777,.F.);
#810=ADVANCED_FACE('',(#728),#778,.T.);
#811=ADVANCED_FACE('',(#729,#730,#731),#779,.F.);
#812=ADVANCED_FACE('',(#732),#780,.T.);
#813=ADVANCED_FACE('',(#733,#734,#735),#781,.T.);
#814=ADVANCED_FACE('',(#736),#782,.T.);
#815=ADVANCED_FACE('',(#737),#50,.T.);
#816=ADVANCED_FACE('',(#738),#51,.T.);
#817=ADVANCED_FACE('',(#739),#52,.T.);
#818=ADVANCED_FACE('',(#740),#53,.T.);
#819=ADVANCED_FACE('',(#741),#54,.T.);
#820=ADVANCED_FACE('',(#742),#55,.T.);
#821=ADVANCED_FACE('',(#743,#744),#56,.F.);
#822=ADVANCED_FACE('',(#745,#746),#57,.F.);
#823=ADVANCED_FACE('',(#747,#748),#12,.T.);
#824=ADVANCED_FACE('',(#749,#750),#13,.T.);
#825=ADVANCED_FACE('',(#751,#752),#14,.T.);
#826=ADVANCED_FACE('',(#753,#754),#15,.T.);
#827=ADVANCED_FACE('',(#755),#58,.T.);
#828=ADVANCED_FACE('',(#756),#19,.T.);
#829=ADVANCED_FACE('',(#757),#59,.T.);
#830=ADVANCED_FACE('',(#758),#20,.T.);
#831=ADVANCED_FACE('',(#759),#60,.T.);
#832=ADVANCED_FACE('',(#760),#21,.T.);
#833=ADVANCED_FACE('',(#761),#61,.T.);
#834=ADVANCED_FACE('',(#762),#62,.T.);
#835=ADVANCED_FACE('',(#763),#22,.T.);
#836=ADVANCED_FACE('',(#764),#63,.T.);
#837=ADVANCED_FACE('',(#765),#23,.T.);
#838=ADVANCED_FACE('',(#766),#64,.T.);
#839=CLOSED_SHELL('',(#783,#784,#785,#786,#787,#788,#789,#790,#791,#792,
#793,#794,#795,#796,#797,#798,#799,#800,#801,#802,#803,#804,#805,#806,#807,
#808,#809,#810,#811,#812,#813,#814,#815,#816,#817,#818,#819,#820,#821,#822,
#823,#824,#825,#826,#827,#828,#829,#830,#831,#832,#833,#834,#835,#836,#837,
#838));
#840=STYLED_ITEM('',(#841),#848);
#841=PRESENTATION_STYLE_ASSIGNMENT((#842));
#842=SURFACE_STYLE_USAGE(.BOTH.,#843);
#843=SURFACE_SIDE_STYLE('',(#844));
#844=SURFACE_STYLE_FILL_AREA(#845);
#845=FILL_AREA_STYLE('',(#846));
#846=FILL_AREA_STYLE_COLOUR('',#847);
#847=COLOUR_RGB('',0.615686274509804,0.811764705882353,0.929411764705882);
#848=MANIFOLD_SOLID_BREP('Part 1',#839);
#849=SHAPE_DEFINITION_REPRESENTATION(#1470,#850);
#850=SHAPE_REPRESENTATION('Part 1',(#851),#1465);
#851=AXIS2_PLACEMENT_3D('',#1229,#955,#956);
#852=AXIS2_PLACEMENT_3D('',#1230,#957,#958);
#853=AXIS2_PLACEMENT_3D('',#1238,#962,#963);
#854=AXIS2_PLACEMENT_3D('',#1241,#965,#966);
#855=AXIS2_PLACEMENT_3D('',#1250,#971,#972);
#856=AXIS2_PLACEMENT_3D('',#1251,#973,#974);
#857=AXIS2_PLACEMENT_3D('',#1255,#976,#977);
#858=AXIS2_PLACEMENT_3D('',#1256,#978,#979);
#859=AXIS2_PLACEMENT_3D('',#1257,#980,#981);
#860=AXIS2_PLACEMENT_3D('',#1262,#983,#984);
#861=AXIS2_PLACEMENT_3D('',#1265,#986,#987);
#862=AXIS2_PLACEMENT_3D('',#1266,#988,#989);
#863=AXIS2_PLACEMENT_3D('',#1271,#992,#993);
#864=AXIS2_PLACEMENT_3D('',#1272,#994,#995);
#865=AXIS2_PLACEMENT_3D('',#1274,#996,#997);
#866=AXIS2_PLACEMENT_3D('',#1277,#999,#1000);
#867=AXIS2_PLACEMENT_3D('',#1278,#1001,#1002);
#868=AXIS2_PLACEMENT_3D('',#1283,#1005,#1006);
#869=AXIS2_PLACEMENT_3D('',#1284,#1007,#1008);
#870=AXIS2_PLACEMENT_3D('',#1290,#1012,#1013);
#871=AXIS2_PLACEMENT_3D('',#1294,#1016,#1017);
#872=AXIS2_PLACEMENT_3D('',#1300,#1021,#1022);
#873=AXIS2_PLACEMENT_3D('',#1301,#1023,#1024);
#874=AXIS2_PLACEMENT_3D('',#1304,#1026,#1027);
#875=AXIS2_PLACEMENT_3D('',#1307,#1029,#1030);
#876=AXIS2_PLACEMENT_3D('',#1308,#1031,#1032);
#877=AXIS2_PLACEMENT_3D('',#1309,#1033,#1034);
#878=AXIS2_PLACEMENT_3D('',#1312,#1036,#1037);
#879=AXIS2_PLACEMENT_3D('',#1313,#1038,#1039);
#880=AXIS2_PLACEMENT_3D('',#1314,#1040,#1041);
#881=AXIS2_PLACEMENT_3D('',#1315,#1042,#1043);
#882=AXIS2_PLACEMENT_3D('',#1316,#1044,#1045);
#883=AXIS2_PLACEMENT_3D('',#1317,#1046,#1047);
#884=AXIS2_PLACEMENT_3D('',#1318,#1048,#1049);
#885=AXIS2_PLACEMENT_3D('',#1321,#1051,#1052);
#886=AXIS2_PLACEMENT_3D('',#1324,#1054,#1055);
#887=AXIS2_PLACEMENT_3D('',#1327,#1057,#1058);
#888=AXIS2_PLACEMENT_3D('',#1328,#1059,#1060);
#889=AXIS2_PLACEMENT_3D('',#1333,#1063,#1064);
#890=AXIS2_PLACEMENT_3D('',#1334,#1065,#1066);
#891=AXIS2_PLACEMENT_3D('',#1337,#1068,#1069);
#892=AXIS2_PLACEMENT_3D('',#1340,#1071,#1072);
#893=AXIS2_PLACEMENT_3D('',#1344,#1075,#1076);
#894=AXIS2_PLACEMENT_3D('',#1347,#1078,#1079);
#895=AXIS2_PLACEMENT_3D('',#1350,#1081,#1082);
#896=AXIS2_PLACEMENT_3D('',#1353,#1084,#1085);
#897=AXIS2_PLACEMENT_3D('',#1356,#1087,#1088);
#898=AXIS2_PLACEMENT_3D('',#1359,#1091,#1092);
#899=AXIS2_PLACEMENT_3D('',#1361,#1094,#1095);
#900=AXIS2_PLACEMENT_3D('',#1363,#1097,#1098);
#901=AXIS2_PLACEMENT_3D('',#1365,#1100,#1101);
#902=AXIS2_PLACEMENT_3D('',#1386,#1112,#1113);
#903=AXIS2_PLACEMENT_3D('',#1387,#1114,#1115);
#904=AXIS2_PLACEMENT_3D('',#1389,#1116,#1117);
#905=AXIS2_PLACEMENT_3D('',#1396,#1121,#1122);
#906=AXIS2_PLACEMENT_3D('',#1402,#1126,#1127);
#907=AXIS2_PLACEMENT_3D('',#1403,#1128,#1129);
#908=AXIS2_PLACEMENT_3D('',#1405,#1130,#1131);
#909=AXIS2_PLACEMENT_3D('',#1412,#1135,#1136);
#910=AXIS2_PLACEMENT_3D('',#1415,#1139,#1140);
#911=AXIS2_PLACEMENT_3D('',#1416,#1141,#1142);
#912=AXIS2_PLACEMENT_3D('',#1417,#1143,#1144);
#913=AXIS2_PLACEMENT_3D('',#1418,#1145,#1146);
#914=AXIS2_PLACEMENT_3D('',#1419,#1147,#1148);
#915=AXIS2_PLACEMENT_3D('',#1420,#1149,#1150);
#916=AXIS2_PLACEMENT_3D('',#1421,#1151,#1152);
#917=AXIS2_PLACEMENT_3D('',#1422,#1153,#1154);
#918=AXIS2_PLACEMENT_3D('',#1423,#1155,#1156);
#919=AXIS2_PLACEMENT_3D('',#1424,#1157,#1158);
#920=AXIS2_PLACEMENT_3D('',#1425,#1159,#1160);
#921=AXIS2_PLACEMENT_3D('',#1426,#1161,#1162);
#922=AXIS2_PLACEMENT_3D('',#1427,#1163,#1164);
#923=AXIS2_PLACEMENT_3D('',#1428,#1165,#1166);
#924=AXIS2_PLACEMENT_3D('',#1430,#1167,#1168);
#925=AXIS2_PLACEMENT_3D('',#1432,#1169,#1170);
#926=AXIS2_PLACEMENT_3D('',#1433,#1171,#1172);
#927=AXIS2_PLACEMENT_3D('',#1435,#1173,#1174);
#928=AXIS2_PLACEMENT_3D('',#1437,#1175,#1176);
#929=AXIS2_PLACEMENT_3D('',#1438,#1177,#1178);
#930=AXIS2_PLACEMENT_3D('',#1439,#1179,#1180);
#931=AXIS2_PLACEMENT_3D('',#1440,#1181,#1182);
#932=AXIS2_PLACEMENT_3D('',#1441,#1183,#1184);
#933=AXIS2_PLACEMENT_3D('',#1442,#1185,#1186);
#934=AXIS2_PLACEMENT_3D('',#1443,#1187,#1188);
#935=AXIS2_PLACEMENT_3D('',#1444,#1189,#1190);
#936=AXIS2_PLACEMENT_3D('',#1445,#1191,#1192);
#937=AXIS2_PLACEMENT_3D('',#1446,#1193,#1194);
#938=AXIS2_PLACEMENT_3D('',#1447,#1195,#1196);
#939=AXIS2_PLACEMENT_3D('',#1448,#1197,#1198);
#940=AXIS2_PLACEMENT_3D('',#1449,#1199,#1200);
#941=AXIS2_PLACEMENT_3D('',#1450,#1201,#1202);
#942=AXIS2_PLACEMENT_3D('',#1451,#1203,#1204);
#943=AXIS2_PLACEMENT_3D('',#1452,#1205,#1206);
#944=AXIS2_PLACEMENT_3D('',#1453,#1207,#1208);
#945=AXIS2_PLACEMENT_3D('',#1454,#1209,#1210);
#946=AXIS2_PLACEMENT_3D('',#1455,#1211,#1212);
#947=AXIS2_PLACEMENT_3D('',#1456,#1213,#1214);
#948=AXIS2_PLACEMENT_3D('',#1457,#1215,#1216);
#949=AXIS2_PLACEMENT_3D('',#1458,#1217,#1218);
#950=AXIS2_PLACEMENT_3D('',#1459,#1219,#1220);
#951=AXIS2_PLACEMENT_3D('',#1460,#1221,#1222);
#952=AXIS2_PLACEMENT_3D('',#1461,#1223,#1224);
#953=AXIS2_PLACEMENT_3D('',#1462,#1225,#1226);
#954=AXIS2_PLACEMENT_3D('',#1463,#1227,#1228);
#955=DIRECTION('',(0.,0.,1.));
#956=DIRECTION('',(1.,0.,0.));
#957=DIRECTION('',(0.,0.,1.));
#958=DIRECTION('',(1.,0.,0.));
#959=DIRECTION('',(1.,0.,0.));
#960=DIRECTION('',(0.,-1.,0.));
#961=DIRECTION('',(1.,0.,0.));
#962=DIRECTION('',(0.,0.,1.));
#963=DIRECTION('',(0.,-1.,0.));
#964=DIRECTION('',(0.,-1.,0.));
#965=DIRECTION('',(1.,0.,0.));
#966=DIRECTION('',(0.,0.,-1.));
#967=DIRECTION('',(0.,0.,-1.));
#968=DIRECTION('',(0.,-1.,0.));
#969=DIRECTION('',(0.,0.,-1.));
#970=DIRECTION('',(0.,-1.,0.));
#971=DIRECTION('',(0.,0.,1.));
#972=DIRECTION('',(0.,-1.,0.));
#973=DIRECTION('',(0.,0.,1.));
#974=DIRECTION('',(0.,-1.,0.));
#975=DIRECTION('',(0.,0.,-1.));
#976=DIRECTION('',(0.,0.,-1.));
#977=DIRECTION('',(0.,1.,0.));
#978=DIRECTION('',(1.,0.,0.));
#979=DIRECTION('',(0.,-1.,0.));
#980=DIRECTION('',(0.707106781186548,0.,0.707106781186548));
#981=DIRECTION('',(0.707106781186548,0.,-0.707106781186548));
#982=DIRECTION('',(-1.,0.,0.));
#983=DIRECTION('',(0.707106781186548,0.,0.707106781186548));
#984=DIRECTION('',(0.707106781186548,0.,-0.707106781186548));
#985=DIRECTION('',(-1.,0.,0.));
#986=DIRECTION('',(0.,0.,1.));
#987=DIRECTION('',(0.,-1.,0.));
#988=DIRECTION('',(0.,-0.707106781186548,-0.707106781186548));
#989=DIRECTION('',(0.,-0.707106781186548,0.707106781186548));
#990=DIRECTION('',(0.,0.,1.));
#991=DIRECTION('',(0.,0.,1.));
#992=DIRECTION('',(0.,0.,-1.));
#993=DIRECTION('',(0.,1.,0.));
#994=DIRECTION('',(0.,0.,1.));
#995=DIRECTION('',(0.,-1.,0.));
#996=DIRECTION('',(0.,-0.707106781186548,-0.707106781186548));
#997=DIRECTION('',(0.,-0.707106781186548,0.707106781186548));
#998=DIRECTION('',(0.,0.,-1.));
#999=DIRECTION('',(0.,-1.,0.));
#1000=DIRECTION('',(-1.,0.,0.));
#1001=DIRECTION('',(0.,1.,0.));
#1002=DIRECTION('',(1.,0.,0.));
#1003=DIRECTION('',(0.,-1.,0.));
#1004=DIRECTION('',(0.,-1.,0.));
#1005=DIRECTION('',(0.,-1.,0.));
#1006=DIRECTION('',(-1.,0.,0.));
#1007=DIRECTION('',(-1.,0.,0.));
#1008=DIRECTION('',(0.,1.,0.));
#1009=DIRECTION('',(0.,-1.,0.));
#1010=DIRECTION('',(0.,-1.,0.));
#1011=DIRECTION('',(0.,0.,1.));
#1012=DIRECTION('',(0.,0.,-1.));
#1013=DIRECTION('',(-1.,0.,0.));
#1014=DIRECTION('',(0.,-1.,0.));
#1015=DIRECTION('',(-1.,0.,0.));
#1016=DIRECTION('',(1.,0.,0.));
#1017=DIRECTION('',(0.,0.,-1.));
#1018=DIRECTION('',(0.,-1.,0.));
#1019=DIRECTION('',(0.,0.,-1.));
#1020=DIRECTION('',(0.,0.,-1.));
#1021=DIRECTION('',(0.,-1.,0.));
#1022=DIRECTION('',(-1.,0.,0.));
#1023=DIRECTION('',(0.,-1.,0.));
#1024=DIRECTION('',(-1.,0.,0.));
#1025=DIRECTION('',(0.,-1.,0.));
#1026=DIRECTION('',(0.,-1.,0.));
#1027=DIRECTION('',(-1.,0.,0.));
#1028=DIRECTION('',(0.,-1.,0.));
#1029=DIRECTION('',(-0.707106781186548,-0.707106781186548,0.));
#1030=DIRECTION('',(0.707106781186548,-0.707106781186548,0.));
#1031=DIRECTION('',(0.,0.,1.));
#1032=DIRECTION('',(0.,-1.,0.));
#1033=DIRECTION('',(-0.707106781186548,0.,0.707106781186548));
#1034=DIRECTION('',(0.707106781186548,0.,0.707106781186548));
#1035=DIRECTION('',(0.,0.,-1.));
#1036=DIRECTION('',(0.,0.,1.));
#1037=DIRECTION('',(0.,-1.,0.));
#1038=DIRECTION('',(1.,0.,0.));
#1039=DIRECTION('',(0.,-1.,0.));
#1040=DIRECTION('',(0.,8.67361737988404E-16,1.));
#1041=DIRECTION('',(0.,-1.,8.67361737988404E-16));
#1042=DIRECTION('',(1.,0.,0.));
#1043=DIRECTION('',(0.,-1.,0.));
#1044=DIRECTION('',(1.,8.67361737988403E-16,0.));
#1045=DIRECTION('',(8.67361737988403E-16,-1.,0.));
#1046=DIRECTION('',(1.,0.,0.));
#1047=DIRECTION('',(0.,-1.,0.));
#1048=DIRECTION('',(-1.,0.,0.));
#1049=DIRECTION('',(0.,1.,0.));
#1050=DIRECTION('',(1.,0.,0.));
#1051=DIRECTION('',(-1.,0.,0.));
#1052=DIRECTION('',(0.,1.,0.));
#1053=DIRECTION('',(1.,0.,0.));
#1054=DIRECTION('',(1.,0.,0.));
#1055=DIRECTION('',(0.,-1.,0.));
#1056=DIRECTION('',(1.,0.,0.));
#1057=DIRECTION('',(1.,0.,0.));
#1058=DIRECTION('',(0.,-1.,0.));
#1059=DIRECTION('',(0.,0.,1.));
#1060=DIRECTION('',(1.,0.,0.));
#1061=DIRECTION('',(1.,0.,0.));
#1062=DIRECTION('',(0.,-1.,0.));
#1063=DIRECTION('',(0.,0.,1.));
#1064=DIRECTION('',(0.,-1.,0.));
#1065=DIRECTION('',(-1.,0.,0.));
#1066=DIRECTION('',(0.,1.,0.));
#1067=DIRECTION('',(1.,0.,0.));
#1068=DIRECTION('',(-1.,0.,0.));
#1069=DIRECTION('',(0.,1.,0.));
#1070=DIRECTION('',(1.,0.,0.));
#1071=DIRECTION('',(0.,0.,1.));
#1072=DIRECTION('',(1.,0.,0.));
#1073=DIRECTION('',(1.,0.,0.));
#1074=DIRECTION('',(0.,-1.,0.));
#1075=DIRECTION('',(-1.,0.,0.));
#1076=DIRECTION('',(0.,1.,0.));
#1077=DIRECTION('',(-1.,0.,0.));
#1078=DIRECTION('',(-1.,0.,0.));
#1079=DIRECTION('',(0.,1.,0.));
#1080=DIRECTION('',(-1.,0.,0.));
#1081=DIRECTION('',(1.,0.,0.));
#1082=DIRECTION('',(0.,-1.,0.));
#1083=DIRECTION('',(-1.,0.,0.));
#1084=DIRECTION('',(1.,0.,0.));
#1085=DIRECTION('',(0.,-1.,0.));
#1086=DIRECTION('',(-1.,0.,0.));
#1087=DIRECTION('',(0.,0.,-1.));
#1088=DIRECTION('',(-1.,0.,0.));
#1089=DIRECTION('',(0.,1.,0.));
#1090=DIRECTION('',(-1.,0.,0.));
#1091=DIRECTION('',(0.,1.,0.));
#1092=DIRECTION('',(1.,0.,0.));
#1093=DIRECTION('',(0.,0.,1.));
#1094=DIRECTION('',(0.,1.,0.));
#1095=DIRECTION('',(1.,0.,0.));
#1096=DIRECTION('',(0.,0.,1.));
#1097=DIRECTION('',(0.,1.,0.));
#1098=DIRECTION('',(1.,0.,0.));
#1099=DIRECTION('',(0.,0.,1.));
#1100=DIRECTION('',(-1.,0.,0.));
#1101=DIRECTION('',(0.,1.,0.));
#1102=DIRECTION('',(0.,-1.,0.));
#1103=DIRECTION('',(0.,0.,-1.));
#1104=DIRECTION('',(0.,1.,0.));
#1105=DIRECTION('',(0.,0.,-1.));
#1106=DIRECTION('',(0.,-1.,0.));
#1107=DIRECTION('',(0.,0.,1.));
#1108=DIRECTION('',(0.,-1.,0.));
#1109=DIRECTION('',(0.,0.,1.));
#1110=DIRECTION('',(0.,1.,0.));
#1111=DIRECTION('',(0.,0.,1.));
#1112=DIRECTION('',(0.,1.,0.));
#1113=DIRECTION('',(1.,0.,0.));
#1114=DIRECTION('',(0.,1.,0.));
#1115=DIRECTION('',(1.,0.,0.));
#1116=DIRECTION('',(0.,1.,0.));
#1117=DIRECTION('',(1.,0.,0.));
#1118=DIRECTION('',(0.,0.,-1.));
#1119=DIRECTION('',(1.,0.,0.));
#1120=DIRECTION('',(0.,0.,-1.));
#1121=DIRECTION('',(1.,0.,0.));
#1122=DIRECTION('',(0.,-1.,0.));
#1123=DIRECTION('',(0.,0.,-1.));
#1124=DIRECTION('',(0.,-1.,0.));
#1125=DIRECTION('',(0.,0.,-1.));
#1126=DIRECTION('',(0.,1.,0.));
#1127=DIRECTION('',(1.,0.,0.));
#1128=DIRECTION('',(0.,1.,0.));
#1129=DIRECTION('',(1.,0.,0.));
#1130=DIRECTION('',(0.,1.,0.));
#1131=DIRECTION('',(1.,0.,0.));
#1132=DIRECTION('',(0.,0.,-1.));
#1133=DIRECTION('',(1.,0.,0.));
#1134=DIRECTION('',(0.,0.,-1.));
#1135=DIRECTION('',(0.,0.,1.));
#1136=DIRECTION('',(1.,0.,0.));
#1137=DIRECTION('',(1.,0.,0.));
#1138=DIRECTION('',(1.,0.,0.));
#1139=DIRECTION('',(0.,0.,-1.));
#1140=DIRECTION('',(0.,1.,0.));
#1141=DIRECTION('',(0.707106781186548,0.,-0.707106781186548));
#1142=DIRECTION('',(-0.707106781186548,0.,-0.707106781186548));
#1143=DIRECTION('',(1.,0.,0.));
#1144=DIRECTION('',(0.,-1.,0.));
#1145=DIRECTION('',(0.707106781186548,0.,0.707106781186548));
#1146=DIRECTION('',(0.707106781186548,0.,-0.707106781186548));
#1147=DIRECTION('',(0.,0.,-1.));
#1148=DIRECTION('',(0.,1.,0.));
#1149=DIRECTION('',(0.,-0.707106781186548,0.707106781186548));
#1150=DIRECTION('',(0.,-0.707106781186548,-0.707106781186548));
#1151=DIRECTION('',(0.,0.,1.));
#1152=DIRECTION('',(0.,-1.,0.));
#1153=DIRECTION('',(0.,-0.707106781186548,-0.707106781186548));
#1154=DIRECTION('',(0.,-0.707106781186548,0.707106781186548));
#1155=DIRECTION('',(0.707106781186548,0.,0.707106781186548));
#1156=DIRECTION('',(-0.707106781186548,0.,0.707106781186548));
#1157=DIRECTION('',(-1.,0.,0.));
#1158=DIRECTION('',(0.,1.,0.));
#1159=DIRECTION('',(-0.707106781186548,0.,0.707106781186548));
#1160=DIRECTION('',(-0.707106781186548,0.,-0.707106781186548));
#1161=DIRECTION('',(0.,0.,1.));
#1162=DIRECTION('',(0.,-1.,0.));
#1163=DIRECTION('',(0.,1.,0.));
#1164=DIRECTION('',(1.,0.,0.));
#1165=DIRECTION('',(0.,1.,0.));
#1166=DIRECTION('',(1.,0.,0.));
#1167=DIRECTION('',(0.,1.,0.));
#1168=DIRECTION('',(1.,0.,0.));
#1169=DIRECTION('',(0.,1.,0.));
#1170=DIRECTION('',(1.,0.,0.));
#1171=DIRECTION('',(0.,1.,0.));
#1172=DIRECTION('',(1.,0.,0.));
#1173=DIRECTION('',(0.,1.,0.));
#1174=DIRECTION('',(1.,0.,0.));
#1175=DIRECTION('',(0.,1.,0.));
#1176=DIRECTION('',(1.,0.,0.));
#1177=DIRECTION('',(0.,1.,0.));
#1178=DIRECTION('',(1.,0.,0.));
#1179=DIRECTION('',(0.,1.,0.));
#1180=DIRECTION('',(1.,0.,0.));
#1181=DIRECTION('',(0.,1.,0.));
#1182=DIRECTION('',(1.,0.,0.));
#1183=DIRECTION('',(0.,-1.,0.));
#1184=DIRECTION('',(-1.,0.,0.));
#1185=DIRECTION('',(0.,-1.,0.));
#1186=DIRECTION('',(-1.,0.,0.));
#1187=DIRECTION('',(-1.,0.,0.));
#1188=DIRECTION('',(0.,1.,0.));
#1189=DIRECTION('',(0.,0.,-1.));
#1190=DIRECTION('',(0.,1.,0.));
#1191=DIRECTION('',(0.,0.,-1.));
#1192=DIRECTION('',(0.,1.,0.));
#1193=DIRECTION('',(0.,0.,-1.));
#1194=DIRECTION('',(0.,1.,0.));
#1195=DIRECTION('',(-1.,0.,0.));
#1196=DIRECTION('',(0.,1.,0.));
#1197=DIRECTION('',(0.,1.,0.));
#1198=DIRECTION('',(1.,0.,0.));
#1199=DIRECTION('',(0.,1.,0.));
#1200=DIRECTION('',(1.,0.,0.));
#1201=DIRECTION('',(0.,1.,0.));
#1202=DIRECTION('',(1.,0.,0.));
#1203=DIRECTION('',(-1.,0.,0.));
#1204=DIRECTION('',(0.,1.,0.));
#1205=DIRECTION('',(0.,0.,1.));
#1206=DIRECTION('',(0.,-1.,0.));
#1207=DIRECTION('',(0.,0.,1.));
#1208=DIRECTION('',(0.,-1.,0.));
#1209=DIRECTION('',(0.,0.707106781186548,0.707106781186548));
#1210=DIRECTION('',(0.,0.707106781186548,-0.707106781186548));
#1211=DIRECTION('',(0.,1.,0.));
#1212=DIRECTION('',(1.,0.,0.));
#1213=DIRECTION('',(0.,1.,0.));
#1214=DIRECTION('',(1.,0.,0.));
#1215=DIRECTION('',(-1.,0.,0.));
#1216=DIRECTION('',(0.,1.,0.));
#1217=DIRECTION('',(0.,0.,1.));
#1218=DIRECTION('',(0.,-1.,0.));
#1219=DIRECTION('',(0.,0.,1.));
#1220=DIRECTION('',(0.,-1.,0.));
#1221=DIRECTION('',(0.,0.,1.));
#1222=DIRECTION('',(0.,-1.,0.));
#1223=DIRECTION('',(-1.,0.,0.));
#1224=DIRECTION('',(0.,1.,0.));
#1225=DIRECTION('',(0.,-1.,0.));
#1226=DIRECTION('',(-1.,0.,0.));
#1227=DIRECTION('',(0.,-1.,0.));
#1228=DIRECTION('',(-1.,0.,0.));
#1229=CARTESIAN_POINT('',(0.,0.,0.));
#1230=CARTESIAN_POINT('',(-0.0160863392455616,0.0325,-0.00582911326369436));
#1231=CARTESIAN_POINT('',(-0.0160863392455616,0.064,-0.00582911326369436));
#1232=CARTESIAN_POINT('',(0.0709136607544383,0.064,-0.00582911326369436));
#1233=CARTESIAN_POINT('',(0.0549136607544383,0.064,-0.00582911326369436));
#1234=CARTESIAN_POINT('',(0.0549136607544383,0.0325,-0.00582911326369436));
#1235=CARTESIAN_POINT('',(0.0549136607544383,0.019,-0.00582911326369436));
#1236=CARTESIAN_POINT('',(0.0624136607544383,0.019,-0.00582911326369436));
#1237=CARTESIAN_POINT('',(0.0699136607544383,0.019,-0.00582911326369436));
#1238=CARTESIAN_POINT('',(0.0699136607544383,0.018,-0.00582911326369436));
#1239=CARTESIAN_POINT('',(0.0709136607544383,0.018,-0.00582911326369436));
#1240=CARTESIAN_POINT('',(0.0709136607544383,0.0325,-0.00582911326369436));
#1241=CARTESIAN_POINT('',(0.0719136607544383,0.0325,-0.00932911326369436));
#1242=CARTESIAN_POINT('',(0.0719136607544383,0.064,-0.00932911326369436));
#1243=CARTESIAN_POINT('',(0.0719136607544383,0.064,-0.0138291132636944));
#1244=CARTESIAN_POINT('',(0.0719136607544383,0.064,-0.00682911326369436));
#1245=CARTESIAN_POINT('',(0.0719136607544383,0.0325,-0.00682911326369436));
#1246=CARTESIAN_POINT('',(0.0719136607544383,0.001,-0.00682911326369436));
#1247=CARTESIAN_POINT('',(0.0719136607544383,0.001,-0.0148291132636944));
#1248=CARTESIAN_POINT('',(0.0719136607544383,0.001,-0.0138291132636944));
#1249=CARTESIAN_POINT('',(0.0719136607544383,0.0325,-0.0138291132636944));
#1250=CARTESIAN_POINT('',(0.0709136607544383,0.001,-0.00932911326369436));
#1251=CARTESIAN_POINT('',(0.0709136607544383,0.001,-0.00682911326369436));
#1252=CARTESIAN_POINT('',(0.0709136607544383,0.,-0.00682911326369436));
#1253=CARTESIAN_POINT('',(0.0709136607544383,0.,-0.00582911326369436));
#1254=CARTESIAN_POINT('',(0.0709136607544383,0.,-0.0138291132636944));
#1255=CARTESIAN_POINT('',(0.0709136607544383,0.001,-0.0138291132636944));
#1256=CARTESIAN_POINT('',(-0.0160863392455616,0.064,-0.0138291132636944));
#1257=CARTESIAN_POINT('',(0.0639136607544383,0.064,-0.0138291132636944));
#1258=CARTESIAN_POINT('',(0.0639136607544383,0.065,-0.0138291132636944));
#1259=CARTESIAN_POINT('',(0.0629136607544383,0.064,-0.0128291132636944));
#1260=CARTESIAN_POINT('',(0.0629136607544383,0.064,-0.0128291132636944));
#1261=CARTESIAN_POINT('',(0.0689136607544383,0.064,-0.0128291132636944));
#1262=CARTESIAN_POINT('',(0.0699136607544383,0.064,-0.0138291132636944));
#1263=CARTESIAN_POINT('',(0.0699136607544383,0.065,-0.0138291132636944));
#1264=CARTESIAN_POINT('',(0.0689136607544383,0.065,-0.0138291132636944));
#1265=CARTESIAN_POINT('',(0.0639136607544383,0.064,-0.00582911326369436));
#1266=CARTESIAN_POINT('',(0.0639136607544383,0.064,-0.0138291132636944));
#1267=CARTESIAN_POINT('',(0.0629136607544383,0.064,-0.0138291132636944));
#1268=CARTESIAN_POINT('',(0.0639136607544383,0.065,-0.0148291132636944));
#1269=CARTESIAN_POINT('',(0.0629136607544383,0.064,-0.0148291132636944));
#1270=CARTESIAN_POINT('',(0.0639136607544383,0.065,-0.00582911326369436));
#1271=CARTESIAN_POINT('',(0.0709136607544383,0.064,-0.00582911326369436));
#1272=CARTESIAN_POINT('',(0.0709136607544383,0.064,-0.00682911326369436));
#1273=CARTESIAN_POINT('',(0.0709136607544383,0.065,-0.00682911326369436));
#1274=CARTESIAN_POINT('',(0.0709136607544383,0.064,-0.0138291132636944));
#1275=CARTESIAN_POINT('',(0.0709136607544383,0.065,-0.0148291132636944));
#1276=CARTESIAN_POINT('',(0.0709136607544383,0.065,-0.00582911326369436));
#1277=CARTESIAN_POINT('',(0.0709136607544383,0.0325,-0.00682911326369436));
#1278=CARTESIAN_POINT('',(0.0709136607544383,0.064,-0.00682911326369436));
#1279=CARTESIAN_POINT('',(0.0709136607544383,0.0175,-0.00582911326369436));
#1280=CARTESIAN_POINT('',(0.0709136607544383,0.017,-0.00582911326369436));
#1281=CARTESIAN_POINT('',(0.0709136607544383,0.0325,-0.00582911326369436));
#1282=CARTESIAN_POINT('',(0.0709136607544383,0.001,-0.00582911326369436));
#1283=CARTESIAN_POINT('',(0.0709136607544383,0.001,-0.00682911326369436));
#1284=CARTESIAN_POINT('',(0.0629136607544383,0.0325,-0.0148291132636944));
#1285=CARTESIAN_POINT('',(0.0629136607544383,0.0325,-0.0128291132636944));
#1286=CARTESIAN_POINT('',(0.0629136607544383,0.003,-0.0128291132636944));
#1287=CARTESIAN_POINT('',(0.0629136607544383,0.0325,-0.0138291132636944));
#1288=CARTESIAN_POINT('',(0.0629136607544383,0.003,-0.0138291132636944));
#1289=CARTESIAN_POINT('',(0.0629136607544383,0.003,-0.0148291132636944));
#1290=CARTESIAN_POINT('',(-0.0160863392455616,0.0325,-0.0128291132636944));
#1291=CARTESIAN_POINT('',(0.0689136607544383,0.003,-0.0128291132636944));
#1292=CARTESIAN_POINT('',(0.0689136607544383,0.003,-0.0128291132636944));
#1293=CARTESIAN_POINT('',(-0.0160863392455616,0.003,-0.0128291132636944));
#1294=CARTESIAN_POINT('',(0.0689136607544383,0.0325,-0.00932911326369436));
#1295=CARTESIAN_POINT('',(0.0689136607544383,0.003,-0.00882911326369436));
#1296=CARTESIAN_POINT('',(0.0689136607544383,0.064,-0.00882911326369436));
#1297=CARTESIAN_POINT('',(0.0689136607544383,0.003,-0.00882911326369436));
#1298=CARTESIAN_POINT('',(0.0689136607544383,0.064,-0.0128291132636944));
#1299=CARTESIAN_POINT('',(0.0689136607544383,0.003,-0.0108291132636944));
#1300=CARTESIAN_POINT('',(0.0709136607544383,0.0325,-0.0138291132636944));
#1301=CARTESIAN_POINT('',(0.0709136607544383,0.001,-0.0138291132636944));
#1302=CARTESIAN_POINT('',(0.0709136607544383,0.001,-0.0148291132636944));
#1303=CARTESIAN_POINT('',(0.0709136607544383,0.0325,-0.0148291132636944));
#1304=CARTESIAN_POINT('',(0.0639136607544383,0.0325,-0.0138291132636944));
#1305=CARTESIAN_POINT('',(0.0639136607544383,0.0325,-0.0148291132636944));
#1306=CARTESIAN_POINT('',(0.0639136607544383,0.002,-0.0148291132636944));
#1307=CARTESIAN_POINT('',(0.0639136607544383,0.002,-0.0138291132636944));
#1308=CARTESIAN_POINT('',(0.0699136607544383,0.064,-0.00932911326369436));
#1309=CARTESIAN_POINT('',(0.0699136607544383,0.064,-0.00782911326369436));
#1310=CARTESIAN_POINT('',(0.0699136607544383,0.065,-0.00782911326369436));
#1311=CARTESIAN_POINT('',(0.0699136607544383,0.065,-0.00882911326369436));
#1312=CARTESIAN_POINT('',(0.0709136607544383,0.064,-0.00682911326369436));
#1313=CARTESIAN_POINT('',(0.0709136607544383,0.064,-0.00682911326369436));
#1314=CARTESIAN_POINT('',(0.0709136607544383,0.001,-0.00682911326369436));
#1315=CARTESIAN_POINT('',(0.0709136607544383,0.001,-0.00682911326369436));
#1316=CARTESIAN_POINT('',(0.0709136607544383,0.001,-0.0138291132636944));
#1317=CARTESIAN_POINT('',(0.0709136607544383,0.001,-0.0138291132636944));
#1318=CARTESIAN_POINT('',(-0.0160863392455616,0.001,-0.00682911326369436));
#1319=CARTESIAN_POINT('',(0.0719136607544383,0.001,-0.00582911326369436));
#1320=CARTESIAN_POINT('',(0.0549136607544383,0.001,-0.00582911326369436));
#1321=CARTESIAN_POINT('',(0.0549136607544383,0.001,-0.00682911326369436));
#1322=CARTESIAN_POINT('',(0.0549136607544384,0.,-0.00682911326369436));
#1323=CARTESIAN_POINT('',(-0.104086339245562,0.,-0.00682911326369436));
#1324=CARTESIAN_POINT('',(-0.0160863392455616,0.064,-0.00682911326369436));
#1325=CARTESIAN_POINT('',(-0.0160863392455616,0.065,-0.00682911326369436));
#1326=CARTESIAN_POINT('',(0.0549136607544383,0.065,-0.00682911326369436));
#1327=CARTESIAN_POINT('',(0.0549136607544383,0.064,-0.00682911326369436));
#1328=CARTESIAN_POINT('',(-0.0160863392455616,0.0325,-0.00582911326369436));
#1329=CARTESIAN_POINT('',(0.0624136607544383,0.016,-0.00582911326369436));
#1330=CARTESIAN_POINT('',(0.0549136607544383,0.016,-0.00582911326369436));
#1331=CARTESIAN_POINT('',(0.0699136607544383,0.016,-0.00582911326369436));
#1332=CARTESIAN_POINT('',(0.0549136607544383,0.0325,-0.00582911326369436));
#1333=CARTESIAN_POINT('',(0.0699136607544383,0.017,-0.00582911326369436));
#1334=CARTESIAN_POINT('',(-0.0160863392455616,0.064,-0.00782911326369436));
#1335=CARTESIAN_POINT('',(0.0689136607544383,0.064,-0.00882911326369436));
#1336=CARTESIAN_POINT('',(0.0549136607544383,0.064,-0.00882911326369436));
#1337=CARTESIAN_POINT('',(0.0549136607544383,0.064,-0.00782911326369436));
#1338=CARTESIAN_POINT('',(0.0549136607544384,0.065,-0.00782911326369436));
#1339=CARTESIAN_POINT('',(-0.101086339245562,0.065,-0.00782911326369436));
#1340=CARTESIAN_POINT('',(-0.0160863392455616,0.0325,-0.00882911326369436));
#1341=CARTESIAN_POINT('',(-0.0160863392455616,0.003,-0.00882911326369436));
#1342=CARTESIAN_POINT('',(0.0549136607544383,0.003,-0.00882911326369436));
#1343=CARTESIAN_POINT('',(0.0549136607544383,0.064,-0.00882911326369436));
#1344=CARTESIAN_POINT('',(-0.0160863392455616,0.002,-0.0138291132636944));
#1345=CARTESIAN_POINT('',(-0.0160863392455616,0.002,-0.0148291132636944));
#1346=CARTESIAN_POINT('',(0.0549136607544383,0.002,-0.0148291132636944));
#1347=CARTESIAN_POINT('',(0.0549136607544383,0.002,-0.0138291132636944));
#1348=CARTESIAN_POINT('',(0.0549136607544383,0.003,-0.0138291132636944));
#1349=CARTESIAN_POINT('',(-0.0160863392455616,0.003,-0.0138291132636944));
#1350=CARTESIAN_POINT('',(-0.0160863392455616,0.001,-0.0138291132636944));
#1351=CARTESIAN_POINT('',(0.0719136607544383,0.,-0.0138291132636944));
#1352=CARTESIAN_POINT('',(0.0549136607544383,0.,-0.0138291132636944));
#1353=CARTESIAN_POINT('',(0.0549136607544383,0.001,-0.0138291132636944));
#1354=CARTESIAN_POINT('',(0.0549136607544384,0.001,-0.0148291132636944));
#1355=CARTESIAN_POINT('',(-0.104086339245562,0.001,-0.0148291132636944));
#1356=CARTESIAN_POINT('',(-0.0160863392455616,0.0325,-0.0148291132636944));
#1357=CARTESIAN_POINT('',(0.0549136607544383,0.0325,-0.0148291132636944));
#1358=CARTESIAN_POINT('',(0.0674136607544383,0.065,-0.0148291132636944));
#1359=CARTESIAN_POINT('',(-0.0160863392455616,0.003,-0.0108291132636944));
#1360=CARTESIAN_POINT('',(0.0549136607544383,0.003,-0.0108291132636944));
#1361=CARTESIAN_POINT('',(-0.0160863392455616,0.065,-0.00582911326369436));
#1362=CARTESIAN_POINT('',(0.0549136607544383,0.065,-0.00582911326369436));
#1363=CARTESIAN_POINT('',(-0.0160863392455616,0.,-0.0108291132636944));
#1364=CARTESIAN_POINT('',(0.0549136607544383,0.,-0.0138291132636944));
#1365=CARTESIAN_POINT('',(0.0539136607544383,0.009,-0.0308291132636943));
#1366=CARTESIAN_POINT('',(0.0539136607544383,0.009,-0.00682911326369436));
#1367=CARTESIAN_POINT('',(0.0539136607544383,0.001,-0.00682911326369436));
#1368=CARTESIAN_POINT('',(0.0539136607544383,0.017,-0.00682911326369436));
#1369=CARTESIAN_POINT('',(0.0539136607544383,0.017,0.0101708867363056));
#1370=CARTESIAN_POINT('',(0.0539136607544383,0.017,0.0101708867363056));
#1371=CARTESIAN_POINT('',(0.0539136607544383,0.0175,0.0101708867363056));
#1372=CARTESIAN_POINT('',(0.0539136607544383,0.018,0.0101708867363056));
#1373=CARTESIAN_POINT('',(0.0539136607544383,0.018,-0.0308291132636943));
#1374=CARTESIAN_POINT('',(0.0539136607544383,0.018,-0.00682911326369436));
#1375=CARTESIAN_POINT('',(0.0539136607544383,0.009,-0.00682911326369436));
#1376=CARTESIAN_POINT('',(0.0539136607544383,0.064,-0.00682911326369436));
#1377=CARTESIAN_POINT('',(0.0539136607544383,0.064,-0.0308291132636943));
#1378=CARTESIAN_POINT('',(0.0539136607544383,0.064,-0.00782911326369436));
#1379=CARTESIAN_POINT('',(0.0539136607544383,0.003,-0.00782911326369436));
#1380=CARTESIAN_POINT('',(0.0539136607544383,0.002,-0.00782911326369436));
#1381=CARTESIAN_POINT('',(0.0539136607544383,0.002,-0.0308291132636943));
#1382=CARTESIAN_POINT('',(0.0539136607544383,0.002,-0.0138291132636944));
#1383=CARTESIAN_POINT('',(0.0539136607544383,0.009,-0.0138291132636944));
#1384=CARTESIAN_POINT('',(0.0539136607544383,0.001,-0.0138291132636944));
#1385=CARTESIAN_POINT('',(0.0539136607544383,0.001,-0.00682911326369436));
#1386=CARTESIAN_POINT('',(0.0624136607544383,0.016,0.0101708867363056));
#1387=CARTESIAN_POINT('',(0.0664136607544383,0.016,0.00217088673630564));
#1388=CARTESIAN_POINT('',(0.0689136607544383,0.016,0.00217088673630564));
#1389=CARTESIAN_POINT('',(0.0584136607544383,0.016,0.00217088673630564));
#1390=CARTESIAN_POINT('',(0.0609136607544383,0.016,0.00217088673630564));
#1391=CARTESIAN_POINT('',(0.0699136607544383,0.016,0.0101708867363056));
#1392=CARTESIAN_POINT('',(0.0699136607544383,0.016,0.00917088673630564));
#1393=CARTESIAN_POINT('',(0.0539136607544383,0.016,0.00917088673630564));
#1394=CARTESIAN_POINT('',(0.0549136607544383,0.016,0.00917088673630564));
#1395=CARTESIAN_POINT('',(0.0549136607544383,0.016,-0.00582911326369436));
#1396=CARTESIAN_POINT('',(0.0709136607544383,0.0175,0.0101708867363056));
#1397=CARTESIAN_POINT('',(0.0709136607544383,0.018,0.0101708867363056));
#1398=CARTESIAN_POINT('',(0.0709136607544383,0.018,0.0101708867363056));
#1399=CARTESIAN_POINT('',(0.0709136607544383,0.0175,0.0101708867363056));
#1400=CARTESIAN_POINT('',(0.0709136607544383,0.017,0.0101708867363056));
#1401=CARTESIAN_POINT('',(0.0709136607544383,0.017,-0.00582911326369436));
#1402=CARTESIAN_POINT('',(0.0624136607544383,0.019,0.0101708867363056));
#1403=CARTESIAN_POINT('',(0.0664136607544383,0.019,0.00217088673630564));
#1404=CARTESIAN_POINT('',(0.0689136607544383,0.019,0.00217088673630564));
#1405=CARTESIAN_POINT('',(0.0584136607544383,0.019,0.00217088673630564));
#1406=CARTESIAN_POINT('',(0.0609136607544383,0.019,0.00217088673630564));
#1407=CARTESIAN_POINT('',(0.0549136607544383,0.019,0.0101708867363056));
#1408=CARTESIAN_POINT('',(0.0549136607544383,0.019,0.00917088673630564));
#1409=CARTESIAN_POINT('',(0.0624136607544383,0.019,0.00917088673630564));
#1410=CARTESIAN_POINT('',(0.0699136607544383,0.019,0.00917088673630564));
#1411=CARTESIAN_POINT('',(0.0699136607544383,0.019,0.0101708867363056));
#1412=CARTESIAN_POINT('',(-0.0160863392455616,0.0325,0.0101708867363056));
#1413=CARTESIAN_POINT('',(-0.0160863392455616,0.018,0.0101708867363056));
#1414=CARTESIAN_POINT('',(0.0709136607544383,0.017,0.0101708867363056));
#1415=CARTESIAN_POINT('',(0.0699136607544383,0.018,0.0101708867363056));
#1416=CARTESIAN_POINT('',(0.0699136607544383,0.018,0.00917088673630564));
#1417=CARTESIAN_POINT('',(0.0624136607544383,0.018,0.00917088673630564));
#1418=CARTESIAN_POINT('',(0.0549136607544383,0.018,0.00917088673630564));
#1419=CARTESIAN_POINT('',(0.0549136607544383,0.018,-0.0308291132636943));
#1420=CARTESIAN_POINT('',(0.0549136607544383,0.018,-0.00682911326369436));
#1421=CARTESIAN_POINT('',(0.0549136607544383,0.017,0.0101708867363056));
#1422=CARTESIAN_POINT('',(0.0549136607544383,0.017,-0.00682911326369436));
#1423=CARTESIAN_POINT('',(0.0549136607544383,0.017,0.00917088673630564));
#1424=CARTESIAN_POINT('',(-0.0160863392455616,0.017,0.00917088673630564));
#1425=CARTESIAN_POINT('',(0.0699136607544383,0.017,0.00917088673630564));
#1426=CARTESIAN_POINT('',(0.0699136607544383,0.017,0.0101708867363056));
#1427=CARTESIAN_POINT('',(0.0664136607544383,-0.006,0.00217088673630564));
#1428=CARTESIAN_POINT('',(0.0664136607544383,0.018,0.00217088673630564));
#1429=CARTESIAN_POINT('',(0.0679136607544383,0.018,0.00217088673630564));
#1430=CARTESIAN_POINT('',(0.0664136607544383,0.017,0.00217088673630564));
#1431=CARTESIAN_POINT('',(0.0679136607544383,0.017,0.00217088673630564));
#1432=CARTESIAN_POINT('',(0.0584136607544383,-0.006,0.00217088673630564));
#1433=CARTESIAN_POINT('',(0.0584136607544383,0.018,0.00217088673630564));
#1434=CARTESIAN_POINT('',(0.0599136607544383,0.018,0.00217088673630564));
#1435=CARTESIAN_POINT('',(0.0584136607544383,0.017,0.00217088673630564));
#1436=CARTESIAN_POINT('',(0.0599136607544383,0.017,0.00217088673630564));
#1437=CARTESIAN_POINT('',(0.0664136607544383,0.018,0.00217088673630564));
#1438=CARTESIAN_POINT('',(0.0664136607544383,0.017,0.00217088673630564));
#1439=CARTESIAN_POINT('',(0.0584136607544383,0.018,0.00217088673630564));
#1440=CARTESIAN_POINT('',(0.0584136607544383,0.017,0.00217088673630564));
#1441=CARTESIAN_POINT('',(0.0549136607544383,0.0325,-0.00682911326369436));
#1442=CARTESIAN_POINT('',(0.0549136607544383,0.001,-0.00682911326369436));
#1443=CARTESIAN_POINT('',(0.0549136607544383,0.001,-0.00682911326369436));
#1444=CARTESIAN_POINT('',(0.0549136607544383,0.001,-0.00682911326369436));
#1445=CARTESIAN_POINT('',(0.0549136607544383,0.001,-0.0308291132636943));
#1446=CARTESIAN_POINT('',(0.0549136607544383,0.001,-0.0138291132636944));
#1447=CARTESIAN_POINT('',(0.0549136607544383,0.001,-0.0138291132636944));
#1448=CARTESIAN_POINT('',(0.0549136607544383,0.001,-0.0138291132636944));
#1449=CARTESIAN_POINT('',(0.0549136607544383,0.0325,-0.0138291132636944));
#1450=CARTESIAN_POINT('',(0.0549136607544383,0.002,-0.0138291132636944));
#1451=CARTESIAN_POINT('',(0.0549136607544383,0.002,-0.0138291132636944));
#1452=CARTESIAN_POINT('',(0.0549136607544383,0.002,-0.0138291132636944));
#1453=CARTESIAN_POINT('',(0.0549136607544383,0.002,-0.0108291132636944));
#1454=CARTESIAN_POINT('',(0.0549136607544383,0.002,-0.00782911326369436));
#1455=CARTESIAN_POINT('',(0.0549136607544383,0.009,-0.00782911326369436));
#1456=CARTESIAN_POINT('',(0.0549136607544383,0.064,-0.00782911326369436));
#1457=CARTESIAN_POINT('',(0.0549136607544383,0.064,-0.00782911326369436));
#1458=CARTESIAN_POINT('',(0.0549136607544383,0.064,-0.00782911326369436));
#1459=CARTESIAN_POINT('',(0.0549136607544383,0.064,-0.00582911326369436));
#1460=CARTESIAN_POINT('',(0.0549136607544383,0.064,-0.00682911326369436));
#1461=CARTESIAN_POINT('',(0.0549136607544383,0.064,-0.00682911326369436));
#1462=CARTESIAN_POINT('',(0.0549136607544383,0.064,-0.00682911326369436));
#1463=CARTESIAN_POINT('',(0.0549136607544383,0.0325,-0.00682911326369436));
#1464=MECHANICAL_DESIGN_GEOMETRIC_PRESENTATION_REPRESENTATION('',(#840),
#1465);
#1465=(
GEOMETRIC_REPRESENTATION_CONTEXT(3)
GLOBAL_UNCERTAINTY_ASSIGNED_CONTEXT((#1466))
GLOBAL_UNIT_ASSIGNED_CONTEXT((#1469,#1468,#1467))
REPRESENTATION_CONTEXT('Part 1','TOP_LEVEL_ASSEMBLY_PART')
);
#1466=UNCERTAINTY_MEASURE_WITH_UNIT(LENGTH_MEASURE(1.E-8),#1469,
'DISTANCE_ACCURACY_VALUE','Maximum Tolerance applied to model');
#1467=(
NAMED_UNIT(*)
SI_UNIT($,.STERADIAN.)
SOLID_ANGLE_UNIT()
);
#1468=(
NAMED_UNIT(*)
PLANE_ANGLE_UNIT()
SI_UNIT($,.RADIAN.)
);
#1469=(
LENGTH_UNIT()
NAMED_UNIT(*)
SI_UNIT($,.METRE.)
);
#1470=PRODUCT_DEFINITION_SHAPE('','',#1471);
#1471=PRODUCT_DEFINITION('','',#1473,#1472);
#1472=PRODUCT_DEFINITION_CONTEXT('',#1479,'design');
#1473=PRODUCT_DEFINITION_FORMATION_WITH_SPECIFIED_SOURCE('','',#1475,
 .NOT_KNOWN.);
#1474=PRODUCT_RELATED_PRODUCT_CATEGORY('','',(#1475));
#1475=PRODUCT('Part 1','Part 1','Part 1',(#1477));
#1476=PRODUCT_CATEGORY('','');
#1477=PRODUCT_CONTEXT('',#1479,'mechanical');
#1478=APPLICATION_PROTOCOL_DEFINITION('international standard',
'ap242_managed_model_based_3d_engineering',2020,#1479);
#1479=APPLICATION_CONTEXT('managed model based 3d engineering');
ENDSEC;
END-ISO-10303-21;
