ISO-10303-21;
HEADER;
/* Generated by software containing ST-Developer
 * from STEP Tools, Inc. (www.steptools.com) 
 */
/* OPTION: using custom renumber hook */

FILE_DESCRIPTION(
/* description */ ('STEP AP242 Edition 2',
'CAx-IF Rec.Pracs.---Representation and Presentation of Product Manufa
cturing Information (PMI)---4.0---2014-10-13',
'CAx-IF Rec.Pracs.---3D Tessellated Geometry---0.4---2014-09-14','2;1',
'CAx-IF Rec.Pracs.---User Defined Attributes---1.5---2016-08-15'),
/* implementation_level */ '2;1');

FILE_NAME(
/* name */ '696a6274561c4703c7cf80c7',
/* time_stamp */ '2026-01-16T16:08:20Z',
/* author */ (''),
/* organization */ (''),
/* preprocessor_version */ 'ST-DEVELOPER v20',
/* originating_system */ 'ONSHAPE BY PTC INC, 1.209',
/* authorisation */ '  ');

FILE_SCHEMA (('AP242_MANAGED_MODEL_BASED_3D_ENGINEERING_MIM_LF { 1 0 10303 442 3 1 4 }'));
ENDSEC;

DATA;
#10=SHAPE_REPRESENTATION_RELATIONSHIP('','',#870,#11);
#11=ADVANCED_BREP_SHAPE_REPRESENTATION('',(#868),#1508);
#12=TOROIDAL_SURFACE('',#954,0.0025,0.001);
#13=TOROIDAL_SURFACE('',#955,0.0025,0.001);
#14=TOROIDAL_SURFACE('',#956,0.0025,0.001);
#15=TOROIDAL_SURFACE('',#957,0.0025,0.001);
#16=SPHERICAL_SURFACE('',#901,0.001);
#17=SPHERICAL_SURFACE('',#905,0.001);
#18=SPHERICAL_SURFACE('',#915,0.001);
#19=SPHERICAL_SURFACE('',#917,0.001);
#20=SPHERICAL_SURFACE('',#923,0.001);
#21=SPHERICAL_SURFACE('',#960,0.001);
#22=SPHERICAL_SURFACE('',#966,0.001);
#23=SPHERICAL_SURFACE('',#968,0.001);
#24=SPHERICAL_SURFACE('',#974,0.001);
#25=SPHERICAL_SURFACE('',#976,0.001);
#26=ELLIPSE('',#887,0.00141421356237309,0.001);
#27=ELLIPSE('',#890,0.00141421356237309,0.001);
#28=ELLIPSE('',#894,0.00141421356237309,0.001);
#29=ELLIPSE('',#897,0.00141421356237309,0.001);
#30=ELLIPSE('',#937,0.00141421356237309,0.001);
#31=ELLIPSE('',#939,0.00141421356237309,0.001);
#32=ELLIPSE('',#940,0.00141421356237309,0.001);
#33=ELLIPSE('',#943,0.00141421356237309,0.001);
#34=ELLIPSE('',#945,0.00141421356237309,0.001);
#35=ELLIPSE('',#947,0.00141421356237309,0.001);
#36=ELLIPSE('',#979,0.00141421356237309,0.001);
#37=CYLINDRICAL_SURFACE('',#885,0.001);
#38=CYLINDRICAL_SURFACE('',#888,0.001);
#39=CYLINDRICAL_SURFACE('',#891,0.001);
#40=CYLINDRICAL_SURFACE('',#893,0.001);
#41=CYLINDRICAL_SURFACE('',#896,0.001);
#42=CYLINDRICAL_SURFACE('',#898,0.001);
#43=CYLINDRICAL_SURFACE('',#903,0.001);
#44=CYLINDRICAL_SURFACE('',#908,0.001);
#45=CYLINDRICAL_SURFACE('',#910,0.001);
#46=CYLINDRICAL_SURFACE('',#912,0.001);
#47=CYLINDRICAL_SURFACE('',#919,0.001);
#48=CYLINDRICAL_SURFACE('',#921,0.001);
#49=CYLINDRICAL_SURFACE('',#925,0.001);
#50=CYLINDRICAL_SURFACE('',#936,0.001);
#51=CYLINDRICAL_SURFACE('',#938,0.001);
#52=CYLINDRICAL_SURFACE('',#941,0.001);
#53=CYLINDRICAL_SURFACE('',#942,0.001);
#54=CYLINDRICAL_SURFACE('',#944,0.001);
#55=CYLINDRICAL_SURFACE('',#946,0.001);
#56=CYLINDRICAL_SURFACE('',#948,0.0015);
#57=CYLINDRICAL_SURFACE('',#951,0.0015);
#58=CYLINDRICAL_SURFACE('',#958,0.001);
#59=CYLINDRICAL_SURFACE('',#962,0.001);
#60=CYLINDRICAL_SURFACE('',#964,0.001);
#61=CYLINDRICAL_SURFACE('',#970,0.001);
#62=CYLINDRICAL_SURFACE('',#972,0.001);
#63=CYLINDRICAL_SURFACE('',#978,0.001);
#64=CYLINDRICAL_SURFACE('',#980,0.001);
#65=CIRCLE('',#873,0.001);
#66=CIRCLE('',#879,0.001);
#67=CIRCLE('',#886,0.001);
#68=CIRCLE('',#889,0.001);
#69=CIRCLE('',#892,0.001);
#70=CIRCLE('',#895,0.001);
#71=CIRCLE('',#899,0.001);
#72=CIRCLE('',#900,0.001);
#73=CIRCLE('',#902,0.001);
#74=CIRCLE('',#904,0.001);
#75=CIRCLE('',#906,0.001);
#76=CIRCLE('',#907,0.001);
#77=CIRCLE('',#909,0.001);
#78=CIRCLE('',#911,0.001);
#79=CIRCLE('',#913,0.001);
#80=CIRCLE('',#914,0.001);
#81=CIRCLE('',#916,0.001);
#82=CIRCLE('',#918,0.001);
#83=CIRCLE('',#920,0.001);
#84=CIRCLE('',#922,0.001);
#85=CIRCLE('',#924,0.001);
#86=CIRCLE('',#926,0.001);
#87=CIRCLE('',#930,0.0025);
#88=CIRCLE('',#931,0.0025);
#89=CIRCLE('',#933,0.0025);
#90=CIRCLE('',#934,0.0025);
#91=CIRCLE('',#949,0.0015);
#92=CIRCLE('',#950,0.0015);
#93=CIRCLE('',#952,0.0015);
#94=CIRCLE('',#953,0.0015);
#95=CIRCLE('',#959,0.001);
#96=CIRCLE('',#961,0.001);
#97=CIRCLE('',#963,0.001);
#98=CIRCLE('',#965,0.001);
#99=CIRCLE('',#967,0.001);
#100=CIRCLE('',#969,0.001);
#101=CIRCLE('',#971,0.001);
#102=CIRCLE('',#973,0.001);
#103=CIRCLE('',#975,0.001);
#104=CIRCLE('',#977,0.001);
#105=ORIENTED_EDGE('',*,*,#337,.F.);
#106=ORIENTED_EDGE('',*,*,#338,.T.);
#107=ORIENTED_EDGE('',*,*,#339,.T.);
#108=ORIENTED_EDGE('',*,*,#340,.T.);
#109=ORIENTED_EDGE('',*,*,#341,.T.);
#110=ORIENTED_EDGE('',*,*,#342,.T.);
#111=ORIENTED_EDGE('',*,*,#343,.T.);
#112=ORIENTED_EDGE('',*,*,#344,.T.);
#113=ORIENTED_EDGE('',*,*,#345,.F.);
#114=ORIENTED_EDGE('',*,*,#346,.T.);
#115=ORIENTED_EDGE('',*,*,#347,.T.);
#116=ORIENTED_EDGE('',*,*,#348,.T.);
#117=ORIENTED_EDGE('',*,*,#345,.T.);
#118=ORIENTED_EDGE('',*,*,#349,.T.);
#119=ORIENTED_EDGE('',*,*,#350,.F.);
#120=ORIENTED_EDGE('',*,*,#351,.T.);
#121=ORIENTED_EDGE('',*,*,#352,.T.);
#122=ORIENTED_EDGE('',*,*,#353,.T.);
#123=ORIENTED_EDGE('',*,*,#354,.T.);
#124=ORIENTED_EDGE('',*,*,#355,.T.);
#125=ORIENTED_EDGE('',*,*,#356,.T.);
#126=ORIENTED_EDGE('',*,*,#357,.T.);
#127=ORIENTED_EDGE('',*,*,#358,.T.);
#128=ORIENTED_EDGE('',*,*,#359,.T.);
#129=ORIENTED_EDGE('',*,*,#360,.T.);
#130=ORIENTED_EDGE('',*,*,#361,.T.);
#131=ORIENTED_EDGE('',*,*,#362,.T.);
#132=ORIENTED_EDGE('',*,*,#363,.F.);
#133=ORIENTED_EDGE('',*,*,#364,.T.);
#134=ORIENTED_EDGE('',*,*,#365,.T.);
#135=ORIENTED_EDGE('',*,*,#366,.T.);
#136=ORIENTED_EDGE('',*,*,#367,.T.);
#137=ORIENTED_EDGE('',*,*,#346,.F.);
#138=ORIENTED_EDGE('',*,*,#368,.F.);
#139=ORIENTED_EDGE('',*,*,#369,.F.);
#140=ORIENTED_EDGE('',*,*,#370,.T.);
#141=ORIENTED_EDGE('',*,*,#368,.T.);
#142=ORIENTED_EDGE('',*,*,#350,.T.);
#143=ORIENTED_EDGE('',*,*,#371,.T.);
#144=ORIENTED_EDGE('',*,*,#372,.T.);
#145=ORIENTED_EDGE('',*,*,#373,.T.);
#146=ORIENTED_EDGE('',*,*,#374,.T.);
#147=ORIENTED_EDGE('',*,*,#375,.T.);
#148=ORIENTED_EDGE('',*,*,#376,.T.);
#149=ORIENTED_EDGE('',*,*,#377,.T.);
#150=ORIENTED_EDGE('',*,*,#378,.T.);
#151=ORIENTED_EDGE('',*,*,#379,.T.);
#152=ORIENTED_EDGE('',*,*,#380,.T.);
#153=ORIENTED_EDGE('',*,*,#344,.F.);
#154=ORIENTED_EDGE('',*,*,#381,.T.);
#155=ORIENTED_EDGE('',*,*,#369,.T.);
#156=ORIENTED_EDGE('',*,*,#349,.F.);
#157=ORIENTED_EDGE('',*,*,#348,.F.);
#158=ORIENTED_EDGE('',*,*,#382,.T.);
#159=ORIENTED_EDGE('',*,*,#375,.F.);
#160=ORIENTED_EDGE('',*,*,#383,.F.);
#161=ORIENTED_EDGE('',*,*,#357,.F.);
#162=ORIENTED_EDGE('',*,*,#384,.T.);
#163=ORIENTED_EDGE('',*,*,#366,.F.);
#164=ORIENTED_EDGE('',*,*,#385,.F.);
#165=ORIENTED_EDGE('',*,*,#383,.T.);
#166=ORIENTED_EDGE('',*,*,#380,.F.);
#167=ORIENTED_EDGE('',*,*,#386,.F.);
#168=ORIENTED_EDGE('',*,*,#342,.F.);
#169=ORIENTED_EDGE('',*,*,#387,.F.);
#170=ORIENTED_EDGE('',*,*,#343,.F.);
#171=ORIENTED_EDGE('',*,*,#388,.F.);
#172=ORIENTED_EDGE('',*,*,#385,.T.);
#173=ORIENTED_EDGE('',*,*,#370,.F.);
#174=ORIENTED_EDGE('',*,*,#389,.F.);
#175=ORIENTED_EDGE('',*,*,#358,.F.);
#176=ORIENTED_EDGE('',*,*,#339,.F.);
#177=ORIENTED_EDGE('',*,*,#390,.T.);
#178=ORIENTED_EDGE('',*,*,#355,.F.);
#179=ORIENTED_EDGE('',*,*,#391,.F.);
#180=ORIENTED_EDGE('',*,*,#388,.T.);
#181=ORIENTED_EDGE('',*,*,#386,.T.);
#182=ORIENTED_EDGE('',*,*,#392,.F.);
#183=ORIENTED_EDGE('',*,*,#381,.F.);
#184=ORIENTED_EDGE('',*,*,#387,.T.);
#185=ORIENTED_EDGE('',*,*,#392,.T.);
#186=ORIENTED_EDGE('',*,*,#379,.F.);
#187=ORIENTED_EDGE('',*,*,#393,.F.);
#188=ORIENTED_EDGE('',*,*,#359,.F.);
#189=ORIENTED_EDGE('',*,*,#389,.T.);
#190=ORIENTED_EDGE('',*,*,#394,.F.);
#191=ORIENTED_EDGE('',*,*,#391,.T.);
#192=ORIENTED_EDGE('',*,*,#395,.F.);
#193=ORIENTED_EDGE('',*,*,#395,.T.);
#194=ORIENTED_EDGE('',*,*,#360,.F.);
#195=ORIENTED_EDGE('',*,*,#396,.F.);
#196=ORIENTED_EDGE('',*,*,#371,.F.);
#197=ORIENTED_EDGE('',*,*,#394,.T.);
#198=ORIENTED_EDGE('',*,*,#374,.F.);
#199=ORIENTED_EDGE('',*,*,#397,.F.);
#200=ORIENTED_EDGE('',*,*,#365,.F.);
#201=ORIENTED_EDGE('',*,*,#398,.F.);
#202=ORIENTED_EDGE('',*,*,#340,.F.);
#203=ORIENTED_EDGE('',*,*,#353,.F.);
#204=ORIENTED_EDGE('',*,*,#399,.T.);
#205=ORIENTED_EDGE('',*,*,#361,.F.);
#206=ORIENTED_EDGE('',*,*,#400,.F.);
#207=ORIENTED_EDGE('',*,*,#396,.T.);
#208=ORIENTED_EDGE('',*,*,#393,.T.);
#209=ORIENTED_EDGE('',*,*,#401,.F.);
#210=ORIENTED_EDGE('',*,*,#400,.T.);
#211=ORIENTED_EDGE('',*,*,#397,.T.);
#212=ORIENTED_EDGE('',*,*,#402,.F.);
#213=ORIENTED_EDGE('',*,*,#401,.T.);
#214=ORIENTED_EDGE('',*,*,#378,.F.);
#215=ORIENTED_EDGE('',*,*,#403,.F.);
#216=ORIENTED_EDGE('',*,*,#372,.F.);
#217=ORIENTED_EDGE('',*,*,#402,.T.);
#218=ORIENTED_EDGE('',*,*,#373,.F.);
#219=ORIENTED_EDGE('',*,*,#404,.F.);
#220=ORIENTED_EDGE('',*,*,#354,.F.);
#221=ORIENTED_EDGE('',*,*,#404,.T.);
#222=ORIENTED_EDGE('',*,*,#403,.T.);
#223=ORIENTED_EDGE('',*,*,#405,.F.);
#224=ORIENTED_EDGE('',*,*,#377,.F.);
#225=ORIENTED_EDGE('',*,*,#406,.T.);
#226=ORIENTED_EDGE('',*,*,#351,.F.);
#227=ORIENTED_EDGE('',*,*,#405,.T.);
#228=ORIENTED_EDGE('',*,*,#407,.T.);
#229=ORIENTED_EDGE('',*,*,#408,.T.);
#230=ORIENTED_EDGE('',*,*,#409,.T.);
#231=ORIENTED_EDGE('',*,*,#410,.T.);
#232=ORIENTED_EDGE('',*,*,#411,.T.);
#233=ORIENTED_EDGE('',*,*,#412,.T.);
#234=ORIENTED_EDGE('',*,*,#413,.T.);
#235=ORIENTED_EDGE('',*,*,#414,.T.);
#236=ORIENTED_EDGE('',*,*,#415,.T.);
#237=ORIENTED_EDGE('',*,*,#416,.T.);
#238=ORIENTED_EDGE('',*,*,#398,.T.);
#239=ORIENTED_EDGE('',*,*,#417,.T.);
#240=ORIENTED_EDGE('',*,*,#418,.F.);
#241=ORIENTED_EDGE('',*,*,#419,.T.);
#242=ORIENTED_EDGE('',*,*,#420,.T.);
#243=ORIENTED_EDGE('',*,*,#421,.T.);
#244=ORIENTED_EDGE('',*,*,#422,.T.);
#245=ORIENTED_EDGE('',*,*,#423,.T.);
#246=ORIENTED_EDGE('',*,*,#363,.T.);
#247=ORIENTED_EDGE('',*,*,#424,.T.);
#248=ORIENTED_EDGE('',*,*,#425,.T.);
#249=ORIENTED_EDGE('',*,*,#426,.T.);
#250=ORIENTED_EDGE('',*,*,#427,.T.);
#251=ORIENTED_EDGE('',*,*,#428,.T.);
#252=ORIENTED_EDGE('',*,*,#337,.T.);
#253=ORIENTED_EDGE('',*,*,#429,.T.);
#254=ORIENTED_EDGE('',*,*,#418,.T.);
#255=ORIENTED_EDGE('',*,*,#430,.T.);
#256=ORIENTED_EDGE('',*,*,#416,.F.);
#257=ORIENTED_EDGE('',*,*,#431,.T.);
#258=ORIENTED_EDGE('',*,*,#364,.F.);
#259=ORIENTED_EDGE('',*,*,#423,.F.);
#260=ORIENTED_EDGE('',*,*,#432,.F.);
#261=ORIENTED_EDGE('',*,*,#417,.F.);
#262=ORIENTED_EDGE('',*,*,#424,.F.);
#263=ORIENTED_EDGE('',*,*,#433,.T.);
#264=ORIENTED_EDGE('',*,*,#407,.F.);
#265=ORIENTED_EDGE('',*,*,#434,.F.);
#266=ORIENTED_EDGE('',*,*,#432,.T.);
#267=ORIENTED_EDGE('',*,*,#422,.F.);
#268=ORIENTED_EDGE('',*,*,#434,.T.);
#269=ORIENTED_EDGE('',*,*,#430,.F.);
#270=ORIENTED_EDGE('',*,*,#341,.F.);
#271=ORIENTED_EDGE('',*,*,#419,.F.);
#272=ORIENTED_EDGE('',*,*,#435,.F.);
#273=ORIENTED_EDGE('',*,*,#429,.F.);
#274=ORIENTED_EDGE('',*,*,#435,.T.);
#275=ORIENTED_EDGE('',*,*,#431,.F.);
#276=ORIENTED_EDGE('',*,*,#436,.F.);
#277=ORIENTED_EDGE('',*,*,#427,.F.);
#278=ORIENTED_EDGE('',*,*,#436,.T.);
#279=ORIENTED_EDGE('',*,*,#415,.F.);
#280=ORIENTED_EDGE('',*,*,#437,.T.);
#281=ORIENTED_EDGE('',*,*,#428,.F.);
#282=ORIENTED_EDGE('',*,*,#438,.T.);
#283=ORIENTED_EDGE('',*,*,#439,.T.);
#284=ORIENTED_EDGE('',*,*,#440,.T.);
#285=ORIENTED_EDGE('',*,*,#441,.T.);
#286=ORIENTED_EDGE('',*,*,#425,.F.);
#287=ORIENTED_EDGE('',*,*,#440,.F.);
#288=ORIENTED_EDGE('',*,*,#441,.F.);
#289=ORIENTED_EDGE('',*,*,#420,.F.);
#290=ORIENTED_EDGE('',*,*,#426,.F.);
#291=ORIENTED_EDGE('',*,*,#438,.F.);
#292=ORIENTED_EDGE('',*,*,#439,.F.);
#293=ORIENTED_EDGE('',*,*,#421,.F.);
#294=ORIENTED_EDGE('',*,*,#433,.F.);
#295=ORIENTED_EDGE('',*,*,#362,.F.);
#296=ORIENTED_EDGE('',*,*,#442,.F.);
#297=ORIENTED_EDGE('',*,*,#408,.F.);
#298=ORIENTED_EDGE('',*,*,#442,.T.);
#299=ORIENTED_EDGE('',*,*,#399,.F.);
#300=ORIENTED_EDGE('',*,*,#443,.F.);
#301=ORIENTED_EDGE('',*,*,#437,.F.);
#302=ORIENTED_EDGE('',*,*,#414,.F.);
#303=ORIENTED_EDGE('',*,*,#444,.F.);
#304=ORIENTED_EDGE('',*,*,#338,.F.);
#305=ORIENTED_EDGE('',*,*,#443,.T.);
#306=ORIENTED_EDGE('',*,*,#352,.F.);
#307=ORIENTED_EDGE('',*,*,#445,.F.);
#308=ORIENTED_EDGE('',*,*,#409,.F.);
#309=ORIENTED_EDGE('',*,*,#390,.F.);
#310=ORIENTED_EDGE('',*,*,#444,.T.);
#311=ORIENTED_EDGE('',*,*,#446,.F.);
#312=ORIENTED_EDGE('',*,*,#445,.T.);
#313=ORIENTED_EDGE('',*,*,#406,.F.);
#314=ORIENTED_EDGE('',*,*,#447,.F.);
#315=ORIENTED_EDGE('',*,*,#446,.T.);
#316=ORIENTED_EDGE('',*,*,#413,.F.);
#317=ORIENTED_EDGE('',*,*,#448,.F.);
#318=ORIENTED_EDGE('',*,*,#356,.F.);
#319=ORIENTED_EDGE('',*,*,#447,.T.);
#320=ORIENTED_EDGE('',*,*,#376,.F.);
#321=ORIENTED_EDGE('',*,*,#449,.F.);
#322=ORIENTED_EDGE('',*,*,#410,.F.);
#323=ORIENTED_EDGE('',*,*,#384,.F.);
#324=ORIENTED_EDGE('',*,*,#448,.T.);
#325=ORIENTED_EDGE('',*,*,#450,.F.);
#326=ORIENTED_EDGE('',*,*,#449,.T.);
#327=ORIENTED_EDGE('',*,*,#382,.F.);
#328=ORIENTED_EDGE('',*,*,#451,.F.);
#329=ORIENTED_EDGE('',*,*,#450,.T.);
#330=ORIENTED_EDGE('',*,*,#412,.F.);
#331=ORIENTED_EDGE('',*,*,#452,.F.);
#332=ORIENTED_EDGE('',*,*,#367,.F.);
#333=ORIENTED_EDGE('',*,*,#451,.T.);
#334=ORIENTED_EDGE('',*,*,#347,.F.);
#335=ORIENTED_EDGE('',*,*,#452,.T.);
#336=ORIENTED_EDGE('',*,*,#411,.F.);
#337=EDGE_CURVE('',#453,#454,#519,.T.);
#338=EDGE_CURVE('',#453,#455,#520,.F.);
#339=EDGE_CURVE('',#455,#456,#521,.F.);
#340=EDGE_CURVE('',#456,#457,#522,.T.);
#341=EDGE_CURVE('',#457,#454,#65,.F.);
#342=EDGE_CURVE('',#458,#459,#523,.F.);
#343=EDGE_CURVE('',#459,#460,#524,.T.);
#344=EDGE_CURVE('',#460,#461,#525,.T.);
#345=EDGE_CURVE('',#458,#461,#526,.T.);
#346=EDGE_CURVE('',#462,#463,#527,.T.);
#347=EDGE_CURVE('',#463,#464,#528,.F.);
#348=EDGE_CURVE('',#464,#458,#529,.T.);
#349=EDGE_CURVE('',#461,#465,#530,.T.);
#350=EDGE_CURVE('',#462,#465,#531,.T.);
#351=EDGE_CURVE('',#466,#467,#532,.F.);
#352=EDGE_CURVE('',#467,#468,#533,.T.);
#353=EDGE_CURVE('',#468,#469,#534,.F.);
#354=EDGE_CURVE('',#469,#466,#535,.T.);
#355=EDGE_CURVE('',#470,#471,#536,.T.);
#356=EDGE_CURVE('',#471,#472,#537,.F.);
#357=EDGE_CURVE('',#472,#473,#538,.F.);
#358=EDGE_CURVE('',#473,#474,#539,.T.);
#359=EDGE_CURVE('',#474,#475,#540,.F.);
#360=EDGE_CURVE('',#475,#470,#541,.F.);
#361=EDGE_CURVE('',#476,#477,#542,.T.);
#362=EDGE_CURVE('',#477,#478,#543,.F.);
#363=EDGE_CURVE('',#479,#478,#544,.T.);
#364=EDGE_CURVE('',#479,#480,#66,.F.);
#365=EDGE_CURVE('',#480,#476,#545,.T.);
#366=EDGE_CURVE('',#481,#482,#546,.T.);
#367=EDGE_CURVE('',#482,#463,#547,.T.);
#368=EDGE_CURVE('',#481,#462,#548,.T.);
#369=EDGE_CURVE('',#483,#465,#549,.T.);
#370=EDGE_CURVE('',#483,#481,#550,.F.);
#371=EDGE_CURVE('',#484,#485,#551,.T.);
#372=EDGE_CURVE('',#485,#486,#552,.T.);
#373=EDGE_CURVE('',#486,#487,#553,.F.);
#374=EDGE_CURVE('',#487,#484,#554,.F.);
#375=EDGE_CURVE('',#488,#489,#555,.F.);
#376=EDGE_CURVE('',#489,#490,#556,.F.);
#377=EDGE_CURVE('',#490,#491,#557,.T.);
#378=EDGE_CURVE('',#491,#492,#558,.F.);
#379=EDGE_CURVE('',#492,#493,#559,.T.);
#380=EDGE_CURVE('',#493,#488,#560,.T.);
#381=EDGE_CURVE('',#460,#483,#561,.F.);
#382=EDGE_CURVE('',#464,#489,#67,.T.);
#383=EDGE_CURVE('',#458,#488,#26,.T.);
#384=EDGE_CURVE('',#472,#482,#68,.T.);
#385=EDGE_CURVE('',#473,#481,#27,.F.);
#386=EDGE_CURVE('',#459,#493,#69,.T.);
#387=EDGE_CURVE('',#460,#494,#28,.T.);
#388=EDGE_CURVE('',#494,#459,#70,.T.);
#389=EDGE_CURVE('',#474,#483,#29,.F.);
#390=EDGE_CURVE('',#455,#471,#71,.F.);
#391=EDGE_CURVE('',#456,#470,#72,.T.);
#392=EDGE_CURVE('',#494,#493,#73,.F.);
#393=EDGE_CURVE('',#475,#492,#74,.T.);
#394=EDGE_CURVE('',#456,#484,#75,.F.);
#395=EDGE_CURVE('',#484,#470,#76,.F.);
#396=EDGE_CURVE('',#485,#475,#77,.T.);
#397=EDGE_CURVE('',#476,#487,#78,.T.);
#398=EDGE_CURVE('',#457,#480,#562,.T.);
#399=EDGE_CURVE('',#468,#477,#79,.T.);
#400=EDGE_CURVE('',#469,#476,#80,.T.);
#401=EDGE_CURVE('',#485,#492,#81,.F.);
#402=EDGE_CURVE('',#469,#487,#82,.F.);
#403=EDGE_CURVE('',#486,#491,#83,.T.);
#404=EDGE_CURVE('',#466,#486,#84,.T.);
#405=EDGE_CURVE('',#466,#491,#85,.F.);
#406=EDGE_CURVE('',#490,#467,#86,.F.);
#407=EDGE_CURVE('',#495,#496,#563,.T.);
#408=EDGE_CURVE('',#496,#497,#564,.T.);
#409=EDGE_CURVE('',#497,#498,#565,.F.);
#410=EDGE_CURVE('',#498,#499,#566,.T.);
#411=EDGE_CURVE('',#499,#500,#567,.T.);
#412=EDGE_CURVE('',#500,#501,#568,.F.);
#413=EDGE_CURVE('',#501,#502,#569,.T.);
#414=EDGE_CURVE('',#502,#503,#570,.T.);
#415=EDGE_CURVE('',#503,#504,#571,.F.);
#416=EDGE_CURVE('',#504,#495,#572,.T.);
#417=EDGE_CURVE('',#480,#505,#573,.F.);
#418=EDGE_CURVE('',#506,#505,#574,.T.);
#419=EDGE_CURVE('',#506,#457,#575,.T.);
#420=EDGE_CURVE('',#507,#507,#87,.T.);
#421=EDGE_CURVE('',#508,#508,#88,.T.);
#422=EDGE_CURVE('',#509,#510,#576,.F.);
#423=EDGE_CURVE('',#510,#479,#577,.T.);
#424=EDGE_CURVE('',#478,#509,#578,.F.);
#425=EDGE_CURVE('',#511,#511,#89,.T.);
#426=EDGE_CURVE('',#512,#512,#90,.T.);
#427=EDGE_CURVE('',#513,#514,#579,.F.);
#428=EDGE_CURVE('',#514,#453,#580,.T.);
#429=EDGE_CURVE('',#454,#513,#581,.F.);
#430=EDGE_CURVE('',#505,#495,#582,.T.);
#431=EDGE_CURVE('',#504,#506,#583,.T.);
#432=EDGE_CURVE('',#505,#510,#30,.F.);
#433=EDGE_CURVE('',#478,#496,#31,.T.);
#434=EDGE_CURVE('',#509,#495,#32,.F.);
#435=EDGE_CURVE('',#513,#506,#33,.F.);
#436=EDGE_CURVE('',#514,#504,#34,.T.);
#437=EDGE_CURVE('',#503,#453,#35,.F.);
#438=EDGE_CURVE('',#515,#515,#91,.F.);
#439=EDGE_CURVE('',#516,#516,#92,.F.);
#440=EDGE_CURVE('',#517,#517,#93,.F.);
#441=EDGE_CURVE('',#518,#518,#94,.F.);
#442=EDGE_CURVE('',#497,#477,#95,.T.);
#443=EDGE_CURVE('',#497,#468,#96,.T.);
#444=EDGE_CURVE('',#455,#502,#97,.T.);
#445=EDGE_CURVE('',#498,#467,#98,.T.);
#446=EDGE_CURVE('',#471,#502,#99,.T.);
#447=EDGE_CURVE('',#498,#490,#100,.T.);
#448=EDGE_CURVE('',#472,#501,#101,.T.);
#449=EDGE_CURVE('',#499,#489,#102,.T.);
#450=EDGE_CURVE('',#482,#501,#103,.T.);
#451=EDGE_CURVE('',#499,#464,#104,.T.);
#452=EDGE_CURVE('',#463,#500,#36,.T.);
#453=VERTEX_POINT('',#1269);
#454=VERTEX_POINT('',#1270);
#455=VERTEX_POINT('',#1272);
#456=VERTEX_POINT('',#1274);
#457=VERTEX_POINT('',#1276);
#458=VERTEX_POINT('',#1280);
#459=VERTEX_POINT('',#1281);
#460=VERTEX_POINT('',#1283);
#461=VERTEX_POINT('',#1285);
#462=VERTEX_POINT('',#1289);
#463=VERTEX_POINT('',#1290);
#464=VERTEX_POINT('',#1292);
#465=VERTEX_POINT('',#1295);
#466=VERTEX_POINT('',#1299);
#467=VERTEX_POINT('',#1300);
#468=VERTEX_POINT('',#1302);
#469=VERTEX_POINT('',#1304);
#470=VERTEX_POINT('',#1308);
#471=VERTEX_POINT('',#1309);
#472=VERTEX_POINT('',#1311);
#473=VERTEX_POINT('',#1313);
#474=VERTEX_POINT('',#1315);
#475=VERTEX_POINT('',#1317);
#476=VERTEX_POINT('',#1321);
#477=VERTEX_POINT('',#1322);
#478=VERTEX_POINT('',#1324);
#479=VERTEX_POINT('',#1326);
#480=VERTEX_POINT('',#1328);
#481=VERTEX_POINT('',#1332);
#482=VERTEX_POINT('',#1333);
#483=VERTEX_POINT('',#1338);
#484=VERTEX_POINT('',#1342);
#485=VERTEX_POINT('',#1343);
#486=VERTEX_POINT('',#1345);
#487=VERTEX_POINT('',#1347);
#488=VERTEX_POINT('',#1351);
#489=VERTEX_POINT('',#1352);
#490=VERTEX_POINT('',#1354);
#491=VERTEX_POINT('',#1356);
#492=VERTEX_POINT('',#1358);
#493=VERTEX_POINT('',#1360);
#494=VERTEX_POINT('',#1374);
#495=VERTEX_POINT('',#1410);
#496=VERTEX_POINT('',#1411);
#497=VERTEX_POINT('',#1413);
#498=VERTEX_POINT('',#1415);
#499=VERTEX_POINT('',#1417);
#500=VERTEX_POINT('',#1419);
#501=VERTEX_POINT('',#1421);
#502=VERTEX_POINT('',#1423);
#503=VERTEX_POINT('',#1425);
#504=VERTEX_POINT('',#1427);
#505=VERTEX_POINT('',#1431);
#506=VERTEX_POINT('',#1433);
#507=VERTEX_POINT('',#1437);
#508=VERTEX_POINT('',#1439);
#509=VERTEX_POINT('',#1441);
#510=VERTEX_POINT('',#1442);
#511=VERTEX_POINT('',#1447);
#512=VERTEX_POINT('',#1449);
#513=VERTEX_POINT('',#1451);
#514=VERTEX_POINT('',#1452);
#515=VERTEX_POINT('',#1472);
#516=VERTEX_POINT('',#1474);
#517=VERTEX_POINT('',#1477);
#518=VERTEX_POINT('',#1479);
#519=LINE('',#1268,#584);
#520=LINE('',#1271,#585);
#521=LINE('',#1273,#586);
#522=LINE('',#1275,#587);
#523=LINE('',#1279,#588);
#524=LINE('',#1282,#589);
#525=LINE('',#1284,#590);
#526=LINE('',#1286,#591);
#527=LINE('',#1288,#592);
#528=LINE('',#1291,#593);
#529=LINE('',#1293,#594);
#530=LINE('',#1294,#595);
#531=LINE('',#1296,#596);
#532=LINE('',#1298,#597);
#533=LINE('',#1301,#598);
#534=LINE('',#1303,#599);
#535=LINE('',#1305,#600);
#536=LINE('',#1307,#601);
#537=LINE('',#1310,#602);
#538=LINE('',#1312,#603);
#539=LINE('',#1314,#604);
#540=LINE('',#1316,#605);
#541=LINE('',#1318,#606);
#542=LINE('',#1320,#607);
#543=LINE('',#1323,#608);
#544=LINE('',#1325,#609);
#545=LINE('',#1329,#610);
#546=LINE('',#1331,#611);
#547=LINE('',#1334,#612);
#548=LINE('',#1335,#613);
#549=LINE('',#1337,#614);
#550=LINE('',#1339,#615);
#551=LINE('',#1341,#616);
#552=LINE('',#1344,#617);
#553=LINE('',#1346,#618);
#554=LINE('',#1348,#619);
#555=LINE('',#1350,#620);
#556=LINE('',#1353,#621);
#557=LINE('',#1355,#622);
#558=LINE('',#1357,#623);
#559=LINE('',#1359,#624);
#560=LINE('',#1361,#625);
#561=LINE('',#1363,#626);
#562=LINE('',#1392,#627);
#563=LINE('',#1409,#628);
#564=LINE('',#1412,#629);
#565=LINE('',#1414,#630);
#566=LINE('',#1416,#631);
#567=LINE('',#1418,#632);
#568=LINE('',#1420,#633);
#569=LINE('',#1422,#634);
#570=LINE('',#1424,#635);
#571=LINE('',#1426,#636);
#572=LINE('',#1428,#637);
#573=LINE('',#1430,#638);
#574=LINE('',#1432,#639);
#575=LINE('',#1434,#640);
#576=LINE('',#1440,#641);
#577=LINE('',#1443,#642);
#578=LINE('',#1444,#643);
#579=LINE('',#1450,#644);
#580=LINE('',#1453,#645);
#581=LINE('',#1454,#646);
#582=LINE('',#1456,#647);
#583=LINE('',#1457,#648);
#584=VECTOR('',#985,1.);
#585=VECTOR('',#986,1.);
#586=VECTOR('',#987,1.);
#587=VECTOR('',#988,1.);
#588=VECTOR('',#993,1.);
#589=VECTOR('',#994,1.);
#590=VECTOR('',#995,1.);
#591=VECTOR('',#996,1.);
#592=VECTOR('',#999,1.);
#593=VECTOR('',#1000,1.);
#594=VECTOR('',#1001,1.);
#595=VECTOR('',#1002,1.);
#596=VECTOR('',#1003,1.);
#597=VECTOR('',#1006,1.);
#598=VECTOR('',#1007,1.);
#599=VECTOR('',#1008,1.);
#600=VECTOR('',#1009,1.);
#601=VECTOR('',#1012,1.);
#602=VECTOR('',#1013,1.);
#603=VECTOR('',#1014,1.);
#604=VECTOR('',#1015,1.);
#605=VECTOR('',#1016,1.);
#606=VECTOR('',#1017,1.);
#607=VECTOR('',#1020,1.);
#608=VECTOR('',#1021,1.);
#609=VECTOR('',#1022,1.);
#610=VECTOR('',#1025,1.);
#611=VECTOR('',#1028,1.);
#612=VECTOR('',#1029,1.);
#613=VECTOR('',#1030,1.);
#614=VECTOR('',#1033,1.);
#615=VECTOR('',#1034,1.);
#616=VECTOR('',#1037,1.);
#617=VECTOR('',#1038,1.);
#618=VECTOR('',#1039,1.);
#619=VECTOR('',#1040,1.);
#620=VECTOR('',#1043,1.);
#621=VECTOR('',#1044,1.);
#622=VECTOR('',#1045,1.);
#623=VECTOR('',#1046,1.);
#624=VECTOR('',#1047,1.);
#625=VECTOR('',#1048,1.);
#626=VECTOR('',#1051,1.);
#627=VECTOR('',#1106,1.);
#628=VECTOR('',#1139,1.);
#629=VECTOR('',#1140,1.);
#630=VECTOR('',#1141,1.);
#631=VECTOR('',#1142,1.);
#632=VECTOR('',#1143,1.);
#633=VECTOR('',#1144,1.);
#634=VECTOR('',#1145,1.);
#635=VECTOR('',#1146,1.);
#636=VECTOR('',#1147,1.);
#637=VECTOR('',#1148,1.);
#638=VECTOR('',#1151,1.);
#639=VECTOR('',#1152,1.);
#640=VECTOR('',#1153,1.);
#641=VECTOR('',#1160,1.);
#642=VECTOR('',#1161,1.);
#643=VECTOR('',#1162,1.);
#644=VECTOR('',#1169,1.);
#645=VECTOR('',#1170,1.);
#646=VECTOR('',#1171,1.);
#647=VECTOR('',#1174,1.);
#648=VECTOR('',#1175,1.);
#649=EDGE_LOOP('',(#105,#106,#107,#108,#109));
#650=EDGE_LOOP('',(#110,#111,#112,#113));
#651=EDGE_LOOP('',(#114,#115,#116,#117,#118,#119));
#652=EDGE_LOOP('',(#120,#121,#122,#123));
#653=EDGE_LOOP('',(#124,#125,#126,#127,#128,#129));
#654=EDGE_LOOP('',(#130,#131,#132,#133,#134));
#655=EDGE_LOOP('',(#135,#136,#137,#138));
#656=EDGE_LOOP('',(#139,#140,#141,#142));
#657=EDGE_LOOP('',(#143,#144,#145,#146));
#658=EDGE_LOOP('',(#147,#148,#149,#150,#151,#152));
#659=EDGE_LOOP('',(#153,#154,#155,#156));
#660=EDGE_LOOP('',(#157,#158,#159,#160));
#661=EDGE_LOOP('',(#161,#162,#163,#164));
#662=EDGE_LOOP('',(#165,#166,#167,#168));
#663=EDGE_LOOP('',(#169,#170,#171));
#664=EDGE_LOOP('',(#172,#173,#174,#175));
#665=EDGE_LOOP('',(#176,#177,#178,#179));
#666=EDGE_LOOP('',(#180,#181,#182));
#667=EDGE_LOOP('',(#183,#184,#185,#186,#187,#188,#189));
#668=EDGE_LOOP('',(#190,#191,#192));
#669=EDGE_LOOP('',(#193,#194,#195,#196));
#670=EDGE_LOOP('',(#197,#198,#199,#200,#201,#202));
#671=EDGE_LOOP('',(#203,#204,#205,#206));
#672=EDGE_LOOP('',(#207,#208,#209));
#673=EDGE_LOOP('',(#210,#211,#212));
#674=EDGE_LOOP('',(#213,#214,#215,#216));
#675=EDGE_LOOP('',(#217,#218,#219,#220));
#676=EDGE_LOOP('',(#221,#222,#223));
#677=EDGE_LOOP('',(#224,#225,#226,#227));
#678=EDGE_LOOP('',(#228,#229,#230,#231,#232,#233,#234,#235,#236,#237));
#679=EDGE_LOOP('',(#238,#239,#240,#241));
#680=EDGE_LOOP('',(#242));
#681=EDGE_LOOP('',(#243));
#682=EDGE_LOOP('',(#244,#245,#246,#247));
#683=EDGE_LOOP('',(#248));
#684=EDGE_LOOP('',(#249));
#685=EDGE_LOOP('',(#250,#251,#252,#253));
#686=EDGE_LOOP('',(#254,#255,#256,#257));
#687=EDGE_LOOP('',(#258,#259,#260,#261));
#688=EDGE_LOOP('',(#262,#263,#264,#265));
#689=EDGE_LOOP('',(#266,#267,#268,#269));
#690=EDGE_LOOP('',(#270,#271,#272,#273));
#691=EDGE_LOOP('',(#274,#275,#276,#277));
#692=EDGE_LOOP('',(#278,#279,#280,#281));
#693=EDGE_LOOP('',(#282));
#694=EDGE_LOOP('',(#283));
#695=EDGE_LOOP('',(#284));
#696=EDGE_LOOP('',(#285));
#697=EDGE_LOOP('',(#286));
#698=EDGE_LOOP('',(#287));
#699=EDGE_LOOP('',(#288));
#700=EDGE_LOOP('',(#289));
#701=EDGE_LOOP('',(#290));
#702=EDGE_LOOP('',(#291));
#703=EDGE_LOOP('',(#292));
#704=EDGE_LOOP('',(#293));
#705=EDGE_LOOP('',(#294,#295,#296,#297));
#706=EDGE_LOOP('',(#298,#299,#300));
#707=EDGE_LOOP('',(#301,#302,#303,#304));
#708=EDGE_LOOP('',(#305,#306,#307,#308));
#709=EDGE_LOOP('',(#309,#310,#311));
#710=EDGE_LOOP('',(#312,#313,#314));
#711=EDGE_LOOP('',(#315,#316,#317,#318));
#712=EDGE_LOOP('',(#319,#320,#321,#322));
#713=EDGE_LOOP('',(#323,#324,#325));
#714=EDGE_LOOP('',(#326,#327,#328));
#715=EDGE_LOOP('',(#329,#330,#331,#332));
#716=EDGE_LOOP('',(#333,#334,#335,#336));
#717=FACE_BOUND('',#649,.T.);
#718=FACE_BOUND('',#650,.T.);
#719=FACE_BOUND('',#651,.T.);
#720=FACE_BOUND('',#652,.T.);
#721=FACE_BOUND('',#653,.T.);
#722=FACE_BOUND('',#654,.T.);
#723=FACE_BOUND('',#655,.T.);
#724=FACE_BOUND('',#656,.T.);
#725=FACE_BOUND('',#657,.T.);
#726=FACE_BOUND('',#658,.T.);
#727=FACE_BOUND('',#659,.T.);
#728=FACE_BOUND('',#660,.T.);
#729=FACE_BOUND('',#661,.T.);
#730=FACE_BOUND('',#662,.T.);
#731=FACE_BOUND('',#663,.T.);
#732=FACE_BOUND('',#664,.T.);
#733=FACE_BOUND('',#665,.T.);
#734=FACE_BOUND('',#666,.T.);
#735=FACE_BOUND('',#667,.T.);
#736=FACE_BOUND('',#668,.T.);
#737=FACE_BOUND('',#669,.T.);
#738=FACE_BOUND('',#670,.T.);
#739=FACE_BOUND('',#671,.T.);
#740=FACE_BOUND('',#672,.T.);
#741=FACE_BOUND('',#673,.T.);
#742=FACE_BOUND('',#674,.T.);
#743=FACE_BOUND('',#675,.T.);
#744=FACE_BOUND('',#676,.T.);
#745=FACE_BOUND('',#677,.T.);
#746=FACE_BOUND('',#678,.T.);
#747=FACE_BOUND('',#679,.T.);
#748=FACE_BOUND('',#680,.T.);
#749=FACE_BOUND('',#681,.T.);
#750=FACE_BOUND('',#682,.T.);
#751=FACE_BOUND('',#683,.T.);
#752=FACE_BOUND('',#684,.T.);
#753=FACE_BOUND('',#685,.T.);
#754=FACE_BOUND('',#686,.T.);
#755=FACE_BOUND('',#687,.T.);
#756=FACE_BOUND('',#688,.T.);
#757=FACE_BOUND('',#689,.T.);
#758=FACE_BOUND('',#690,.T.);
#759=FACE_BOUND('',#691,.T.);
#760=FACE_BOUND('',#692,.T.);
#761=FACE_BOUND('',#693,.T.);
#762=FACE_BOUND('',#694,.T.);
#763=FACE_BOUND('',#695,.T.);
#764=FACE_BOUND('',#696,.T.);
#765=FACE_BOUND('',#697,.T.);
#766=FACE_BOUND('',#698,.T.);
#767=FACE_BOUND('',#699,.T.);
#768=FACE_BOUND('',#700,.T.);
#769=FACE_BOUND('',#701,.T.);
#770=FACE_BOUND('',#702,.T.);
#771=FACE_BOUND('',#703,.T.);
#772=FACE_BOUND('',#704,.T.);
#773=FACE_BOUND('',#705,.T.);
#774=FACE_BOUND('',#706,.T.);
#775=FACE_BOUND('',#707,.T.);
#776=FACE_BOUND('',#708,.T.);
#777=FACE_BOUND('',#709,.T.);
#778=FACE_BOUND('',#710,.T.);
#779=FACE_BOUND('',#711,.T.);
#780=FACE_BOUND('',#712,.T.);
#781=FACE_BOUND('',#713,.T.);
#782=FACE_BOUND('',#714,.T.);
#783=FACE_BOUND('',#715,.T.);
#784=FACE_BOUND('',#716,.T.);
#785=PLANE('',#872);
#786=PLANE('',#874);
#787=PLANE('',#875);
#788=PLANE('',#876);
#789=PLANE('',#877);
#790=PLANE('',#878);
#791=PLANE('',#880);
#792=PLANE('',#881);
#793=PLANE('',#882);
#794=PLANE('',#883);
#795=PLANE('',#884);
#796=PLANE('',#927);
#797=PLANE('',#928);
#798=PLANE('',#929);
#799=PLANE('',#932);
#800=PLANE('',#935);
#801=ADVANCED_FACE('',(#717),#785,.T.);
#802=ADVANCED_FACE('',(#718),#786,.F.);
#803=ADVANCED_FACE('',(#719),#787,.T.);
#804=ADVANCED_FACE('',(#720),#788,.F.);
#805=ADVANCED_FACE('',(#721),#789,.T.);
#806=ADVANCED_FACE('',(#722),#790,.T.);
#807=ADVANCED_FACE('',(#723),#791,.F.);
#808=ADVANCED_FACE('',(#724),#792,.F.);
#809=ADVANCED_FACE('',(#725),#793,.T.);
#810=ADVANCED_FACE('',(#726),#794,.T.);
#811=ADVANCED_FACE('',(#727),#795,.F.);
#812=ADVANCED_FACE('',(#728),#37,.T.);
#813=ADVANCED_FACE('',(#729),#38,.T.);
#814=ADVANCED_FACE('',(#730),#39,.T.);
#815=ADVANCED_FACE('',(#731),#40,.T.);
#816=ADVANCED_FACE('',(#732),#41,.T.);
#817=ADVANCED_FACE('',(#733),#42,.T.);
#818=ADVANCED_FACE('',(#734),#16,.T.);
#819=ADVANCED_FACE('',(#735),#43,.T.);
#820=ADVANCED_FACE('',(#736),#17,.T.);
#821=ADVANCED_FACE('',(#737),#44,.T.);
#822=ADVANCED_FACE('',(#738),#45,.T.);
#823=ADVANCED_FACE('',(#739),#46,.T.);
#824=ADVANCED_FACE('',(#740),#18,.T.);
#825=ADVANCED_FACE('',(#741),#19,.T.);
#826=ADVANCED_FACE('',(#742),#47,.T.);
#827=ADVANCED_FACE('',(#743),#48,.T.);
#828=ADVANCED_FACE('',(#744),#20,.T.);
#829=ADVANCED_FACE('',(#745),#49,.T.);
#830=ADVANCED_FACE('',(#746),#796,.F.);
#831=ADVANCED_FACE('',(#747),#797,.F.);
#832=ADVANCED_FACE('',(#748,#749,#750),#798,.F.);
#833=ADVANCED_FACE('',(#751,#752,#753),#799,.F.);
#834=ADVANCED_FACE('',(#754),#800,.T.);
#835=ADVANCED_FACE('',(#755),#50,.T.);
#836=ADVANCED_FACE('',(#756),#51,.T.);
#837=ADVANCED_FACE('',(#757),#52,.T.);
#838=ADVANCED_FACE('',(#758),#53,.T.);
#839=ADVANCED_FACE('',(#759),#54,.T.);
#840=ADVANCED_FACE('',(#760),#55,.T.);
#841=ADVANCED_FACE('',(#761,#762),#56,.F.);
#842=ADVANCED_FACE('',(#763,#764),#57,.F.);
#843=ADVANCED_FACE('',(#765,#766),#12,.T.);
#844=ADVANCED_FACE('',(#767,#768),#13,.T.);
#845=ADVANCED_FACE('',(#769,#770),#14,.T.);
#846=ADVANCED_FACE('',(#771,#772),#15,.T.);
#847=ADVANCED_FACE('',(#773),#58,.T.);
#848=ADVANCED_FACE('',(#774),#21,.T.);
#849=ADVANCED_FACE('',(#775),#59,.T.);
#850=ADVANCED_FACE('',(#776),#60,.T.);
#851=ADVANCED_FACE('',(#777),#22,.T.);
#852=ADVANCED_FACE('',(#778),#23,.T.);
#853=ADVANCED_FACE('',(#779),#61,.T.);
#854=ADVANCED_FACE('',(#780),#62,.T.);
#855=ADVANCED_FACE('',(#781),#24,.T.);
#856=ADVANCED_FACE('',(#782),#25,.T.);
#857=ADVANCED_FACE('',(#783),#63,.T.);
#858=ADVANCED_FACE('',(#784),#64,.T.);
#859=CLOSED_SHELL('',(#801,#802,#803,#804,#805,#806,#807,#808,#809,#810,
#811,#812,#813,#814,#815,#816,#817,#818,#819,#820,#821,#822,#823,#824,#825,
#826,#827,#828,#829,#830,#831,#832,#833,#834,#835,#836,#837,#838,#839,#840,
#841,#842,#843,#844,#845,#846,#847,#848,#849,#850,#851,#852,#853,#854,#855,
#856,#857,#858));
#860=STYLED_ITEM('',(#861),#868);
#861=PRESENTATION_STYLE_ASSIGNMENT((#862));
#862=SURFACE_STYLE_USAGE(.BOTH.,#863);
#863=SURFACE_SIDE_STYLE('',(#864));
#864=SURFACE_STYLE_FILL_AREA(#865);
#865=FILL_AREA_STYLE('',(#866));
#866=FILL_AREA_STYLE_COLOUR('',#867);
#867=COLOUR_RGB('',0.615686274509804,0.811764705882353,0.929411764705882);
#868=MANIFOLD_SOLID_BREP('Part 2',#859);
#869=SHAPE_DEFINITION_REPRESENTATION(#1513,#870);
#870=SHAPE_REPRESENTATION('Part 2',(#871),#1508);
#871=AXIS2_PLACEMENT_3D('',#1266,#981,#982);
#872=AXIS2_PLACEMENT_3D('',#1267,#983,#984);
#873=AXIS2_PLACEMENT_3D('',#1277,#989,#990);
#874=AXIS2_PLACEMENT_3D('',#1278,#991,#992);
#875=AXIS2_PLACEMENT_3D('',#1287,#997,#998);
#876=AXIS2_PLACEMENT_3D('',#1297,#1004,#1005);
#877=AXIS2_PLACEMENT_3D('',#1306,#1010,#1011);
#878=AXIS2_PLACEMENT_3D('',#1319,#1018,#1019);
#879=AXIS2_PLACEMENT_3D('',#1327,#1023,#1024);
#880=AXIS2_PLACEMENT_3D('',#1330,#1026,#1027);
#881=AXIS2_PLACEMENT_3D('',#1336,#1031,#1032);
#882=AXIS2_PLACEMENT_3D('',#1340,#1035,#1036);
#883=AXIS2_PLACEMENT_3D('',#1349,#1041,#1042);
#884=AXIS2_PLACEMENT_3D('',#1362,#1049,#1050);
#885=AXIS2_PLACEMENT_3D('',#1364,#1052,#1053);
#886=AXIS2_PLACEMENT_3D('',#1365,#1054,#1055);
#887=AXIS2_PLACEMENT_3D('',#1366,#1056,#1057);
#888=AXIS2_PLACEMENT_3D('',#1367,#1058,#1059);
#889=AXIS2_PLACEMENT_3D('',#1368,#1060,#1061);
#890=AXIS2_PLACEMENT_3D('',#1369,#1062,#1063);
#891=AXIS2_PLACEMENT_3D('',#1370,#1064,#1065);
#892=AXIS2_PLACEMENT_3D('',#1371,#1066,#1067);
#893=AXIS2_PLACEMENT_3D('',#1372,#1068,#1069);
#894=AXIS2_PLACEMENT_3D('',#1373,#1070,#1071);
#895=AXIS2_PLACEMENT_3D('',#1375,#1072,#1073);
#896=AXIS2_PLACEMENT_3D('',#1376,#1074,#1075);
#897=AXIS2_PLACEMENT_3D('',#1377,#1076,#1077);
#898=AXIS2_PLACEMENT_3D('',#1378,#1078,#1079);
#899=AXIS2_PLACEMENT_3D('',#1379,#1080,#1081);
#900=AXIS2_PLACEMENT_3D('',#1380,#1082,#1083);
#901=AXIS2_PLACEMENT_3D('',#1381,#1084,#1085);
#902=AXIS2_PLACEMENT_3D('',#1382,#1086,#1087);
#903=AXIS2_PLACEMENT_3D('',#1383,#1088,#1089);
#904=AXIS2_PLACEMENT_3D('',#1384,#1090,#1091);
#905=AXIS2_PLACEMENT_3D('',#1385,#1092,#1093);
#906=AXIS2_PLACEMENT_3D('',#1386,#1094,#1095);
#907=AXIS2_PLACEMENT_3D('',#1387,#1096,#1097);
#908=AXIS2_PLACEMENT_3D('',#1388,#1098,#1099);
#909=AXIS2_PLACEMENT_3D('',#1389,#1100,#1101);
#910=AXIS2_PLACEMENT_3D('',#1390,#1102,#1103);
#911=AXIS2_PLACEMENT_3D('',#1391,#1104,#1105);
#912=AXIS2_PLACEMENT_3D('',#1393,#1107,#1108);
#913=AXIS2_PLACEMENT_3D('',#1394,#1109,#1110);
#914=AXIS2_PLACEMENT_3D('',#1395,#1111,#1112);
#915=AXIS2_PLACEMENT_3D('',#1396,#1113,#1114);
#916=AXIS2_PLACEMENT_3D('',#1397,#1115,#1116);
#917=AXIS2_PLACEMENT_3D('',#1398,#1117,#1118);
#918=AXIS2_PLACEMENT_3D('',#1399,#1119,#1120);
#919=AXIS2_PLACEMENT_3D('',#1400,#1121,#1122);
#920=AXIS2_PLACEMENT_3D('',#1401,#1123,#1124);
#921=AXIS2_PLACEMENT_3D('',#1402,#1125,#1126);
#922=AXIS2_PLACEMENT_3D('',#1403,#1127,#1128);
#923=AXIS2_PLACEMENT_3D('',#1404,#1129,#1130);
#924=AXIS2_PLACEMENT_3D('',#1405,#1131,#1132);
#925=AXIS2_PLACEMENT_3D('',#1406,#1133,#1134);
#926=AXIS2_PLACEMENT_3D('',#1407,#1135,#1136);
#927=AXIS2_PLACEMENT_3D('',#1408,#1137,#1138);
#928=AXIS2_PLACEMENT_3D('',#1429,#1149,#1150);
#929=AXIS2_PLACEMENT_3D('',#1435,#1154,#1155);
#930=AXIS2_PLACEMENT_3D('',#1436,#1156,#1157);
#931=AXIS2_PLACEMENT_3D('',#1438,#1158,#1159);
#932=AXIS2_PLACEMENT_3D('',#1445,#1163,#1164);
#933=AXIS2_PLACEMENT_3D('',#1446,#1165,#1166);
#934=AXIS2_PLACEMENT_3D('',#1448,#1167,#1168);
#935=AXIS2_PLACEMENT_3D('',#1455,#1172,#1173);
#936=AXIS2_PLACEMENT_3D('',#1458,#1176,#1177);
#937=AXIS2_PLACEMENT_3D('',#1459,#1178,#1179);
#938=AXIS2_PLACEMENT_3D('',#1460,#1180,#1181);
#939=AXIS2_PLACEMENT_3D('',#1461,#1182,#1183);
#940=AXIS2_PLACEMENT_3D('',#1462,#1184,#1185);
#941=AXIS2_PLACEMENT_3D('',#1463,#1186,#1187);
#942=AXIS2_PLACEMENT_3D('',#1464,#1188,#1189);
#943=AXIS2_PLACEMENT_3D('',#1465,#1190,#1191);
#944=AXIS2_PLACEMENT_3D('',#1466,#1192,#1193);
#945=AXIS2_PLACEMENT_3D('',#1467,#1194,#1195);
#946=AXIS2_PLACEMENT_3D('',#1468,#1196,#1197);
#947=AXIS2_PLACEMENT_3D('',#1469,#1198,#1199);
#948=AXIS2_PLACEMENT_3D('',#1470,#1200,#1201);
#949=AXIS2_PLACEMENT_3D('',#1471,#1202,#1203);
#950=AXIS2_PLACEMENT_3D('',#1473,#1204,#1205);
#951=AXIS2_PLACEMENT_3D('',#1475,#1206,#1207);
#952=AXIS2_PLACEMENT_3D('',#1476,#1208,#1209);
#953=AXIS2_PLACEMENT_3D('',#1478,#1210,#1211);
#954=AXIS2_PLACEMENT_3D('',#1480,#1212,#1213);
#955=AXIS2_PLACEMENT_3D('',#1481,#1214,#1215);
#956=AXIS2_PLACEMENT_3D('',#1482,#1216,#1217);
#957=AXIS2_PLACEMENT_3D('',#1483,#1218,#1219);
#958=AXIS2_PLACEMENT_3D('',#1484,#1220,#1221);
#959=AXIS2_PLACEMENT_3D('',#1485,#1222,#1223);
#960=AXIS2_PLACEMENT_3D('',#1486,#1224,#1225);
#961=AXIS2_PLACEMENT_3D('',#1487,#1226,#1227);
#962=AXIS2_PLACEMENT_3D('',#1488,#1228,#1229);
#963=AXIS2_PLACEMENT_3D('',#1489,#1230,#1231);
#964=AXIS2_PLACEMENT_3D('',#1490,#1232,#1233);
#965=AXIS2_PLACEMENT_3D('',#1491,#1234,#1235);
#966=AXIS2_PLACEMENT_3D('',#1492,#1236,#1237);
#967=AXIS2_PLACEMENT_3D('',#1493,#1238,#1239);
#968=AXIS2_PLACEMENT_3D('',#1494,#1240,#1241);
#969=AXIS2_PLACEMENT_3D('',#1495,#1242,#1243);
#970=AXIS2_PLACEMENT_3D('',#1496,#1244,#1245);
#971=AXIS2_PLACEMENT_3D('',#1497,#1246,#1247);
#972=AXIS2_PLACEMENT_3D('',#1498,#1248,#1249);
#973=AXIS2_PLACEMENT_3D('',#1499,#1250,#1251);
#974=AXIS2_PLACEMENT_3D('',#1500,#1252,#1253);
#975=AXIS2_PLACEMENT_3D('',#1501,#1254,#1255);
#976=AXIS2_PLACEMENT_3D('',#1502,#1256,#1257);
#977=AXIS2_PLACEMENT_3D('',#1503,#1258,#1259);
#978=AXIS2_PLACEMENT_3D('',#1504,#1260,#1261);
#979=AXIS2_PLACEMENT_3D('',#1505,#1262,#1263);
#980=AXIS2_PLACEMENT_3D('',#1506,#1264,#1265);
#981=DIRECTION('',(0.,0.,1.));
#982=DIRECTION('',(1.,0.,0.));
#983=DIRECTION('',(0.,0.,1.));
#984=DIRECTION('',(1.,0.,0.));
#985=DIRECTION('',(-1.,0.,0.));
#986=DIRECTION('',(0.,-1.,0.));
#987=DIRECTION('',(1.,0.,0.));
#988=DIRECTION('',(0.,-1.,0.));
#989=DIRECTION('',(0.,0.,1.));
#990=DIRECTION('',(0.,-1.,0.));
#991=DIRECTION('',(-1.,0.,0.));
#992=DIRECTION('',(0.,1.,0.));
#993=DIRECTION('',(0.,-1.,0.));
#994=DIRECTION('',(0.,0.,1.));
#995=DIRECTION('',(0.,-1.,0.));
#996=DIRECTION('',(0.,0.,1.));
#997=DIRECTION('',(0.,1.,0.));
#998=DIRECTION('',(1.,0.,0.));
#999=DIRECTION('',(1.,0.,0.));
#1000=DIRECTION('',(0.,0.,1.));
#1001=DIRECTION('',(-1.,0.,0.));
#1002=DIRECTION('',(-1.,0.,0.));
#1003=DIRECTION('',(0.,0.,-1.));
#1004=DIRECTION('',(0.,1.,0.));
#1005=DIRECTION('',(1.,0.,0.));
#1006=DIRECTION('',(-1.,0.,0.));
#1007=DIRECTION('',(0.,0.,1.));
#1008=DIRECTION('',(1.,0.,0.));
#1009=DIRECTION('',(0.,0.,-1.));
#1010=DIRECTION('',(0.,1.,0.));
#1011=DIRECTION('',(1.,0.,0.));
#1012=DIRECTION('',(1.,0.,0.));
#1013=DIRECTION('',(0.,0.,1.));
#1014=DIRECTION('',(1.,0.,0.));
#1015=DIRECTION('',(0.,0.,-1.));
#1016=DIRECTION('',(1.,0.,0.));
#1017=DIRECTION('',(0.,0.,-1.));
#1018=DIRECTION('',(0.,0.,1.));
#1019=DIRECTION('',(1.,0.,0.));
#1020=DIRECTION('',(1.,0.,0.));
#1021=DIRECTION('',(0.,-1.,0.));
#1022=DIRECTION('',(1.,0.,0.));
#1023=DIRECTION('',(0.,0.,1.));
#1024=DIRECTION('',(0.,-1.,0.));
#1025=DIRECTION('',(0.,-1.,0.));
#1026=DIRECTION('',(0.,0.,1.));
#1027=DIRECTION('',(1.,0.,0.));
#1028=DIRECTION('',(1.,0.,0.));
#1029=DIRECTION('',(0.,-1.,0.));
#1030=DIRECTION('',(0.,-1.,0.));
#1031=DIRECTION('',(-1.,0.,0.));
#1032=DIRECTION('',(0.,0.,1.));
#1033=DIRECTION('',(0.,-1.,0.));
#1034=DIRECTION('',(0.,0.,-1.));
#1035=DIRECTION('',(-1.,0.,0.));
#1036=DIRECTION('',(0.,0.,1.));
#1037=DIRECTION('',(0.,0.,-1.));
#1038=DIRECTION('',(0.,-1.,0.));
#1039=DIRECTION('',(0.,0.,-1.));
#1040=DIRECTION('',(0.,-1.,0.));
#1041=DIRECTION('',(0.,0.,-1.));
#1042=DIRECTION('',(-1.,0.,0.));
#1043=DIRECTION('',(-1.,0.,0.));
#1044=DIRECTION('',(0.,1.,0.));
#1045=DIRECTION('',(-1.,0.,0.));
#1046=DIRECTION('',(0.,-1.,0.));
#1047=DIRECTION('',(1.,0.,0.));
#1048=DIRECTION('',(0.,-1.,0.));
#1049=DIRECTION('',(0.,0.,-1.));
#1050=DIRECTION('',(-1.,0.,0.));
#1051=DIRECTION('',(1.,0.,0.));
#1052=DIRECTION('',(-1.,0.,0.));
#1053=DIRECTION('',(0.,1.,0.));
#1054=DIRECTION('',(-1.,0.,0.));
#1055=DIRECTION('',(0.,1.,0.));
#1056=DIRECTION('',(-0.707106781186548,0.707106781186548,0.));
#1057=DIRECTION('',(-0.707106781186548,-0.707106781186548,0.));
#1058=DIRECTION('',(-1.,0.,0.));
#1059=DIRECTION('',(0.,1.,0.));
#1060=DIRECTION('',(-1.,0.,0.));
#1061=DIRECTION('',(0.,1.,0.));
#1062=DIRECTION('',(0.707106781186548,0.,0.707106781186548));
#1063=DIRECTION('',(-0.707106781186548,0.,0.707106781186548));
#1064=DIRECTION('',(0.,1.,0.));
#1065=DIRECTION('',(1.,0.,0.));
#1066=DIRECTION('',(0.,1.,0.));
#1067=DIRECTION('',(1.,0.,0.));
#1068=DIRECTION('',(0.,0.,-1.));
#1069=DIRECTION('',(0.,1.,0.));
#1070=DIRECTION('',(-0.707106781186548,0.,0.707106781186548));
#1071=DIRECTION('',(-0.707106781186548,0.,-0.707106781186548));
#1072=DIRECTION('',(0.,0.,-1.));
#1073=DIRECTION('',(0.,1.,0.));
#1074=DIRECTION('',(0.,0.,1.));
#1075=DIRECTION('',(0.,-1.,0.));
#1076=DIRECTION('',(-0.707106781186548,0.,0.707106781186548));
#1077=DIRECTION('',(-0.707106781186548,0.,-0.707106781186548));
#1078=DIRECTION('',(1.,0.,0.));
#1079=DIRECTION('',(0.,-1.,0.));
#1080=DIRECTION('',(1.,0.,0.));
#1081=DIRECTION('',(0.,-1.,0.));
#1082=DIRECTION('',(-1.,0.,0.));
#1083=DIRECTION('',(0.,1.,0.));
#1084=DIRECTION('',(1.,0.,0.));
#1085=DIRECTION('',(0.,-1.,0.));
#1086=DIRECTION('',(1.,0.,0.));
#1087=DIRECTION('',(0.,-1.,0.));
#1088=DIRECTION('',(-1.,0.,0.));
#1089=DIRECTION('',(0.,1.,0.));
#1090=DIRECTION('',(-1.,0.,0.));
#1091=DIRECTION('',(0.,1.,0.));
#1092=DIRECTION('',(0.,1.,0.));
#1093=DIRECTION('',(1.,0.,0.));
#1094=DIRECTION('',(0.,1.,0.));
#1095=DIRECTION('',(1.,0.,0.));
#1096=DIRECTION('',(0.,0.,1.));
#1097=DIRECTION('',(0.,-1.,0.));
#1098=DIRECTION('',(0.,0.,-1.));
#1099=DIRECTION('',(0.,1.,0.));
#1100=DIRECTION('',(0.,0.,-1.));
#1101=DIRECTION('',(0.,1.,0.));
#1102=DIRECTION('',(0.,-1.,0.));
#1103=DIRECTION('',(-1.,0.,0.));
#1104=DIRECTION('',(8.67361737988403E-16,-1.,0.));
#1105=DIRECTION('',(-1.,-8.67361737988403E-16,0.));
#1106=DIRECTION('',(0.,-1.,0.));
#1107=DIRECTION('',(-1.,0.,0.));
#1108=DIRECTION('',(0.,1.,0.));
#1109=DIRECTION('',(-1.,0.,0.));
#1110=DIRECTION('',(0.,1.,0.));
#1111=DIRECTION('',(-1.,0.,0.));
#1112=DIRECTION('',(0.,1.,0.));
#1113=DIRECTION('',(0.,1.,0.));
#1114=DIRECTION('',(1.,0.,0.));
#1115=DIRECTION('',(0.,1.,0.));
#1116=DIRECTION('',(1.,0.,0.));
#1117=DIRECTION('',(0.,8.67361737988404E-16,1.));
#1118=DIRECTION('',(0.,-1.,8.67361737988404E-16));
#1119=DIRECTION('',(0.,0.,1.));
#1120=DIRECTION('',(0.,-1.,0.));
#1121=DIRECTION('',(0.,-1.,0.));
#1122=DIRECTION('',(-1.,0.,0.));
#1123=DIRECTION('',(0.,-1.,-8.67361737988403E-16));
#1124=DIRECTION('',(0.,8.67361737988403E-16,-1.));
#1125=DIRECTION('',(0.,0.,1.));
#1126=DIRECTION('',(0.,-1.,0.));
#1127=DIRECTION('',(0.,0.,-1.));
#1128=DIRECTION('',(0.,1.,0.));
#1129=DIRECTION('',(-1.,0.,0.));
#1130=DIRECTION('',(0.,1.,0.));
#1131=DIRECTION('',(-1.,0.,0.));
#1132=DIRECTION('',(0.,1.,0.));
#1133=DIRECTION('',(1.,0.,0.));
#1134=DIRECTION('',(0.,-1.,0.));
#1135=DIRECTION('',(1.,0.,0.));
#1136=DIRECTION('',(0.,-1.,0.));
#1137=DIRECTION('',(-1.,0.,0.));
#1138=DIRECTION('',(0.,1.,0.));
#1139=DIRECTION('',(0.,0.,-1.));
#1140=DIRECTION('',(0.,-1.,0.));
#1141=DIRECTION('',(0.,0.,1.));
#1142=DIRECTION('',(0.,1.,0.));
#1143=DIRECTION('',(0.,0.,1.));
#1144=DIRECTION('',(0.,-1.,0.));
#1145=DIRECTION('',(0.,0.,1.));
#1146=DIRECTION('',(0.,-1.,0.));
#1147=DIRECTION('',(0.,0.,-1.));
#1148=DIRECTION('',(0.,-1.,0.));
#1149=DIRECTION('',(1.,0.,0.));
#1150=DIRECTION('',(0.,-1.,0.));
#1151=DIRECTION('',(0.,0.,-1.));
#1152=DIRECTION('',(0.,-1.,0.));
#1153=DIRECTION('',(0.,0.,-1.));
#1154=DIRECTION('',(0.,1.,0.));
#1155=DIRECTION('',(1.,0.,0.));
#1156=DIRECTION('',(0.,1.,0.));
#1157=DIRECTION('',(1.,0.,0.));
#1158=DIRECTION('',(0.,1.,0.));
#1159=DIRECTION('',(1.,0.,0.));
#1160=DIRECTION('',(1.,0.,0.));
#1161=DIRECTION('',(0.,0.,-1.));
#1162=DIRECTION('',(0.,0.,-1.));
#1163=DIRECTION('',(0.,-1.,0.));
#1164=DIRECTION('',(-1.,0.,0.));
#1165=DIRECTION('',(0.,-1.,0.));
#1166=DIRECTION('',(-1.,0.,0.));
#1167=DIRECTION('',(0.,-1.,0.));
#1168=DIRECTION('',(-1.,0.,0.));
#1169=DIRECTION('',(-1.,0.,0.));
#1170=DIRECTION('',(0.,0.,-1.));
#1171=DIRECTION('',(0.,0.,-1.));
#1172=DIRECTION('',(0.,0.,1.));
#1173=DIRECTION('',(1.,0.,0.));
#1174=DIRECTION('',(1.,0.,0.));
#1175=DIRECTION('',(-1.,0.,0.));
#1176=DIRECTION('',(0.,0.,-1.));
#1177=DIRECTION('',(0.,1.,0.));
#1178=DIRECTION('',(-0.707106781186548,0.,-0.707106781186548));
#1179=DIRECTION('',(0.707106781186548,0.,-0.707106781186548));
#1180=DIRECTION('',(0.,0.,-1.));
#1181=DIRECTION('',(0.,1.,0.));
#1182=DIRECTION('',(0.,0.707106781186548,0.707106781186548));
#1183=DIRECTION('',(0.,0.707106781186548,-0.707106781186548));
#1184=DIRECTION('',(0.707106781186548,0.,-0.707106781186548));
#1185=DIRECTION('',(-0.707106781186548,0.,-0.707106781186548));
#1186=DIRECTION('',(-1.,0.,0.));
#1187=DIRECTION('',(0.,1.,0.));
#1188=DIRECTION('',(0.,0.,-1.));
#1189=DIRECTION('',(0.,1.,0.));
#1190=DIRECTION('',(-0.707106781186548,0.,-0.707106781186548));
#1191=DIRECTION('',(0.707106781186548,0.,-0.707106781186548));
#1192=DIRECTION('',(1.,0.,0.));
#1193=DIRECTION('',(0.,-1.,0.));
#1194=DIRECTION('',(0.707106781186548,0.,-0.707106781186548));
#1195=DIRECTION('',(0.707106781186548,0.,0.707106781186548));
#1196=DIRECTION('',(0.,0.,-1.));
#1197=DIRECTION('',(0.,1.,0.));
#1198=DIRECTION('',(0.,0.707106781186548,-0.707106781186548));
#1199=DIRECTION('',(0.,0.707106781186548,0.707106781186548));
#1200=DIRECTION('',(0.,1.,0.));
#1201=DIRECTION('',(1.,0.,0.));
#1202=DIRECTION('',(0.,-1.,0.));
#1203=DIRECTION('',(-1.,0.,0.));
#1204=DIRECTION('',(0.,1.,0.));
#1205=DIRECTION('',(1.,0.,0.));
#1206=DIRECTION('',(0.,1.,0.));
#1207=DIRECTION('',(1.,0.,0.));
#1208=DIRECTION('',(0.,-1.,0.));
#1209=DIRECTION('',(-1.,0.,0.));
#1210=DIRECTION('',(0.,1.,0.));
#1211=DIRECTION('',(1.,0.,0.));
#1212=DIRECTION('',(0.,-1.,0.));
#1213=DIRECTION('',(-1.,0.,0.));
#1214=DIRECTION('',(0.,1.,0.));
#1215=DIRECTION('',(1.,0.,0.));
#1216=DIRECTION('',(0.,-1.,0.));
#1217=DIRECTION('',(-1.,0.,0.));
#1218=DIRECTION('',(0.,1.,0.));
#1219=DIRECTION('',(1.,0.,0.));
#1220=DIRECTION('',(0.,1.,0.));
#1221=DIRECTION('',(1.,0.,0.));
#1222=DIRECTION('',(0.,-1.,0.));
#1223=DIRECTION('',(-1.,0.,0.));
#1224=DIRECTION('',(-1.,0.,0.));
#1225=DIRECTION('',(0.,1.,0.));
#1226=DIRECTION('',(0.,0.,-1.));
#1227=DIRECTION('',(0.,1.,0.));
#1228=DIRECTION('',(0.,1.,0.));
#1229=DIRECTION('',(1.,0.,0.));
#1230=DIRECTION('',(0.,1.,0.));
#1231=DIRECTION('',(1.,0.,0.));
#1232=DIRECTION('',(0.,0.,1.));
#1233=DIRECTION('',(0.,-1.,0.));
#1234=DIRECTION('',(0.,0.,-1.));
#1235=DIRECTION('',(0.,1.,0.));
#1236=DIRECTION('',(-1.,0.,0.));
#1237=DIRECTION('',(0.,1.,0.));
#1238=DIRECTION('',(0.,0.,-1.));
#1239=DIRECTION('',(0.,1.,0.));
#1240=DIRECTION('',(-1.,0.,0.));
#1241=DIRECTION('',(0.,1.,0.));
#1242=DIRECTION('',(0.,1.,0.));
#1243=DIRECTION('',(1.,0.,0.));
#1244=DIRECTION('',(0.,0.,-1.));
#1245=DIRECTION('',(0.,1.,0.));
#1246=DIRECTION('',(0.,0.,-1.));
#1247=DIRECTION('',(0.,1.,0.));
#1248=DIRECTION('',(0.,-1.,0.));
#1249=DIRECTION('',(-1.,0.,0.));
#1250=DIRECTION('',(0.,1.,1.73472347597681E-15));
#1251=DIRECTION('',(0.,-1.73472347597681E-15,1.));
#1252=DIRECTION('',(-1.,0.,0.));
#1253=DIRECTION('',(0.,1.,0.));
#1254=DIRECTION('',(0.,-1.,0.));
#1255=DIRECTION('',(-1.,0.,0.));
#1256=DIRECTION('',(-1.,0.,0.));
#1257=DIRECTION('',(0.,1.,0.));
#1258=DIRECTION('',(0.,0.,1.));
#1259=DIRECTION('',(0.,-1.,0.));
#1260=DIRECTION('',(0.,-1.,0.));
#1261=DIRECTION('',(-1.,0.,0.));
#1262=DIRECTION('',(0.,-0.707106781186548,-0.707106781186548));
#1263=DIRECTION('',(0.,0.707106781186548,-0.707106781186548));
#1264=DIRECTION('',(0.,0.,-1.));
#1265=DIRECTION('',(0.,1.,0.));
#1266=CARTESIAN_POINT('',(0.,0.,0.));
#1267=CARTESIAN_POINT('',(-0.0160863392455616,0.0325,-0.00582911326369436));
#1268=CARTESIAN_POINT('',(-0.0945863392455617,0.019,-0.00582911326369436));
#1269=CARTESIAN_POINT('',(-0.0870863392455617,0.019,-0.00582911326369436));
#1270=CARTESIAN_POINT('',(-0.102086339245562,0.019,-0.00582911326369436));
#1271=CARTESIAN_POINT('',(-0.0870863392455617,0.064,-0.00582911326369436));
#1272=CARTESIAN_POINT('',(-0.0870863392455617,0.064,-0.00582911326369436));
#1273=CARTESIAN_POINT('',(-0.0160863392455616,0.064,-0.00582911326369436));
#1274=CARTESIAN_POINT('',(-0.103086339245562,0.064,-0.00582911326369436));
#1275=CARTESIAN_POINT('',(-0.103086339245562,0.0325,-0.00582911326369436));
#1276=CARTESIAN_POINT('',(-0.103086339245562,0.018,-0.00582911326369436));
#1277=CARTESIAN_POINT('',(-0.102086339245562,0.018,-0.00582911326369436));
#1278=CARTESIAN_POINT('',(-0.0950863392455617,0.0325,-0.0148291132636944));
#1279=CARTESIAN_POINT('',(-0.0950863392455617,0.065,-0.0138291132636944));
#1280=CARTESIAN_POINT('',(-0.0950863392455617,0.003,-0.0138291132636944));
#1281=CARTESIAN_POINT('',(-0.0950863392455617,0.064,-0.0138291132636944));
#1282=CARTESIAN_POINT('',(-0.0950863392455617,0.064,-0.0128291132636944));
#1283=CARTESIAN_POINT('',(-0.0950863392455617,0.064,-0.0128291132636944));
#1284=CARTESIAN_POINT('',(-0.0950863392455617,0.0325,-0.0128291132636944));
#1285=CARTESIAN_POINT('',(-0.0950863392455617,0.003,-0.0128291132636944));
#1286=CARTESIAN_POINT('',(-0.0950863392455617,0.003,-0.0148291132636944));
#1287=CARTESIAN_POINT('',(-0.0160863392455616,0.003,-0.0108291132636944));
#1288=CARTESIAN_POINT('',(-0.0160863392455616,0.003,-0.00882911326369436));
#1289=CARTESIAN_POINT('',(-0.101086339245562,0.003,-0.00882911326369436));
#1290=CARTESIAN_POINT('',(-0.0870863392455617,0.003,-0.00882911326369436));
#1291=CARTESIAN_POINT('',(-0.0870863392455617,0.003,-0.0138291132636944));
#1292=CARTESIAN_POINT('',(-0.0870863392455617,0.003,-0.0138291132636944));
#1293=CARTESIAN_POINT('',(-0.0160863392455616,0.003,-0.0138291132636944));
#1294=CARTESIAN_POINT('',(-0.0160863392455616,0.003,-0.0128291132636944));
#1295=CARTESIAN_POINT('',(-0.101086339245562,0.003,-0.0128291132636944));
#1296=CARTESIAN_POINT('',(-0.101086339245562,0.003,-0.0108291132636944));
#1297=CARTESIAN_POINT('',(-0.0160863392455616,0.,-0.0108291132636944));
#1298=CARTESIAN_POINT('',(0.0719136607544383,0.,-0.0138291132636944));
#1299=CARTESIAN_POINT('',(-0.103086339245562,0.,-0.0138291132636944));
#1300=CARTESIAN_POINT('',(-0.0870863392455617,0.,-0.0138291132636944));
#1301=CARTESIAN_POINT('',(-0.0870863392455617,0.,-0.0108291132636944));
#1302=CARTESIAN_POINT('',(-0.0870863392455617,0.,-0.00682911326369436));
#1303=CARTESIAN_POINT('',(-0.104086339245562,0.,-0.00682911326369436));
#1304=CARTESIAN_POINT('',(-0.103086339245562,0.,-0.00682911326369436));
#1305=CARTESIAN_POINT('',(-0.103086339245562,0.,-0.0148291132636944));
#1306=CARTESIAN_POINT('',(-0.0160863392455616,0.065,-0.00582911326369436));
#1307=CARTESIAN_POINT('',(-0.0160863392455616,0.065,-0.00682911326369436));
#1308=CARTESIAN_POINT('',(-0.103086339245562,0.065,-0.00682911326369436));
#1309=CARTESIAN_POINT('',(-0.0870863392455617,0.065,-0.00682911326369436));
#1310=CARTESIAN_POINT('',(-0.0870863392455617,0.065,-0.00782911326369436));
#1311=CARTESIAN_POINT('',(-0.0870863392455617,0.065,-0.00782911326369436));
#1312=CARTESIAN_POINT('',(-0.101086339245562,0.065,-0.00782911326369436));
#1313=CARTESIAN_POINT('',(-0.102086339245562,0.065,-0.00782911326369436));
#1314=CARTESIAN_POINT('',(-0.102086339245562,0.065,-0.0128291132636944));
#1315=CARTESIAN_POINT('',(-0.102086339245562,0.065,-0.0138291132636944));
#1316=CARTESIAN_POINT('',(-0.0160863392455616,0.065,-0.0138291132636944));
#1317=CARTESIAN_POINT('',(-0.103086339245562,0.065,-0.0138291132636944));
#1318=CARTESIAN_POINT('',(-0.103086339245562,0.065,-0.00582911326369436));
#1319=CARTESIAN_POINT('',(-0.0160863392455616,0.0325,-0.00582911326369436));
#1320=CARTESIAN_POINT('',(0.0719136607544383,0.001,-0.00582911326369436));
#1321=CARTESIAN_POINT('',(-0.103086339245562,0.001,-0.00582911326369436));
#1322=CARTESIAN_POINT('',(-0.0870863392455617,0.001,-0.00582911326369436));
#1323=CARTESIAN_POINT('',(-0.0870863392455617,0.017,-0.00582911326369436));
#1324=CARTESIAN_POINT('',(-0.0870863392455617,0.016,-0.00582911326369436));
#1325=CARTESIAN_POINT('',(-0.0945863392455617,0.016,-0.00582911326369436));
#1326=CARTESIAN_POINT('',(-0.102086339245562,0.016,-0.00582911326369436));
#1327=CARTESIAN_POINT('',(-0.102086339245562,0.017,-0.00582911326369436));
#1328=CARTESIAN_POINT('',(-0.103086339245562,0.017,-0.00582911326369436));
#1329=CARTESIAN_POINT('',(-0.103086339245562,0.0325,-0.00582911326369436));
#1330=CARTESIAN_POINT('',(-0.0160863392455616,0.0325,-0.00882911326369436));
#1331=CARTESIAN_POINT('',(0.0689136607544383,0.064,-0.00882911326369436));
#1332=CARTESIAN_POINT('',(-0.101086339245562,0.064,-0.00882911326369436));
#1333=CARTESIAN_POINT('',(-0.0870863392455617,0.064,-0.00882911326369436));
#1334=CARTESIAN_POINT('',(-0.0870863392455617,0.0325,-0.00882911326369436));
#1335=CARTESIAN_POINT('',(-0.101086339245562,0.003,-0.00882911326369436));
#1336=CARTESIAN_POINT('',(-0.101086339245562,0.0325,-0.00932911326369436));
#1337=CARTESIAN_POINT('',(-0.101086339245562,0.0325,-0.0128291132636944));
#1338=CARTESIAN_POINT('',(-0.101086339245562,0.064,-0.0128291132636944));
#1339=CARTESIAN_POINT('',(-0.101086339245562,0.064,-0.00882911326369436));
#1340=CARTESIAN_POINT('',(-0.104086339245562,0.0325,-0.00932911326369436));
#1341=CARTESIAN_POINT('',(-0.104086339245562,0.064,-0.00932911326369436));
#1342=CARTESIAN_POINT('',(-0.104086339245562,0.064,-0.00682911326369436));
#1343=CARTESIAN_POINT('',(-0.104086339245562,0.064,-0.0138291132636944));
#1344=CARTESIAN_POINT('',(-0.104086339245562,0.0325,-0.0138291132636944));
#1345=CARTESIAN_POINT('',(-0.104086339245562,0.001,-0.0138291132636944));
#1346=CARTESIAN_POINT('',(-0.104086339245562,0.001,-0.00582911326369436));
#1347=CARTESIAN_POINT('',(-0.104086339245562,0.001,-0.00682911326369436));
#1348=CARTESIAN_POINT('',(-0.104086339245562,0.0325,-0.00682911326369436));
#1349=CARTESIAN_POINT('',(-0.0160863392455616,0.0325,-0.0148291132636944));
#1350=CARTESIAN_POINT('',(-0.0160863392455616,0.002,-0.0148291132636944));
#1351=CARTESIAN_POINT('',(-0.0960863392455617,0.002,-0.0148291132636944));
#1352=CARTESIAN_POINT('',(-0.0870863392455617,0.002,-0.0148291132636944));
#1353=CARTESIAN_POINT('',(-0.0870863392455617,0.001,-0.0148291132636944));
#1354=CARTESIAN_POINT('',(-0.0870863392455617,0.001,-0.0148291132636944));
#1355=CARTESIAN_POINT('',(-0.104086339245562,0.001,-0.0148291132636944));
#1356=CARTESIAN_POINT('',(-0.103086339245562,0.001,-0.0148291132636944));
#1357=CARTESIAN_POINT('',(-0.103086339245562,0.0325,-0.0148291132636944));
#1358=CARTESIAN_POINT('',(-0.103086339245562,0.064,-0.0148291132636944));
#1359=CARTESIAN_POINT('',(-0.0160863392455616,0.064,-0.0148291132636944));
#1360=CARTESIAN_POINT('',(-0.0960863392455617,0.064,-0.0148291132636944));
#1361=CARTESIAN_POINT('',(-0.0960863392455617,0.003,-0.0148291132636944));
#1362=CARTESIAN_POINT('',(-0.0160863392455616,0.0325,-0.0128291132636944));
#1363=CARTESIAN_POINT('',(-0.101086339245562,0.064,-0.0128291132636944));
#1364=CARTESIAN_POINT('',(-0.0160863392455616,0.002,-0.0138291132636944));
#1365=CARTESIAN_POINT('',(-0.0870863392455617,0.002,-0.0138291132636944));
#1366=CARTESIAN_POINT('',(-0.0960863392455617,0.002,-0.0138291132636944));
#1367=CARTESIAN_POINT('',(-0.0160863392455616,0.064,-0.00782911326369436));
#1368=CARTESIAN_POINT('',(-0.0870863392455617,0.064,-0.00782911326369436));
#1369=CARTESIAN_POINT('',(-0.102086339245562,0.064,-0.00782911326369436));
#1370=CARTESIAN_POINT('',(-0.0960863392455617,0.0325,-0.0138291132636944));
#1371=CARTESIAN_POINT('',(-0.0960863392455617,0.064,-0.0138291132636944));
#1372=CARTESIAN_POINT('',(-0.0960863392455617,0.064,-0.0148291132636944));
#1373=CARTESIAN_POINT('',(-0.0960863392455617,0.064,-0.0138291132636944));
#1374=CARTESIAN_POINT('',(-0.0960863392455617,0.065,-0.0138291132636944));
#1375=CARTESIAN_POINT('',(-0.0960863392455617,0.064,-0.0138291132636944));
#1376=CARTESIAN_POINT('',(-0.102086339245562,0.064,-0.00582911326369436));
#1377=CARTESIAN_POINT('',(-0.102086339245562,0.064,-0.0138291132636944));
#1378=CARTESIAN_POINT('',(-0.0160863392455616,0.064,-0.00682911326369436));
#1379=CARTESIAN_POINT('',(-0.0870863392455617,0.064,-0.00682911326369436));
#1380=CARTESIAN_POINT('',(-0.103086339245562,0.064,-0.00682911326369436));
#1381=CARTESIAN_POINT('',(-0.0960863392455617,0.064,-0.0138291132636944));
#1382=CARTESIAN_POINT('',(-0.0960863392455617,0.064,-0.0138291132636944));
#1383=CARTESIAN_POINT('',(-0.0160863392455616,0.064,-0.0138291132636944));
#1384=CARTESIAN_POINT('',(-0.103086339245562,0.064,-0.0138291132636944));
#1385=CARTESIAN_POINT('',(-0.103086339245562,0.064,-0.00682911326369436));
#1386=CARTESIAN_POINT('',(-0.103086339245562,0.064,-0.00682911326369436));
#1387=CARTESIAN_POINT('',(-0.103086339245562,0.064,-0.00682911326369436));
#1388=CARTESIAN_POINT('',(-0.103086339245562,0.064,-0.00932911326369436));
#1389=CARTESIAN_POINT('',(-0.103086339245562,0.064,-0.0138291132636944));
#1390=CARTESIAN_POINT('',(-0.103086339245562,0.0325,-0.00682911326369436));
#1391=CARTESIAN_POINT('',(-0.103086339245562,0.001,-0.00682911326369436));
#1392=CARTESIAN_POINT('',(-0.103086339245562,0.0325,-0.00582911326369436));
#1393=CARTESIAN_POINT('',(-0.0160863392455616,0.001,-0.00682911326369436));
#1394=CARTESIAN_POINT('',(-0.0870863392455617,0.001,-0.00682911326369436));
#1395=CARTESIAN_POINT('',(-0.103086339245562,0.001,-0.00682911326369436));
#1396=CARTESIAN_POINT('',(-0.103086339245562,0.064,-0.0138291132636944));
#1397=CARTESIAN_POINT('',(-0.103086339245562,0.064,-0.0138291132636944));
#1398=CARTESIAN_POINT('',(-0.103086339245562,0.001,-0.00682911326369436));
#1399=CARTESIAN_POINT('',(-0.103086339245562,0.001,-0.00682911326369436));
#1400=CARTESIAN_POINT('',(-0.103086339245562,0.0325,-0.0138291132636944));
#1401=CARTESIAN_POINT('',(-0.103086339245562,0.001,-0.0138291132636944));
#1402=CARTESIAN_POINT('',(-0.103086339245562,0.001,-0.0108291132636944));
#1403=CARTESIAN_POINT('',(-0.103086339245562,0.001,-0.0138291132636944));
#1404=CARTESIAN_POINT('',(-0.103086339245562,0.001,-0.0138291132636944));
#1405=CARTESIAN_POINT('',(-0.103086339245562,0.001,-0.0138291132636944));
#1406=CARTESIAN_POINT('',(-0.0160863392455616,0.001,-0.0138291132636944));
#1407=CARTESIAN_POINT('',(-0.0870863392455617,0.001,-0.0138291132636944));
#1408=CARTESIAN_POINT('',(-0.0860863392455617,0.0415,-0.0308291132636943));
#1409=CARTESIAN_POINT('',(-0.0860863392455617,0.017,-0.0308291132636943));
#1410=CARTESIAN_POINT('',(-0.0860863392455617,0.017,0.0101708867363056));
#1411=CARTESIAN_POINT('',(-0.0860863392455617,0.017,-0.00682911326369436));
#1412=CARTESIAN_POINT('',(-0.0860863392455617,0.001,-0.00682911326369436));
#1413=CARTESIAN_POINT('',(-0.0860863392455617,0.001,-0.00682911326369436));
#1414=CARTESIAN_POINT('',(-0.0860863392455617,0.001,-0.0308291132636943));
#1415=CARTESIAN_POINT('',(-0.0860863392455617,0.001,-0.0138291132636944));
#1416=CARTESIAN_POINT('',(-0.0860863392455617,0.002,-0.0138291132636944));
#1417=CARTESIAN_POINT('',(-0.0860863392455617,0.002,-0.0138291132636944));
#1418=CARTESIAN_POINT('',(-0.0860863392455617,0.002,-0.00882911326369436));
#1419=CARTESIAN_POINT('',(-0.0860863392455617,0.002,-0.00782911326369436));
#1420=CARTESIAN_POINT('',(-0.0860863392455617,0.0415,-0.00782911326369436));
#1421=CARTESIAN_POINT('',(-0.0860863392455617,0.064,-0.00782911326369436));
#1422=CARTESIAN_POINT('',(-0.0860863392455617,0.064,-0.00682911326369436));
#1423=CARTESIAN_POINT('',(-0.0860863392455617,0.064,-0.00682911326369436));
#1424=CARTESIAN_POINT('',(-0.0860863392455617,0.018,-0.00682911326369436));
#1425=CARTESIAN_POINT('',(-0.0860863392455617,0.018,-0.00682911326369436));
#1426=CARTESIAN_POINT('',(-0.0860863392455617,0.018,-0.0308291132636943));
#1427=CARTESIAN_POINT('',(-0.0860863392455617,0.018,0.0101708867363056));
#1428=CARTESIAN_POINT('',(-0.0860863392455617,0.0415,0.0101708867363056));
#1429=CARTESIAN_POINT('',(-0.103086339245562,0.0325,0.0101708867363056));
#1430=CARTESIAN_POINT('',(-0.103086339245562,0.017,0.0101708867363056));
#1431=CARTESIAN_POINT('',(-0.103086339245562,0.017,0.0101708867363056));
#1432=CARTESIAN_POINT('',(-0.103086339245562,0.0325,0.0101708867363056));
#1433=CARTESIAN_POINT('',(-0.103086339245562,0.018,0.0101708867363056));
#1434=CARTESIAN_POINT('',(-0.103086339245562,0.018,0.0101708867363056));
#1435=CARTESIAN_POINT('',(-0.0945863392455617,0.016,0.0101708867363056));
#1436=CARTESIAN_POINT('',(-0.0985863392455617,0.016,0.00217088673630564));
#1437=CARTESIAN_POINT('',(-0.0960863392455617,0.016,0.00217088673630564));
#1438=CARTESIAN_POINT('',(-0.0905863392455617,0.016,0.00217088673630564));
#1439=CARTESIAN_POINT('',(-0.0880863392455617,0.016,0.00217088673630564));
#1440=CARTESIAN_POINT('',(-0.103086339245562,0.016,0.00917088673630564));
#1441=CARTESIAN_POINT('',(-0.0870863392455617,0.016,0.00917088673630564));
#1442=CARTESIAN_POINT('',(-0.102086339245562,0.016,0.00917088673630564));
#1443=CARTESIAN_POINT('',(-0.102086339245562,0.016,0.0101708867363056));
#1444=CARTESIAN_POINT('',(-0.0870863392455617,0.016,0.0101708867363056));
#1445=CARTESIAN_POINT('',(-0.0945863392455617,0.019,0.0101708867363056));
#1446=CARTESIAN_POINT('',(-0.0985863392455617,0.019,0.00217088673630564));
#1447=CARTESIAN_POINT('',(-0.101086339245562,0.019,0.00217088673630564));
#1448=CARTESIAN_POINT('',(-0.0905863392455617,0.019,0.00217088673630564));
#1449=CARTESIAN_POINT('',(-0.0930863392455617,0.019,0.00217088673630564));
#1450=CARTESIAN_POINT('',(-0.0860863392455617,0.019,0.00917088673630564));
#1451=CARTESIAN_POINT('',(-0.102086339245562,0.019,0.00917088673630564));
#1452=CARTESIAN_POINT('',(-0.0870863392455617,0.019,0.00917088673630564));
#1453=CARTESIAN_POINT('',(-0.0870863392455617,0.019,0.0101708867363056));
#1454=CARTESIAN_POINT('',(-0.102086339245562,0.019,0.0101708867363056));
#1455=CARTESIAN_POINT('',(-0.0160863392455616,0.0325,0.0101708867363056));
#1456=CARTESIAN_POINT('',(-0.0860863392455617,0.017,0.0101708867363056));
#1457=CARTESIAN_POINT('',(-0.103086339245562,0.018,0.0101708867363056));
#1458=CARTESIAN_POINT('',(-0.102086339245562,0.017,0.0101708867363056));
#1459=CARTESIAN_POINT('',(-0.102086339245562,0.017,0.00917088673630564));
#1460=CARTESIAN_POINT('',(-0.0870863392455617,0.017,-0.0308291132636943));
#1461=CARTESIAN_POINT('',(-0.0870863392455617,0.017,-0.00682911326369436));
#1462=CARTESIAN_POINT('',(-0.0870863392455617,0.017,0.00917088673630564));
#1463=CARTESIAN_POINT('',(-0.0160863392455616,0.017,0.00917088673630564));
#1464=CARTESIAN_POINT('',(-0.102086339245562,0.018,0.0101708867363056));
#1465=CARTESIAN_POINT('',(-0.102086339245562,0.018,0.00917088673630564));
#1466=CARTESIAN_POINT('',(-0.0160863392455616,0.018,0.00917088673630564));
#1467=CARTESIAN_POINT('',(-0.0870863392455617,0.018,0.00917088673630564));
#1468=CARTESIAN_POINT('',(-0.0870863392455617,0.018,0.0101708867363056));
#1469=CARTESIAN_POINT('',(-0.0870863392455617,0.018,-0.00682911326369436));
#1470=CARTESIAN_POINT('',(-0.0905863392455617,-0.006,0.00217088673630564));
#1471=CARTESIAN_POINT('',(-0.0905863392455617,0.018,0.00217088673630564));
#1472=CARTESIAN_POINT('',(-0.0920863392455617,0.018,0.00217088673630564));
#1473=CARTESIAN_POINT('',(-0.0905863392455617,0.017,0.00217088673630564));
#1474=CARTESIAN_POINT('',(-0.0890863392455617,0.017,0.00217088673630564));
#1475=CARTESIAN_POINT('',(-0.0985863392455617,-0.006,0.00217088673630564));
#1476=CARTESIAN_POINT('',(-0.0985863392455617,0.018,0.00217088673630564));
#1477=CARTESIAN_POINT('',(-0.100086339245562,0.018,0.00217088673630564));
#1478=CARTESIAN_POINT('',(-0.0985863392455617,0.017,0.00217088673630564));
#1479=CARTESIAN_POINT('',(-0.0970863392455617,0.017,0.00217088673630564));
#1480=CARTESIAN_POINT('',(-0.0985863392455617,0.018,0.00217088673630564));
#1481=CARTESIAN_POINT('',(-0.0985863392455617,0.017,0.00217088673630564));
#1482=CARTESIAN_POINT('',(-0.0905863392455617,0.018,0.00217088673630564));
#1483=CARTESIAN_POINT('',(-0.0905863392455617,0.017,0.00217088673630564));
#1484=CARTESIAN_POINT('',(-0.0870863392455617,0.0415,-0.00682911326369436));
#1485=CARTESIAN_POINT('',(-0.0870863392455617,0.001,-0.00682911326369436));
#1486=CARTESIAN_POINT('',(-0.0870863392455617,0.001,-0.00682911326369436));
#1487=CARTESIAN_POINT('',(-0.0870863392455617,0.001,-0.00682911326369436));
#1488=CARTESIAN_POINT('',(-0.0870863392455617,0.0415,-0.00682911326369436));
#1489=CARTESIAN_POINT('',(-0.0870863392455617,0.064,-0.00682911326369436));
#1490=CARTESIAN_POINT('',(-0.0870863392455617,0.001,-0.0108291132636944));
#1491=CARTESIAN_POINT('',(-0.0870863392455617,0.001,-0.0138291132636944));
#1492=CARTESIAN_POINT('',(-0.0870863392455617,0.064,-0.00682911326369436));
#1493=CARTESIAN_POINT('',(-0.0870863392455617,0.064,-0.00682911326369436));
#1494=CARTESIAN_POINT('',(-0.0870863392455617,0.001,-0.0138291132636944));
#1495=CARTESIAN_POINT('',(-0.0870863392455617,0.001,-0.0138291132636944));
#1496=CARTESIAN_POINT('',(-0.0870863392455617,0.064,-0.0308291132636943));
#1497=CARTESIAN_POINT('',(-0.0870863392455617,0.064,-0.00782911326369436));
#1498=CARTESIAN_POINT('',(-0.0870863392455617,0.0415,-0.0138291132636944));
#1499=CARTESIAN_POINT('',(-0.0870863392455617,0.002,-0.0138291132636944));
#1500=CARTESIAN_POINT('',(-0.0870863392455617,0.064,-0.00782911326369436));
#1501=CARTESIAN_POINT('',(-0.0870863392455617,0.064,-0.00782911326369436));
#1502=CARTESIAN_POINT('',(-0.0870863392455617,0.002,-0.0138291132636944));
#1503=CARTESIAN_POINT('',(-0.0870863392455617,0.002,-0.0138291132636944));
#1504=CARTESIAN_POINT('',(-0.0870863392455617,0.0325,-0.00782911326369436));
#1505=CARTESIAN_POINT('',(-0.0870863392455617,0.002,-0.00782911326369436));
#1506=CARTESIAN_POINT('',(-0.0870863392455617,0.002,-0.0308291132636943));
#1507=MECHANICAL_DESIGN_GEOMETRIC_PRESENTATION_REPRESENTATION('',(#860),
#1508);
#1508=(
GEOMETRIC_REPRESENTATION_CONTEXT(3)
GLOBAL_UNCERTAINTY_ASSIGNED_CONTEXT((#1509))
GLOBAL_UNIT_ASSIGNED_CONTEXT((#1512,#1511,#1510))
REPRESENTATION_CONTEXT('Part 2','TOP_LEVEL_ASSEMBLY_PART')
);
#1509=UNCERTAINTY_MEASURE_WITH_UNIT(LENGTH_MEASURE(1.E-8),#1512,
'DISTANCE_ACCURACY_VALUE','Maximum Tolerance applied to model');
#1510=(
NAMED_UNIT(*)
SI_UNIT($,.STERADIAN.)
SOLID_ANGLE_UNIT()
);
#1511=(
NAMED_UNIT(*)
PLANE_ANGLE_UNIT()
SI_UNIT($,.RADIAN.)
);
#1512=(
LENGTH_UNIT()
NAMED_UNIT(*)
SI_UNIT($,.METRE.)
);
#1513=PRODUCT_DEFINITION_SHAPE('','',#1514);
#1514=PRODUCT_DEFINITION('','',#1516,#1515);
#1515=PRODUCT_DEFINITION_CONTEXT('',#1522,'design');
#1516=PRODUCT_DEFINITION_FORMATION_WITH_SPECIFIED_SOURCE('','',#1518,
 .NOT_KNOWN.);
#1517=PRODUCT_RELATED_PRODUCT_CATEGORY('','',(#1518));
#1518=PRODUCT('Part 2','Part 2','Part 2',(#1520));
#1519=PRODUCT_CATEGORY('','');
#1520=PRODUCT_CONTEXT('',#1522,'mechanical');
#1521=APPLICATION_PROTOCOL_DEFINITION('international standard',
'ap242_managed_model_based_3d_engineering',2020,#1522);
#1522=APPLICATION_CONTEXT('managed model based 3d engineering');
ENDSEC;
END-ISO-10303-21;
